{
 "id": "6V7AAEJL9V",
 "fps": {
  "num": 24,
  "den": 1
 },
 "display_ratio": {
  "num": 16,
  "den": 9
 },
 "pixel_ratio": {
  "num": 1,
  "den": 1
 },
 "width": 1280,
 "height": 720,
 "sample_rate": 44100,
 "channels": 2,
 "channel_layout": 3,
 "settings": {},
 "clips": [
  {
   "alpha": {
    "Points": [
     {
      "co": {
       "X": 1,
       "Y": 1
      },
      "interpolation": 2
     }
    ]
   },
   "anchor": 0,
   "channel_filter": {
    "Points": [
     {
      "co": {
       "X": 1,
       "Y": -1
      },
      "interpolation": 2
     }
    ]
   },
   "channel_mapping": {
    "Points": [
     {
      "co": {
       "X": 1,
       "Y": -1
      },
      "interpolation": 2
     }
    ]
   },
   "crop_height": {
    "Points": [
     {
      "co": {
       "X": 1,
       "Y": 1
      },
      "interpolation": 2
     }
    ]
   },
   "crop_width": {
    "Points": [
     {
      "co": {
       "X": 1,
       "Y": 1
      },
      "interpolation": 2
     }
    ]
   },
   "crop_x": {
    "Points": [
     {
      "co": {
       "X": 1,
       "Y": 0
      },
      "interpolation": 2
     }
    ]
   },
   "crop_y": {
    "Points": [
     {
      "co": {
       "X": 1,
       "Y": 0
      },
      "interpolation": 2
     }
    ]
   },
   "display": 0,
   "duration": 138.710205078125,
   "effects": [],
   "end": 138.710205078125,
   "gravity": 4,
   "has_audio": {
    "Points": [
     {
      "co": {
       "X": 1,
       "Y": -1
      },
      "interpolation": 2
     }
    ]
   },
   "has_video": {
    "Points": [
     {
      "co": {
       "X": 1,
       "Y": -1
      },
      "interpolation": 2
     }
    ]
   },
   "id": "ASHR3UX8IY",
   "layer": 5000000,
   "location_x": {
    "Points": [
     {
      "co": {
       "X": 1,
       "Y": 0
      },
      "interpolation": 2
     }
    ]
   },
   "location_y": {
    "Points": [
     {
      "co": {
       "X": 1,
       "Y": 0
      },
      "interpolation": 2
     }
    ]
   },
   "mixing": 0,
   "perspective_c1_x": {
    "Points": [
     {
      "co": {
       "X": 1,
       "Y": -1
      },
      "interpolation": 2
     }
    ]
   },
   "perspective_c1_y": {
    "Points": [
     {
      "co": {
       "X": 1,
       "Y": -1
      },
      "interpolation": 2
     }
    ]
   },
   "perspective_c2_x": {
    "Points": [
     {
      "co": {
       "X": 1,
       "Y": -1
      },
      "interpolation": 2
     }
    ]
   },
   "perspective_c2_y": {
    "Points": [
     {
      "co": {
       "X": 1,
       "Y": -1
      },
      "interpolation": 2
     }
    ]
   },
   "perspective_c3_x": {
    "Points": [
     {
      "co": {
       "X": 1,
       "Y": -1
      },
      "interpolation": 2
     }
    ]
   },
   "perspective_c3_y": {
    "Points": [
     {
      "co": {
       "X": 1,
       "Y": -1
      },
      "interpolation": 2
     }
    ]
   },
   "perspective_c4_x": {
    "Points": [
     {
      "co": {
       "X": 1,
       "Y": -1
      },
      "interpolation": 2
     }
    ]
   },
   "perspective_c4_y": {
    "Points": [
     {
      "co": {
       "X": 1,
       "Y": -1
      },
      "interpolation": 2
     }
    ]
   },
   "position": 0,
   "reader": {
    "acodec": "mp3float",
    "audio_bit_rate": 179292,
    "audio_stream_index": 0,
    "audio_timebase": {
     "den": 14112000,
     "num": 1
    },
    "channel_layout": 3,
    "channels": 2,
    "display_ratio": {
     "den": 1,
     "num": 1
    },
    "duration": 138.710205078125,
    "file_size": "3108707",
    "fps": {
     "den": 1,
     "num": 24
    },
    "has_audio": true,
    "has_single_image": false,
    "has_video": false,
    "height": 480,
    "interlaced_frame": false,
    "metadata": {
     "encoder": "LAME3.100"
    },
    "path": "./240 Alleluia Alleluia with Singers.mp3",
    "pixel_format": -1,
    "pixel_ratio": {
     "den": 1,
     "num": 1
    },
    "sample_rate": 44100,
    "top_field_first": true,
    "type": "FFmpegReader",
    "vcodec": "",
    "video_bit_rate": 0,
    "video_length": "3329",
    "video_stream_index": -1,
    "video_timebase": {
     "den": 24,
     "num": 1
    },
    "width": 720
   },
   "rotation": {
    "Points": [
     {
      "co": {
       "X": 1,
       "Y": 0
      },
      "interpolation": 2
     }
    ]
   },
   "scale": 1,
   "scale_x": {
    "Points": [
     {
      "co": {
       "X": 1,
       "Y": 1
      },
      "interpolation": 2
     }
    ]
   },
   "scale_y": {
    "Points": [
     {
      "co": {
       "X": 1,
       "Y": 1
      },
      "interpolation": 2
     }
    ]
   },
   "shear_x": {
    "Points": [
     {
      "co": {
       "X": 1,
       "Y": 0
      },
      "interpolation": 2
     }
    ]
   },
   "shear_y": {
    "Points": [
     {
      "co": {
       "X": 1,
       "Y": 0
      },
      "interpolation": 2
     }
    ]
   },
   "start": 0,
   "time": {
    "Points": [
     {
      "co": {
       "X": 1,
       "Y": 1
      },
      "interpolation": 2
     }
    ]
   },
   "volume": {
    "Points": [
     {
      "co": {
       "X": 1,
       "Y": 1
      },
      "interpolation": 2
     }
    ]
   },
   "wave_color": {
    "alpha": {
     "Points": [
      {
       "co": {
        "X": 1,
        "Y": 255
       },
       "handle_left": {
        "X": 0.5,
        "Y": 1
       },
       "handle_right": {
        "X": 0.5,
        "Y": 0
       },
       "handle_type": 0,
       "interpolation": 0
      }
     ]
    },
    "blue": {
     "Points": [
      {
       "co": {
        "X": 1,
        "Y": 255
       },
       "handle_left": {
        "X": 0.5,
        "Y": 1
       },
       "handle_right": {
        "X": 0.5,
        "Y": 0
       },
       "handle_type": 0,
       "interpolation": 0
      }
     ]
    },
    "green": {
     "Points": [
      {
       "co": {
        "X": 1,
        "Y": 123
       },
       "handle_left": {
        "X": 0.5,
        "Y": 1
       },
       "handle_right": {
        "X": 0.5,
        "Y": 0
       },
       "handle_type": 0,
       "interpolation": 0
      }
     ]
    },
    "red": {
     "Points": [
      {
       "co": {
        "X": 1,
        "Y": 0
       },
       "handle_left": {
        "X": 0.5,
        "Y": 1
       },
       "handle_right": {
        "X": 0.5,
        "Y": 0
       },
       "handle_type": 0,
       "interpolation": 0
      }
     ]
    }
   },
   "waveform": false,
   "file_id": "XGTGN70GJK",
   "title": "240 Alleluia Alleluia with Singers.mp3",
   "image": "@assets/thumbnail/XGTGN70GJK.png"
  },
  {
   "alpha": {
    "Points": [
     {
      "co": {
       "X": 1,
       "Y": 1
      },
      "interpolation": 2
     }
    ]
   },
   "anchor": 0,
   "channel_filter": {
    "Points": [
     {
      "co": {
       "X": 1,
       "Y": -1
      },
      "interpolation": 2
     }
    ]
   },
   "channel_mapping": {
    "Points": [
     {
      "co": {
       "X": 1,
       "Y": -1
      },
      "interpolation": 2
     }
    ]
   },
   "crop_height": {
    "Points": [
     {
      "co": {
       "X": 1,
       "Y": 1
      },
      "interpolation": 2
     }
    ]
   },
   "crop_width": {
    "Points": [
     {
      "co": {
       "X": 1,
       "Y": 1
      },
      "interpolation": 2
     }
    ]
   },
   "crop_x": {
    "Points": [
     {
      "co": {
       "X": 1,
       "Y": 0
      },
      "interpolation": 2
     }
    ]
   },
   "crop_y": {
    "Points": [
     {
      "co": {
       "X": 1,
       "Y": 0
      },
      "interpolation": 2
     }
    ]
   },
   "display": 0,
   "duration": 3600.0,
   "effects": [],
   "end": 28.916666666666668,
   "gravity": 4,
   "has_audio": {
    "Points": [
     {
      "co": {
       "X": 1,
       "Y": -1
      },
      "interpolation": 2
     }
    ]
   },
   "has_video": {
    "Points": [
     {
      "co": {
       "X": 1,
       "Y": -1
      },
      "interpolation": 2
     }
    ]
   },
   "id": "H10WKM1J0R",
   "layer": 6000000,
   "location_x": {
    "Points": [
     {
      "co": {
       "X": 1,
       "Y": 0
      },
      "interpolation": 2
     }
    ]
   },
   "location_y": {
    "Points": [
     {
      "co": {
       "X": 1,
       "Y": 0
      },
      "interpolation": 2
     }
    ]
   },
   "mixing": 0,
   "perspective_c1_x": {
    "Points": [
     {
      "co": {
       "X": 1,
       "Y": -1
      },
      "interpolation": 2
     }
    ]
   },
   "perspective_c1_y": {
    "Points": [
     {
      "co": {
       "X": 1,
       "Y": -1
      },
      "interpolation": 2
     }
    ]
   },
   "perspective_c2_x": {
    "Points": [
     {
      "co": {
       "X": 1,
       "Y": -1
      },
      "interpolation": 2
     }
    ]
   },
   "perspective_c2_y": {
    "Points": [
     {
      "co": {
       "X": 1,
       "Y": -1
      },
      "interpolation": 2
     }
    ]
   },
   "perspective_c3_x": {
    "Points": [
     {
      "co": {
       "X": 1,
       "Y": -1
      },
      "interpolation": 2
     }
    ]
   },
   "perspective_c3_y": {
    "Points": [
     {
      "co": {
       "X": 1,
       "Y": -1
      },
      "interpolation": 2
     }
    ]
   },
   "perspective_c4_x": {
    "Points": [
     {
      "co": {
       "X": 1,
       "Y": -1
      },
      "interpolation": 2
     }
    ]
   },
   "perspective_c4_y": {
    "Points": [
     {
      "co": {
       "X": 1,
       "Y": -1
      },
      "interpolation": 2
     }
    ]
   },
   "position": 0,
   "reader": {
    "acodec": "",
    "audio_bit_rate": 0,
    "audio_stream_index": -1,
    "audio_timebase": {
     "den": 1,
     "num": 1
    },
    "channel_layout": 4,
    "channels": 0,
    "display_ratio": {
     "den": 721,
     "num": 1280
    },
    "duration": 3600.0,
    "file_size": "3691520",
    "fps": {
     "den": 1,
     "num": 30
    },
    "has_audio": false,
    "has_single_image": true,
    "has_video": true,
    "height": 721,
    "interlaced_frame": false,
    "metadata": {},
    "path": "generated/240_allelulia_give_thanks-1.png",
    "pixel_format": -1,
    "pixel_ratio": {
     "den": 1,
     "num": 1
    },
    "sample_rate": 0,
    "top_field_first": true,
    "type": "QtImageReader",
    "vcodec": "",
    "video_bit_rate": 0,
    "video_length": "108000",
    "video_stream_index": -1,
    "video_timebase": {
     "den": 30,
     "num": 1
    },
    "width": 1280
   },
   "rotation": {
    "Points": [
     {
      "co": {
       "X": 1,
       "Y": 0
      },
      "interpolation": 2
     }
    ]
   },
   "scale": 1,
   "scale_x": {
    "Points": [
     {
      "co": {
       "X": 1,
       "Y": 1
      },
      "interpolation": 2
     }
    ]
   },
   "scale_y": {
    "Points": [
     {
      "co": {
       "X": 1,
       "Y": 1
      },
      "interpolation": 2
     }
    ]
   },
   "shear_x": {
    "Points": [
     {
      "co": {
       "X": 1,
       "Y": 0
      },
      "interpolation": 2
     }
    ]
   },
   "shear_y": {
    "Points": [
     {
      "co": {
       "X": 1,
       "Y": 0
      },
      "interpolation": 2
     }
    ]
   },
   "start": 0,
   "time": {
    "Points": [
     {
      "co": {
       "X": 1,
       "Y": 1
      },
      "interpolation": 2
     }
    ]
   },
   "volume": {
    "Points": [
     {
      "co": {
       "X": 1,
       "Y": 1
      },
      "interpolation": 2
     }
    ]
   },
   "wave_color": {
    "alpha": {
     "Points": [
      {
       "co": {
        "X": 1,
        "Y": 255
       },
       "handle_left": {
        "X": 0.5,
        "Y": 1
       },
       "handle_right": {
        "X": 0.5,
        "Y": 0
       },
       "handle_type": 0,
       "interpolation": 0
      }
     ]
    },
    "blue": {
     "Points": [
      {
       "co": {
        "X": 1,
        "Y": 255
       },
       "handle_left": {
        "X": 0.5,
        "Y": 1
       },
       "handle_right": {
        "X": 0.5,
        "Y": 0
       },
       "handle_type": 0,
       "interpolation": 0
      }
     ]
    },
    "green": {
     "Points": [
      {
       "co": {
        "X": 1,
        "Y": 123
       },
       "handle_left": {
        "X": 0.5,
        "Y": 1
       },
       "handle_right": {
        "X": 0.5,
        "Y": 0
       },
       "handle_type": 0,
       "interpolation": 0
      }
     ]
    },
    "red": {
     "Points": [
      {
       "co": {
        "X": 1,
        "Y": 0
       },
       "handle_left": {
        "X": 0.5,
        "Y": 1
       },
       "handle_right": {
        "X": 0.5,
        "Y": 0
       },
       "handle_type": 0,
       "interpolation": 0
      }
     ]
    }
   },
   "waveform": false,
   "file_id": "C1BCNGB69H",
   "title": "240_allelulia_give_thanks-1.png",
   "image": "@assets/thumbnail/C1BCNGB69H.png"
  },
  {
   "alpha": {
    "Points": [
     {
      "co": {
       "X": 1,
       "Y": 1
      },
      "interpolation": 2
     }
    ]
   },
   "anchor": 0,
   "channel_filter": {
    "Points": [
     {
      "co": {
       "X": 1,
       "Y": -1
      },
      "interpolation": 2
     }
    ]
   },
   "channel_mapping": {
    "Points": [
     {
      "co": {
       "X": 1,
       "Y": -1
      },
      "interpolation": 2
     }
    ]
   },
   "crop_height": {
    "Points": [
     {
      "co": {
       "X": 1,
       "Y": 1
      },
      "interpolation": 2
     }
    ]
   },
   "crop_width": {
    "Points": [
     {
      "co": {
       "X": 1,
       "Y": 1
      },
      "interpolation": 2
     }
    ]
   },
   "crop_x": {
    "Points": [
     {
      "co": {
       "X": 1,
       "Y": 0
      },
      "interpolation": 2
     }
    ]
   },
   "crop_y": {
    "Points": [
     {
      "co": {
       "X": 1,
       "Y": 0
      },
      "interpolation": 2
     }
    ]
   },
   "display": 0,
   "duration": 3600.0,
   "effects": [],
   "end": 27.25,
   "gravity": 4,
   "has_audio": {
    "Points": [
     {
      "co": {
       "X": 1,
       "Y": -1
      },
      "interpolation": 2
     }
    ]
   },
   "has_video": {
    "Points": [
     {
      "co": {
       "X": 1,
       "Y": -1
      },
      "interpolation": 2
     }
    ]
   },
   "id": "ZARBOHDFSQ",
   "layer": 6000000,
   "location_x": {
    "Points": [
     {
      "co": {
       "X": 1,
       "Y": 0
      },
      "interpolation": 2
     }
    ]
   },
   "location_y": {
    "Points": [
     {
      "co": {
       "X": 1,
       "Y": 0
      },
      "interpolation": 2
     }
    ]
   },
   "mixing": 0,
   "perspective_c1_x": {
    "Points": [
     {
      "co": {
       "X": 1,
       "Y": -1
      },
      "interpolation": 2
     }
    ]
   },
   "perspective_c1_y": {
    "Points": [
     {
      "co": {
       "X": 1,
       "Y": -1
      },
      "interpolation": 2
     }
    ]
   },
   "perspective_c2_x": {
    "Points": [
     {
      "co": {
       "X": 1,
       "Y": -1
      },
      "interpolation": 2
     }
    ]
   },
   "perspective_c2_y": {
    "Points": [
     {
      "co": {
       "X": 1,
       "Y": -1
      },
      "interpolation": 2
     }
    ]
   },
   "perspective_c3_x": {
    "Points": [
     {
      "co": {
       "X": 1,
       "Y": -1
      },
      "interpolation": 2
     }
    ]
   },
   "perspective_c3_y": {
    "Points": [
     {
      "co": {
       "X": 1,
       "Y": -1
      },
      "interpolation": 2
     }
    ]
   },
   "perspective_c4_x": {
    "Points": [
     {
      "co": {
       "X": 1,
       "Y": -1
      },
      "interpolation": 2
     }
    ]
   },
   "perspective_c4_y": {
    "Points": [
     {
      "co": {
       "X": 1,
       "Y": -1
      },
      "interpolation": 2
     }
    ]
   },
   "position": 26.33333333333333,
   "reader": {
    "acodec": "",
    "audio_bit_rate": 0,
    "audio_stream_index": -1,
    "audio_timebase": {
     "den": 1,
     "num": 1
    },
    "channel_layout": 4,
    "channels": 0,
    "display_ratio": {
     "den": 721,
     "num": 1280
    },
    "duration": 3600.0,
    "file_size": "3691520",
    "fps": {
     "den": 1,
     "num": 30
    },
    "has_audio": false,
    "has_single_image": true,
    "has_video": true,
    "height": 721,
    "interlaced_frame": false,
    "metadata": {},
    "path": "generated/240_allelulia_give_thanks-2.png",
    "pixel_format": -1,
    "pixel_ratio": {
     "den": 1,
     "num": 1
    },
    "sample_rate": 0,
    "top_field_first": true,
    "type": "QtImageReader",
    "vcodec": "",
    "video_bit_rate": 0,
    "video_length": "108000",
    "video_stream_index": -1,
    "video_timebase": {
     "den": 30,
     "num": 1
    },
    "width": 1280
   },
   "rotation": {
    "Points": [
     {
      "co": {
       "X": 1,
       "Y": 0
      },
      "interpolation": 2
     }
    ]
   },
   "scale": 1,
   "scale_x": {
    "Points": [
     {
      "co": {
       "X": 1,
       "Y": 1
      },
      "interpolation": 2
     }
    ]
   },
   "scale_y": {
    "Points": [
     {
      "co": {
       "X": 1,
       "Y": 1
      },
      "interpolation": 2
     }
    ]
   },
   "shear_x": {
    "Points": [
     {
      "co": {
       "X": 1,
       "Y": 0
      },
      "interpolation": 2
     }
    ]
   },
   "shear_y": {
    "Points": [
     {
      "co": {
       "X": 1,
       "Y": 0
      },
      "interpolation": 2
     }
    ]
   },
   "start": 0,
   "time": {
    "Points": [
     {
      "co": {
       "X": 1,
       "Y": 1
      },
      "interpolation": 2
     }
    ]
   },
   "volume": {
    "Points": [
     {
      "co": {
       "X": 1,
       "Y": 1
      },
      "interpolation": 2
     }
    ]
   },
   "wave_color": {
    "alpha": {
     "Points": [
      {
       "co": {
        "X": 1,
        "Y": 255
       },
       "handle_left": {
        "X": 0.5,
        "Y": 1
       },
       "handle_right": {
        "X": 0.5,
        "Y": 0
       },
       "handle_type": 0,
       "interpolation": 0
      }
     ]
    },
    "blue": {
     "Points": [
      {
       "co": {
        "X": 1,
        "Y": 255
       },
       "handle_left": {
        "X": 0.5,
        "Y": 1
       },
       "handle_right": {
        "X": 0.5,
        "Y": 0
       },
       "handle_type": 0,
       "interpolation": 0
      }
     ]
    },
    "green": {
     "Points": [
      {
       "co": {
        "X": 1,
        "Y": 123
       },
       "handle_left": {
        "X": 0.5,
        "Y": 1
       },
       "handle_right": {
        "X": 0.5,
        "Y": 0
       },
       "handle_type": 0,
       "interpolation": 0
      }
     ]
    },
    "red": {
     "Points": [
      {
       "co": {
        "X": 1,
        "Y": 0
       },
       "handle_left": {
        "X": 0.5,
        "Y": 1
       },
       "handle_right": {
        "X": 0.5,
        "Y": 0
       },
       "handle_type": 0,
       "interpolation": 0
      }
     ]
    }
   },
   "waveform": false,
   "file_id": "03J93H2INZ",
   "title": "240_allelulia_give_thanks-2.png",
   "image": "@assets/thumbnail/03J93H2INZ.png"
  },
  {
   "alpha": {
    "Points": [
     {
      "co": {
       "X": 1,
       "Y": 1
      },
      "interpolation": 2
     }
    ]
   },
   "anchor": 0,
   "channel_filter": {
    "Points": [
     {
      "co": {
       "X": 1,
       "Y": -1
      },
      "interpolation": 2
     }
    ]
   },
   "channel_mapping": {
    "Points": [
     {
      "co": {
       "X": 1,
       "Y": -1
      },
      "interpolation": 2
     }
    ]
   },
   "crop_height": {
    "Points": [
     {
      "co": {
       "X": 1,
       "Y": 1
      },
      "interpolation": 2
     }
    ]
   },
   "crop_width": {
    "Points": [
     {
      "co": {
       "X": 1,
       "Y": 1
      },
      "interpolation": 2
     }
    ]
   },
   "crop_x": {
    "Points": [
     {
      "co": {
       "X": 1,
       "Y": 0
      },
      "interpolation": 2
     }
    ]
   },
   "crop_y": {
    "Points": [
     {
      "co": {
       "X": 1,
       "Y": 0
      },
      "interpolation": 2
     }
    ]
   },
   "display": 0,
   "duration": 3600.0,
   "effects": [],
   "end": 29.5,
   "gravity": 4,
   "has_audio": {
    "Points": [
     {
      "co": {
       "X": 1,
       "Y": -1
      },
      "interpolation": 2
     }
    ]
   },
   "has_video": {
    "Points": [
     {
      "co": {
       "X": 1,
       "Y": -1
      },
      "interpolation": 2
     }
    ]
   },
   "id": "ZHZA9ZA36U",
   "layer": 6000000,
   "location_x": {
    "Points": [
     {
      "co": {
       "X": 1,
       "Y": 0
      },
      "interpolation": 2
     }
    ]
   },
   "location_y": {
    "Points": [
     {
      "co": {
       "X": 1,
       "Y": 0
      },
      "interpolation": 2
     }
    ]
   },
   "mixing": 0,
   "perspective_c1_x": {
    "Points": [
     {
      "co": {
       "X": 1,
       "Y": -1
      },
      "interpolation": 2
     }
    ]
   },
   "perspective_c1_y": {
    "Points": [
     {
      "co": {
       "X": 1,
       "Y": -1
      },
      "interpolation": 2
     }
    ]
   },
   "perspective_c2_x": {
    "Points": [
     {
      "co": {
       "X": 1,
       "Y": -1
      },
      "interpolation": 2
     }
    ]
   },
   "perspective_c2_y": {
    "Points": [
     {
      "co": {
       "X": 1,
       "Y": -1
      },
      "interpolation": 2
     }
    ]
   },
   "perspective_c3_x": {
    "Points": [
     {
      "co": {
       "X": 1,
       "Y": -1
      },
      "interpolation": 2
     }
    ]
   },
   "perspective_c3_y": {
    "Points": [
     {
      "co": {
       "X": 1,
       "Y": -1
      },
      "interpolation": 2
     }
    ]
   },
   "perspective_c4_x": {
    "Points": [
     {
      "co": {
       "X": 1,
       "Y": -1
      },
      "interpolation": 2
     }
    ]
   },
   "perspective_c4_y": {
    "Points": [
     {
      "co": {
       "X": 1,
       "Y": -1
      },
      "interpolation": 2
     }
    ]
   },
   "position": 50.849999999999994,
   "reader": {
    "acodec": "",
    "audio_bit_rate": 0,
    "audio_stream_index": -1,
    "audio_timebase": {
     "den": 1,
     "num": 1
    },
    "channel_layout": 4,
    "channels": 0,
    "display_ratio": {
     "den": 721,
     "num": 1280
    },
    "duration": 3600.0,
    "file_size": "3691520",
    "fps": {
     "den": 1,
     "num": 30
    },
    "has_audio": false,
    "has_single_image": true,
    "has_video": true,
    "height": 721,
    "interlaced_frame": false,
    "metadata": {},
    "path": "generated/240_allelulia_give_thanks-3.png",
    "pixel_format": -1,
    "pixel_ratio": {
     "den": 1,
     "num": 1
    },
    "sample_rate": 0,
    "top_field_first": true,
    "type": "QtImageReader",
    "vcodec": "",
    "video_bit_rate": 0,
    "video_length": "108000",
    "video_stream_index": -1,
    "video_timebase": {
     "den": 30,
     "num": 1
    },
    "width": 1280
   },
   "rotation": {
    "Points": [
     {
      "co": {
       "X": 1,
       "Y": 0
      },
      "interpolation": 2
     }
    ]
   },
   "scale": 1,
   "scale_x": {
    "Points": [
     {
      "co": {
       "X": 1,
       "Y": 1
      },
      "interpolation": 2
     }
    ]
   },
   "scale_y": {
    "Points": [
     {
      "co": {
       "X": 1,
       "Y": 1
      },
      "interpolation": 2
     }
    ]
   },
   "shear_x": {
    "Points": [
     {
      "co": {
       "X": 1,
       "Y": 0
      },
      "interpolation": 2
     }
    ]
   },
   "shear_y": {
    "Points": [
     {
      "co": {
       "X": 1,
       "Y": 0
      },
      "interpolation": 2
     }
    ]
   },
   "start": 0,
   "time": {
    "Points": [
     {
      "co": {
       "X": 1,
       "Y": 1
      },
      "interpolation": 2
     }
    ]
   },
   "volume": {
    "Points": [
     {
      "co": {
       "X": 1,
       "Y": 1
      },
      "interpolation": 2
     }
    ]
   },
   "wave_color": {
    "alpha": {
     "Points": [
      {
       "co": {
        "X": 1,
        "Y": 255
       },
       "handle_left": {
        "X": 0.5,
        "Y": 1
       },
       "handle_right": {
        "X": 0.5,
        "Y": 0
       },
       "handle_type": 0,
       "interpolation": 0
      }
     ]
    },
    "blue": {
     "Points": [
      {
       "co": {
        "X": 1,
        "Y": 255
       },
       "handle_left": {
        "X": 0.5,
        "Y": 1
       },
       "handle_right": {
        "X": 0.5,
        "Y": 0
       },
       "handle_type": 0,
       "interpolation": 0
      }
     ]
    },
    "green": {
     "Points": [
      {
       "co": {
        "X": 1,
        "Y": 123
       },
       "handle_left": {
        "X": 0.5,
        "Y": 1
       },
       "handle_right": {
        "X": 0.5,
        "Y": 0
       },
       "handle_type": 0,
       "interpolation": 0
      }
     ]
    },
    "red": {
     "Points": [
      {
       "co": {
        "X": 1,
        "Y": 0
       },
       "handle_left": {
        "X": 0.5,
        "Y": 1
       },
       "handle_right": {
        "X": 0.5,
        "Y": 0
       },
       "handle_type": 0,
       "interpolation": 0
      }
     ]
    }
   },
   "waveform": false,
   "file_id": "5VAPZ0XAUP",
   "title": "240_allelulia_give_thanks-3.png",
   "image": "@assets/thumbnail/5VAPZ0XAUP.png"
  },
  {
   "alpha": {
    "Points": [
     {
      "co": {
       "X": 1,
       "Y": 1
      },
      "interpolation": 2
     }
    ]
   },
   "anchor": 0,
   "channel_filter": {
    "Points": [
     {
      "co": {
       "X": 1,
       "Y": -1
      },
      "interpolation": 2
     }
    ]
   },
   "channel_mapping": {
    "Points": [
     {
      "co": {
       "X": 1,
       "Y": -1
      },
      "interpolation": 2
     }
    ]
   },
   "crop_height": {
    "Points": [
     {
      "co": {
       "X": 1,
       "Y": 1
      },
      "interpolation": 2
     }
    ]
   },
   "crop_width": {
    "Points": [
     {
      "co": {
       "X": 1,
       "Y": 1
      },
      "interpolation": 2
     }
    ]
   },
   "crop_x": {
    "Points": [
     {
      "co": {
       "X": 1,
       "Y": 0
      },
      "interpolation": 2
     }
    ]
   },
   "crop_y": {
    "Points": [
     {
      "co": {
       "X": 1,
       "Y": 0
      },
      "interpolation": 2
     }
    ]
   },
   "display": 0,
   "duration": 3600.0,
   "effects": [],
   "end": 29.791666666666668,
   "gravity": 4,
   "has_audio": {
    "Points": [
     {
      "co": {
       "X": 1,
       "Y": -1
      },
      "interpolation": 2
     }
    ]
   },
   "has_video": {
    "Points": [
     {
      "co": {
       "X": 1,
       "Y": -1
      },
      "interpolation": 2
     }
    ]
   },
   "id": "C5G969ZVWP",
   "layer": 6000000,
   "location_x": {
    "Points": [
     {
      "co": {
       "X": 1,
       "Y": 0
      },
      "interpolation": 2
     }
    ]
   },
   "location_y": {
    "Points": [
     {
      "co": {
       "X": 1,
       "Y": 0
      },
      "interpolation": 2
     }
    ]
   },
   "mixing": 0,
   "perspective_c1_x": {
    "Points": [
     {
      "co": {
       "X": 1,
       "Y": -1
      },
      "interpolation": 2
     }
    ]
   },
   "perspective_c1_y": {
    "Points": [
     {
      "co": {
       "X": 1,
       "Y": -1
      },
      "interpolation": 2
     }
    ]
   },
   "perspective_c2_x": {
    "Points": [
     {
      "co": {
       "X": 1,
       "Y": -1
      },
      "interpolation": 2
     }
    ]
   },
   "perspective_c2_y": {
    "Points": [
     {
      "co": {
       "X": 1,
       "Y": -1
      },
      "interpolation": 2
     }
    ]
   },
   "perspective_c3_x": {
    "Points": [
     {
      "co": {
       "X": 1,
       "Y": -1
      },
      "interpolation": 2
     }
    ]
   },
   "perspective_c3_y": {
    "Points": [
     {
      "co": {
       "X": 1,
       "Y": -1
      },
      "interpolation": 2
     }
    ]
   },
   "perspective_c4_x": {
    "Points": [
     {
      "co": {
       "X": 1,
       "Y": -1
      },
      "interpolation": 2
     }
    ]
   },
   "perspective_c4_y": {
    "Points": [
     {
      "co": {
       "X": 1,
       "Y": -1
      },
      "interpolation": 2
     }
    ]
   },
   "position": 77.7,
   "reader": {
    "acodec": "",
    "audio_bit_rate": 0,
    "audio_stream_index": -1,
    "audio_timebase": {
     "den": 1,
     "num": 1
    },
    "channel_layout": 4,
    "channels": 0,
    "display_ratio": {
     "den": 721,
     "num": 1280
    },
    "duration": 3600.0,
    "file_size": "3691520",
    "fps": {
     "den": 1,
     "num": 30
    },
    "has_audio": false,
    "has_single_image": true,
    "has_video": true,
    "height": 721,
    "interlaced_frame": false,
    "metadata": {},
    "path": "generated/240_allelulia_give_thanks-4.png",
    "pixel_format": -1,
    "pixel_ratio": {
     "den": 1,
     "num": 1
    },
    "sample_rate": 0,
    "top_field_first": true,
    "type": "QtImageReader",
    "vcodec": "",
    "video_bit_rate": 0,
    "video_length": "108000",
    "video_stream_index": -1,
    "video_timebase": {
     "den": 30,
     "num": 1
    },
    "width": 1280
   },
   "rotation": {
    "Points": [
     {
      "co": {
       "X": 1,
       "Y": 0
      },
      "interpolation": 2
     }
    ]
   },
   "scale": 1,
   "scale_x": {
    "Points": [
     {
      "co": {
       "X": 1,
       "Y": 1
      },
      "interpolation": 2
     }
    ]
   },
   "scale_y": {
    "Points": [
     {
      "co": {
       "X": 1,
       "Y": 1
      },
      "interpolation": 2
     }
    ]
   },
   "shear_x": {
    "Points": [
     {
      "co": {
       "X": 1,
       "Y": 0
      },
      "interpolation": 2
     }
    ]
   },
   "shear_y": {
    "Points": [
     {
      "co": {
       "X": 1,
       "Y": 0
      },
      "interpolation": 2
     }
    ]
   },
   "start": 0,
   "time": {
    "Points": [
     {
      "co": {
       "X": 1,
       "Y": 1
      },
      "interpolation": 2
     }
    ]
   },
   "volume": {
    "Points": [
     {
      "co": {
       "X": 1,
       "Y": 1
      },
      "interpolation": 2
     }
    ]
   },
   "wave_color": {
    "alpha": {
     "Points": [
      {
       "co": {
        "X": 1,
        "Y": 255
       },
       "handle_left": {
        "X": 0.5,
        "Y": 1
       },
       "handle_right": {
        "X": 0.5,
        "Y": 0
       },
       "handle_type": 0,
       "interpolation": 0
      }
     ]
    },
    "blue": {
     "Points": [
      {
       "co": {
        "X": 1,
        "Y": 255
       },
       "handle_left": {
        "X": 0.5,
        "Y": 1
       },
       "handle_right": {
        "X": 0.5,
        "Y": 0
       },
       "handle_type": 0,
       "interpolation": 0
      }
     ]
    },
    "green": {
     "Points": [
      {
       "co": {
        "X": 1,
        "Y": 123
       },
       "handle_left": {
        "X": 0.5,
        "Y": 1
       },
       "handle_right": {
        "X": 0.5,
        "Y": 0
       },
       "handle_type": 0,
       "interpolation": 0
      }
     ]
    },
    "red": {
     "Points": [
      {
       "co": {
        "X": 1,
        "Y": 0
       },
       "handle_left": {
        "X": 0.5,
        "Y": 1
       },
       "handle_right": {
        "X": 0.5,
        "Y": 0
       },
       "handle_type": 0,
       "interpolation": 0
      }
     ]
    }
   },
   "waveform": false,
   "file_id": "R0PJFNQQE1",
   "title": "240_allelulia_give_thanks-4.png",
   "image": "@assets/thumbnail/R0PJFNQQE1.png"
  },
  {
   "alpha": {
    "Points": [
     {
      "co": {
       "X": 1,
       "Y": 1
      },
      "interpolation": 2
     }
    ]
   },
   "anchor": 0,
   "channel_filter": {
    "Points": [
     {
      "co": {
       "X": 1,
       "Y": -1
      },
      "interpolation": 2
     }
    ]
   },
   "channel_mapping": {
    "Points": [
     {
      "co": {
       "X": 1,
       "Y": -1
      },
      "interpolation": 2
     }
    ]
   },
   "crop_height": {
    "Points": [
     {
      "co": {
       "X": 1,
       "Y": 1
      },
      "interpolation": 2
     }
    ]
   },
   "crop_width": {
    "Points": [
     {
      "co": {
       "X": 1,
       "Y": 1
      },
      "interpolation": 2
     }
    ]
   },
   "crop_x": {
    "Points": [
     {
      "co": {
       "X": 1,
       "Y": 0
      },
      "interpolation": 2
     }
    ]
   },
   "crop_y": {
    "Points": [
     {
      "co": {
       "X": 1,
       "Y": 0
      },
      "interpolation": 2
     }
    ]
   },
   "display": 0,
   "duration": 3600.0,
   "effects": [],
   "end": 35.208333333333336,
   "gravity": 4,
   "has_audio": {
    "Points": [
     {
      "co": {
       "X": 1,
       "Y": -1
      },
      "interpolation": 2
     }
    ]
   },
   "has_video": {
    "Points": [
     {
      "co": {
       "X": 1,
       "Y": -1
      },
      "interpolation": 2
     }
    ]
   },
   "id": "DE994N4JS4",
   "layer": 6000000,
   "location_x": {
    "Points": [
     {
      "co": {
       "X": 1,
       "Y": 0
      },
      "interpolation": 2
     }
    ]
   },
   "location_y": {
    "Points": [
     {
      "co": {
       "X": 1,
       "Y": 0
      },
      "interpolation": 2
     }
    ]
   },
   "mixing": 0,
   "perspective_c1_x": {
    "Points": [
     {
      "co": {
       "X": 1,
       "Y": -1
      },
      "interpolation": 2
     }
    ]
   },
   "perspective_c1_y": {
    "Points": [
     {
      "co": {
       "X": 1,
       "Y": -1
      },
      "interpolation": 2
     }
    ]
   },
   "perspective_c2_x": {
    "Points": [
     {
      "co": {
       "X": 1,
       "Y": -1
      },
      "interpolation": 2
     }
    ]
   },
   "perspective_c2_y": {
    "Points": [
     {
      "co": {
       "X": 1,
       "Y": -1
      },
      "interpolation": 2
     }
    ]
   },
   "perspective_c3_x": {
    "Points": [
     {
      "co": {
       "X": 1,
       "Y": -1
      },
      "interpolation": 2
     }
    ]
   },
   "perspective_c3_y": {
    "Points": [
     {
      "co": {
       "X": 1,
       "Y": -1
      },
      "interpolation": 2
     }
    ]
   },
   "perspective_c4_x": {
    "Points": [
     {
      "co": {
       "X": 1,
       "Y": -1
      },
      "interpolation": 2
     }
    ]
   },
   "perspective_c4_y": {
    "Points": [
     {
      "co": {
       "X": 1,
       "Y": -1
      },
      "interpolation": 2
     }
    ]
   },
   "position": 103.94999999999999,
   "reader": {
    "acodec": "",
    "audio_bit_rate": 0,
    "audio_stream_index": -1,
    "audio_timebase": {
     "den": 1,
     "num": 1
    },
    "channel_layout": 4,
    "channels": 0,
    "display_ratio": {
     "den": 721,
     "num": 1280
    },
    "duration": 3600.0,
    "file_size": "3691520",
    "fps": {
     "den": 1,
     "num": 30
    },
    "has_audio": false,
    "has_single_image": true,
    "has_video": true,
    "height": 721,
    "interlaced_frame": false,
    "metadata": {},
    "path": "generated/240_allelulia_give_thanks-5.png",
    "pixel_format": -1,
    "pixel_ratio": {
     "den": 1,
     "num": 1
    },
    "sample_rate": 0,
    "top_field_first": true,
    "type": "QtImageReader",
    "vcodec": "",
    "video_bit_rate": 0,
    "video_length": "108000",
    "video_stream_index": -1,
    "video_timebase": {
     "den": 30,
     "num": 1
    },
    "width": 1280
   },
   "rotation": {
    "Points": [
     {
      "co": {
       "X": 1,
       "Y": 0
      },
      "interpolation": 2
     }
    ]
   },
   "scale": 1,
   "scale_x": {
    "Points": [
     {
      "co": {
       "X": 1,
       "Y": 1
      },
      "interpolation": 2
     }
    ]
   },
   "scale_y": {
    "Points": [
     {
      "co": {
       "X": 1,
       "Y": 1
      },
      "interpolation": 2
     }
    ]
   },
   "shear_x": {
    "Points": [
     {
      "co": {
       "X": 1,
       "Y": 0
      },
      "interpolation": 2
     }
    ]
   },
   "shear_y": {
    "Points": [
     {
      "co": {
       "X": 1,
       "Y": 0
      },
      "interpolation": 2
     }
    ]
   },
   "start": 0,
   "time": {
    "Points": [
     {
      "co": {
       "X": 1,
       "Y": 1
      },
      "interpolation": 2
     }
    ]
   },
   "volume": {
    "Points": [
     {
      "co": {
       "X": 1,
       "Y": 1
      },
      "interpolation": 2
     }
    ]
   },
   "wave_color": {
    "alpha": {
     "Points": [
      {
       "co": {
        "X": 1,
        "Y": 255
       },
       "handle_left": {
        "X": 0.5,
        "Y": 1
       },
       "handle_right": {
        "X": 0.5,
        "Y": 0
       },
       "handle_type": 0,
       "interpolation": 0
      }
     ]
    },
    "blue": {
     "Points": [
      {
       "co": {
        "X": 1,
        "Y": 255
       },
       "handle_left": {
        "X": 0.5,
        "Y": 1
       },
       "handle_right": {
        "X": 0.5,
        "Y": 0
       },
       "handle_type": 0,
       "interpolation": 0
      }
     ]
    },
    "green": {
     "Points": [
      {
       "co": {
        "X": 1,
        "Y": 123
       },
       "handle_left": {
        "X": 0.5,
        "Y": 1
       },
       "handle_right": {
        "X": 0.5,
        "Y": 0
       },
       "handle_type": 0,
       "interpolation": 0
      }
     ]
    },
    "red": {
     "Points": [
      {
       "co": {
        "X": 1,
        "Y": 0
       },
       "handle_left": {
        "X": 0.5,
        "Y": 1
       },
       "handle_right": {
        "X": 0.5,
        "Y": 0
       },
       "handle_type": 0,
       "interpolation": 0
      }
     ]
    }
   },
   "waveform": false,
   "file_id": "HDUSPFUYCT",
   "title": "240_allelulia_give_thanks-5.png",
   "image": "@assets/thumbnail/HDUSPFUYCT.png"
  }
 ],
 "effects": [
  {
   "id": "KRJQ2LSCZM",
   "layer": 6000000,
   "title": "Transition",
   "type": "Mask",
   "position": 26.33333333333333,
   "start": 0,
   "end": 2.5833333333333393,
   "brightness": {
    "Points": [
     {
      "co": {
       "X": 1,
       "Y": 1
      },
      "handle_left": {
       "X": 0.5,
       "Y": 1
      },
      "handle_right": {
       "X": 0.5,
       "Y": 0
      },
      "handle_type": 0,
      "interpolation": 0
     },
     {
      "co": {
       "X": 63,
       "Y": -1
      },
      "handle_left": {
       "X": 0.5,
       "Y": 1
      },
      "handle_right": {
       "X": 0.5,
       "Y": 0
      },
      "handle_type": 0,
      "interpolation": 0
     }
    ]
   },
   "contrast": {
    "Points": [
     {
      "co": {
       "X": 1,
       "Y": 3
      },
      "interpolation": 2
     }
    ]
   },
   "reader": {
    "acodec": "",
    "audio_bit_rate": 0,
    "audio_stream_index": -1,
    "audio_timebase": {
     "den": 1,
     "num": 1
    },
    "channel_layout": 4,
    "channels": 0,
    "display_ratio": {
     "den": 4,
     "num": 5
    },
    "duration": 3600,
    "file_size": "1658880",
    "fps": {
     "den": 1,
     "num": 30
    },
    "has_audio": false,
    "has_single_image": true,
    "has_video": true,
    "height": 576,
    "interlaced_frame": false,
    "metadata": {},
    "path": "@transitions/common/fade.svg",
    "pixel_format": -1,
    "pixel_ratio": {
     "den": 1,
     "num": 1
    },
    "sample_rate": 0,
    "top_field_first": true,
    "type": "QtImageReader",
    "vcodec": "",
    "video_bit_rate": 0,
    "video_length": "108000",
    "video_stream_index": -1,
    "video_timebase": {
     "den": 30,
     "num": 1
    },
    "width": 720
   },
   "replace_image": false
  },
  {
   "id": "MR1C9GH5EV",
   "layer": 6000000,
   "title": "Transition",
   "type": "Mask",
   "position": 50.849999999999994,
   "start": 0,
   "end": 2.7333333333333343,
   "brightness": {
    "Points": [
     {
      "co": {
       "X": 1,
       "Y": 1
      },
      "handle_left": {
       "X": 0.5,
       "Y": 1
      },
      "handle_right": {
       "X": 0.5,
       "Y": 0
      },
      "handle_type": 0,
      "interpolation": 0
     },
     {
      "co": {
       "X": 67,
       "Y": -1
      },
      "handle_left": {
       "X": 0.5,
       "Y": 1
      },
      "handle_right": {
       "X": 0.5,
       "Y": 0
      },
      "handle_type": 0,
      "interpolation": 0
     }
    ]
   },
   "contrast": {
    "Points": [
     {
      "co": {
       "X": 1,
       "Y": 3
      },
      "interpolation": 2
     }
    ]
   },
   "reader": {
    "acodec": "",
    "audio_bit_rate": 0,
    "audio_stream_index": -1,
    "audio_timebase": {
     "den": 1,
     "num": 1
    },
    "channel_layout": 4,
    "channels": 0,
    "display_ratio": {
     "den": 4,
     "num": 5
    },
    "duration": 3600,
    "file_size": "1658880",
    "fps": {
     "den": 1,
     "num": 30
    },
    "has_audio": false,
    "has_single_image": true,
    "has_video": true,
    "height": 576,
    "interlaced_frame": false,
    "metadata": {},
    "path": "@transitions/common/fade.svg",
    "pixel_format": -1,
    "pixel_ratio": {
     "den": 1,
     "num": 1
    },
    "sample_rate": 0,
    "top_field_first": true,
    "type": "QtImageReader",
    "vcodec": "",
    "video_bit_rate": 0,
    "video_length": "108000",
    "video_stream_index": -1,
    "video_timebase": {
     "den": 30,
     "num": 1
    },
    "width": 720
   },
   "replace_image": false
  },
  {
   "id": "ZV0DDOKUKR",
   "layer": 6000000,
   "title": "Transition",
   "type": "Mask",
   "position": 77.7,
   "start": 0,
   "end": 2.6499999999999915,
   "brightness": {
    "Points": [
     {
      "co": {
       "X": 1,
       "Y": 1
      },
      "handle_left": {
       "X": 0.5,
       "Y": 1
      },
      "handle_right": {
       "X": 0.5,
       "Y": 0
      },
      "handle_type": 0,
      "interpolation": 0
     },
     {
      "co": {
       "X": 65,
       "Y": -1
      },
      "handle_left": {
       "X": 0.5,
       "Y": 1
      },
      "handle_right": {
       "X": 0.5,
       "Y": 0
      },
      "handle_type": 0,
      "interpolation": 0
     }
    ]
   },
   "contrast": {
    "Points": [
     {
      "co": {
       "X": 1,
       "Y": 3
      },
      "interpolation": 2
     }
    ]
   },
   "reader": {
    "acodec": "",
    "audio_bit_rate": 0,
    "audio_stream_index": -1,
    "audio_timebase": {
     "den": 1,
     "num": 1
    },
    "channel_layout": 4,
    "channels": 0,
    "display_ratio": {
     "den": 4,
     "num": 5
    },
    "duration": 3600,
    "file_size": "1658880",
    "fps": {
     "den": 1,
     "num": 30
    },
    "has_audio": false,
    "has_single_image": true,
    "has_video": true,
    "height": 576,
    "interlaced_frame": false,
    "metadata": {},
    "path": "@transitions/common/fade.svg",
    "pixel_format": -1,
    "pixel_ratio": {
     "den": 1,
     "num": 1
    },
    "sample_rate": 0,
    "top_field_first": true,
    "type": "QtImageReader",
    "vcodec": "",
    "video_bit_rate": 0,
    "video_length": "108000",
    "video_stream_index": -1,
    "video_timebase": {
     "den": 30,
     "num": 1
    },
    "width": 720
   },
   "replace_image": false
  },
  {
   "id": "X2285JJPFE",
   "layer": 6000000,
   "title": "Transition",
   "type": "Mask",
   "position": 103.94999999999999,
   "start": 0,
   "end": 3.5416666666666856,
   "brightness": {
    "Points": [
     {
      "co": {
       "X": 1,
       "Y": 1
      },
      "handle_left": {
       "X": 0.5,
       "Y": 1
      },
      "handle_right": {
       "X": 0.5,
       "Y": 0
      },
      "handle_type": 0,
      "interpolation": 0
     },
     {
      "co": {
       "X": 86,
       "Y": -1
      },
      "handle_left": {
       "X": 0.5,
       "Y": 1
      },
      "handle_right": {
       "X": 0.5,
       "Y": 0
      },
      "handle_type": 0,
      "interpolation": 0
     }
    ]
   },
   "contrast": {
    "Points": [
     {
      "co": {
       "X": 1,
       "Y": 3
      },
      "interpolation": 2
     }
    ]
   },
   "reader": {
    "acodec": "",
    "audio_bit_rate": 0,
    "audio_stream_index": -1,
    "audio_timebase": {
     "den": 1,
     "num": 1
    },
    "channel_layout": 4,
    "channels": 0,
    "display_ratio": {
     "den": 4,
     "num": 5
    },
    "duration": 3600,
    "file_size": "1658880",
    "fps": {
     "den": 1,
     "num": 30
    },
    "has_audio": false,
    "has_single_image": true,
    "has_video": true,
    "height": 576,
    "interlaced_frame": false,
    "metadata": {},
    "path": "@transitions/common/fade.svg",
    "pixel_format": -1,
    "pixel_ratio": {
     "den": 1,
     "num": 1
    },
    "sample_rate": 0,
    "top_field_first": true,
    "type": "QtImageReader",
    "vcodec": "",
    "video_bit_rate": 0,
    "video_length": "108000",
    "video_stream_index": -1,
    "video_timebase": {
     "den": 30,
     "num": 1
    },
    "width": 720
   },
   "replace_image": false
  }
 ],
 "export_path": "",
 "import_path": "/home/mdgeorge/hymns/extra/240_allelulia_give_thanks/generated",
 "files": [
  {
   "acodec": "mp3float",
   "audio_bit_rate": 179292,
   "audio_stream_index": 0,
   "audio_timebase": {
    "den": 14112000,
    "num": 1
   },
   "channel_layout": 3,
   "channels": 2,
   "display_ratio": {
    "den": 1,
    "num": 1
   },
   "duration": 138.710205078125,
   "file_size": "3108707",
   "fps": {
    "den": 1,
    "num": 24
   },
   "has_audio": true,
   "has_single_image": false,
   "has_video": false,
   "height": 480,
   "interlaced_frame": false,
   "metadata": {
    "encoder": "LAME3.100"
   },
   "path": "./240 Alleluia Alleluia with Singers.mp3",
   "pixel_format": -1,
   "pixel_ratio": {
    "den": 1,
    "num": 1
   },
   "sample_rate": 44100,
   "top_field_first": true,
   "type": "FFmpegReader",
   "vcodec": "",
   "video_bit_rate": 0,
   "video_length": "3329",
   "video_stream_index": -1,
   "video_timebase": {
    "den": 24,
    "num": 1
   },
   "width": 720,
   "media_type": "audio",
   "id": "XGTGN70GJK",
   "image": "@assets/thumbnail/XGTGN70GJK.png"
  },
  {
   "acodec": "",
   "audio_bit_rate": 0,
   "audio_stream_index": -1,
   "audio_timebase": {
    "den": 1,
    "num": 1
   },
   "channel_layout": 4,
   "channels": 0,
   "display_ratio": {
    "den": 721,
    "num": 1280
   },
   "duration": 3600,
   "file_size": "3691520",
   "fps": {
    "den": 1,
    "num": 30
   },
   "has_audio": false,
   "has_single_image": true,
   "has_video": true,
   "height": 721,
   "interlaced_frame": false,
   "metadata": {},
   "path": "generated/240_allelulia_give_thanks-1.png",
   "pixel_format": -1,
   "pixel_ratio": {
    "den": 1,
    "num": 1
   },
   "sample_rate": 0,
   "top_field_first": true,
   "type": "QtImageReader",
   "vcodec": "",
   "video_bit_rate": 0,
   "video_length": "108000",
   "video_stream_index": -1,
   "video_timebase": {
    "den": 30,
    "num": 1
   },
   "width": 1280,
   "media_type": "image",
   "id": "C1BCNGB69H",
   "image": "@assets/thumbnail/C1BCNGB69H.png"
  },
  {
   "acodec": "",
   "audio_bit_rate": 0,
   "audio_stream_index": -1,
   "audio_timebase": {
    "den": 1,
    "num": 1
   },
   "channel_layout": 4,
   "channels": 0,
   "display_ratio": {
    "den": 721,
    "num": 1280
   },
   "duration": 3600,
   "file_size": "3691520",
   "fps": {
    "den": 1,
    "num": 30
   },
   "has_audio": false,
   "has_single_image": true,
   "has_video": true,
   "height": 721,
   "interlaced_frame": false,
   "metadata": {},
   "path": "generated/240_allelulia_give_thanks-2.png",
   "pixel_format": -1,
   "pixel_ratio": {
    "den": 1,
    "num": 1
   },
   "sample_rate": 0,
   "top_field_first": true,
   "type": "QtImageReader",
   "vcodec": "",
   "video_bit_rate": 0,
   "video_length": "108000",
   "video_stream_index": -1,
   "video_timebase": {
    "den": 30,
    "num": 1
   },
   "width": 1280,
   "media_type": "image",
   "id": "03J93H2INZ",
   "image": "@assets/thumbnail/03J93H2INZ.png"
  },
  {
   "acodec": "",
   "audio_bit_rate": 0,
   "audio_stream_index": -1,
   "audio_timebase": {
    "den": 1,
    "num": 1
   },
   "channel_layout": 4,
   "channels": 0,
   "display_ratio": {
    "den": 721,
    "num": 1280
   },
   "duration": 3600,
   "file_size": "3691520",
   "fps": {
    "den": 1,
    "num": 30
   },
   "has_audio": false,
   "has_single_image": true,
   "has_video": true,
   "height": 721,
   "interlaced_frame": false,
   "metadata": {},
   "path": "generated/240_allelulia_give_thanks-3.png",
   "pixel_format": -1,
   "pixel_ratio": {
    "den": 1,
    "num": 1
   },
   "sample_rate": 0,
   "top_field_first": true,
   "type": "QtImageReader",
   "vcodec": "",
   "video_bit_rate": 0,
   "video_length": "108000",
   "video_stream_index": -1,
   "video_timebase": {
    "den": 30,
    "num": 1
   },
   "width": 1280,
   "media_type": "image",
   "id": "5VAPZ0XAUP",
   "image": "@assets/thumbnail/5VAPZ0XAUP.png"
  },
  {
   "acodec": "",
   "audio_bit_rate": 0,
   "audio_stream_index": -1,
   "audio_timebase": {
    "den": 1,
    "num": 1
   },
   "channel_layout": 4,
   "channels": 0,
   "display_ratio": {
    "den": 721,
    "num": 1280
   },
   "duration": 3600,
   "file_size": "3691520",
   "fps": {
    "den": 1,
    "num": 30
   },
   "has_audio": false,
   "has_single_image": true,
   "has_video": true,
   "height": 721,
   "interlaced_frame": false,
   "metadata": {},
   "path": "generated/240_allelulia_give_thanks-4.png",
   "pixel_format": -1,
   "pixel_ratio": {
    "den": 1,
    "num": 1
   },
   "sample_rate": 0,
   "top_field_first": true,
   "type": "QtImageReader",
   "vcodec": "",
   "video_bit_rate": 0,
   "video_length": "108000",
   "video_stream_index": -1,
   "video_timebase": {
    "den": 30,
    "num": 1
   },
   "width": 1280,
   "media_type": "image",
   "id": "R0PJFNQQE1",
   "image": "@assets/thumbnail/R0PJFNQQE1.png"
  },
  {
   "acodec": "",
   "audio_bit_rate": 0,
   "audio_stream_index": -1,
   "audio_timebase": {
    "den": 1,
    "num": 1
   },
   "channel_layout": 4,
   "channels": 0,
   "display_ratio": {
    "den": 721,
    "num": 1280
   },
   "duration": 3600,
   "file_size": "3691520",
   "fps": {
    "den": 1,
    "num": 30
   },
   "has_audio": false,
   "has_single_image": true,
   "has_video": true,
   "height": 721,
   "interlaced_frame": false,
   "metadata": {},
   "path": "generated/240_allelulia_give_thanks-5.png",
   "pixel_format": -1,
   "pixel_ratio": {
    "den": 1,
    "num": 1
   },
   "sample_rate": 0,
   "top_field_first": true,
   "type": "QtImageReader",
   "vcodec": "",
   "video_bit_rate": 0,
   "video_length": "108000",
   "video_stream_index": -1,
   "video_timebase": {
    "den": 30,
    "num": 1
   },
   "width": 1280,
   "media_type": "image",
   "id": "HDUSPFUYCT",
   "image": "@assets/thumbnail/HDUSPFUYCT.png"
  }
 ],
 "duration": 300,
 "scale": 15,
 "tick_pixels": 100,
 "playhead_position": 0,
 "profile": "HDV 720 24p",
 "layers": [
  {
   "id": "L1",
   "label": "",
   "number": 1000000,
   "y": 0,
   "lock": false
  },
  {
   "id": "L2",
   "label": "",
   "number": 2000000,
   "y": 0,
   "lock": false
  },
  {
   "id": "L3",
   "label": "",
   "number": 3000000,
   "y": 0,
   "lock": false
  },
  {
   "id": "L4",
   "label": "",
   "number": 4000000,
   "y": 0,
   "lock": false
  },
  {
   "id": "L5",
   "label": "",
   "number": 5000000,
   "y": 0,
   "lock": false
  },
  {
   "number": 6000000,
   "y": 0,
   "label": "",
   "lock": false,
   "id": "KVRLYN2AAM"
  }
 ],
 "markers": [
  {
   "position": 26.333333333333332,
   "icon": "blue.png",
   "id": "P7A862ACZV"
  },
  {
   "position": 52.416666666666664,
   "icon": "blue.png",
   "id": "9WN70GFAF3"
  },
  {
   "position": 79.25,
   "icon": "blue.png",
   "id": "TO69T56VV4"
  },
  {
   "position": 105.875,
   "icon": "blue.png",
   "id": "OXX171GHGV"
  }
 ],
 "progress": [],
 "history": {
  "undo": [
   {
    "type": "insert",
    "key": [
     "clips"
    ],
    "value": {
     "alpha": {
      "Points": [
       {
        "co": {
         "X": 1,
         "Y": 1
        },
        "interpolation": 2
       }
      ]
     },
     "anchor": 0,
     "channel_filter": {
      "Points": [
       {
        "co": {
         "X": 1,
         "Y": -1
        },
        "interpolation": 2
       }
      ]
     },
     "channel_mapping": {
      "Points": [
       {
        "co": {
         "X": 1,
         "Y": -1
        },
        "interpolation": 2
       }
      ]
     },
     "crop_height": {
      "Points": [
       {
        "co": {
         "X": 1,
         "Y": 1
        },
        "interpolation": 2
       }
      ]
     },
     "crop_width": {
      "Points": [
       {
        "co": {
         "X": 1,
         "Y": 1
        },
        "interpolation": 2
       }
      ]
     },
     "crop_x": {
      "Points": [
       {
        "co": {
         "X": 1,
         "Y": 0
        },
        "interpolation": 2
       }
      ]
     },
     "crop_y": {
      "Points": [
       {
        "co": {
         "X": 1,
         "Y": 0
        },
        "interpolation": 2
       }
      ]
     },
     "display": 0,
     "duration": 3600.0,
     "effects": [],
     "end": 28.916666666666668,
     "gravity": 4,
     "has_audio": {
      "Points": [
       {
        "co": {
         "X": 1,
         "Y": -1
        },
        "interpolation": 2
       }
      ]
     },
     "has_video": {
      "Points": [
       {
        "co": {
         "X": 1,
         "Y": -1
        },
        "interpolation": 2
       }
      ]
     },
     "id": "H10WKM1J0R",
     "layer": 6000000,
     "location_x": {
      "Points": [
       {
        "co": {
         "X": 1,
         "Y": 0
        },
        "interpolation": 2
       }
      ]
     },
     "location_y": {
      "Points": [
       {
        "co": {
         "X": 1,
         "Y": 0
        },
        "interpolation": 2
       }
      ]
     },
     "mixing": 0,
     "perspective_c1_x": {
      "Points": [
       {
        "co": {
         "X": 1,
         "Y": -1
        },
        "interpolation": 2
       }
      ]
     },
     "perspective_c1_y": {
      "Points": [
       {
        "co": {
         "X": 1,
         "Y": -1
        },
        "interpolation": 2
       }
      ]
     },
     "perspective_c2_x": {
      "Points": [
       {
        "co": {
         "X": 1,
         "Y": -1
        },
        "interpolation": 2
       }
      ]
     },
     "perspective_c2_y": {
      "Points": [
       {
        "co": {
         "X": 1,
         "Y": -1
        },
        "interpolation": 2
       }
      ]
     },
     "perspective_c3_x": {
      "Points": [
       {
        "co": {
         "X": 1,
         "Y": -1
        },
        "interpolation": 2
       }
      ]
     },
     "perspective_c3_y": {
      "Points": [
       {
        "co": {
         "X": 1,
         "Y": -1
        },
        "interpolation": 2
       }
      ]
     },
     "perspective_c4_x": {
      "Points": [
       {
        "co": {
         "X": 1,
         "Y": -1
        },
        "interpolation": 2
       }
      ]
     },
     "perspective_c4_y": {
      "Points": [
       {
        "co": {
         "X": 1,
         "Y": -1
        },
        "interpolation": 2
       }
      ]
     },
     "position": 0,
     "reader": {
      "acodec": "",
      "audio_bit_rate": 0,
      "audio_stream_index": -1,
      "audio_timebase": {
       "den": 1,
       "num": 1
      },
      "channel_layout": 4,
      "channels": 0,
      "display_ratio": {
       "den": 721,
       "num": 1280
      },
      "duration": 3600.0,
      "file_size": "3691520",
      "fps": {
       "den": 1,
       "num": 30
      },
      "has_audio": false,
      "has_single_image": true,
      "has_video": true,
      "height": 721,
      "interlaced_frame": false,
      "metadata": {},
      "path": "generated/240_allelulia_give_thanks-1.png",
      "pixel_format": -1,
      "pixel_ratio": {
       "den": 1,
       "num": 1
      },
      "sample_rate": 0,
      "top_field_first": true,
      "type": "QtImageReader",
      "vcodec": "",
      "video_bit_rate": 0,
      "video_length": "108000",
      "video_stream_index": -1,
      "video_timebase": {
       "den": 30,
       "num": 1
      },
      "width": 1280
     },
     "rotation": {
      "Points": [
       {
        "co": {
         "X": 1,
         "Y": 0
        },
        "interpolation": 2
       }
      ]
     },
     "scale": 1,
     "scale_x": {
      "Points": [
       {
        "co": {
         "X": 1,
         "Y": 1
        },
        "interpolation": 2
       }
      ]
     },
     "scale_y": {
      "Points": [
       {
        "co": {
         "X": 1,
         "Y": 1
        },
        "interpolation": 2
       }
      ]
     },
     "shear_x": {
      "Points": [
       {
        "co": {
         "X": 1,
         "Y": 0
        },
        "interpolation": 2
       }
      ]
     },
     "shear_y": {
      "Points": [
       {
        "co": {
         "X": 1,
         "Y": 0
        },
        "interpolation": 2
       }
      ]
     },
     "start": 0,
     "time": {
      "Points": [
       {
        "co": {
         "X": 1,
         "Y": 1
        },
        "interpolation": 2
       }
      ]
     },
     "volume": {
      "Points": [
       {
        "co": {
         "X": 1,
         "Y": 1
        },
        "interpolation": 2
       }
      ]
     },
     "wave_color": {
      "alpha": {
       "Points": [
        {
         "co": {
          "X": 1,
          "Y": 255
         },
         "handle_left": {
          "X": 0.5,
          "Y": 1
         },
         "handle_right": {
          "X": 0.5,
          "Y": 0
         },
         "handle_type": 0,
         "interpolation": 0
        }
       ]
      },
      "blue": {
       "Points": [
        {
         "co": {
          "X": 1,
          "Y": 255
         },
         "handle_left": {
          "X": 0.5,
          "Y": 1
         },
         "handle_right": {
          "X": 0.5,
          "Y": 0
         },
         "handle_type": 0,
         "interpolation": 0
        }
       ]
      },
      "green": {
       "Points": [
        {
         "co": {
          "X": 1,
          "Y": 123
         },
         "handle_left": {
          "X": 0.5,
          "Y": 1
         },
         "handle_right": {
          "X": 0.5,
          "Y": 0
         },
         "handle_type": 0,
         "interpolation": 0
        }
       ]
      },
      "red": {
       "Points": [
        {
         "co": {
          "X": 1,
          "Y": 0
         },
         "handle_left": {
          "X": 0.5,
          "Y": 1
         },
         "handle_right": {
          "X": 0.5,
          "Y": 0
         },
         "handle_type": 0,
         "interpolation": 0
        }
       ]
      }
     },
     "waveform": false,
     "file_id": "C1BCNGB69H",
     "title": "240_allelulia_give_thanks-1.png"
    },
    "partial": false,
    "old_values": [
     {
      "alpha": {
       "Points": [
        {
         "co": {
          "X": 1,
          "Y": 1
         },
         "interpolation": 2
        }
       ]
      },
      "anchor": 0,
      "channel_filter": {
       "Points": [
        {
         "co": {
          "X": 1,
          "Y": -1
         },
         "interpolation": 2
        }
       ]
      },
      "channel_mapping": {
       "Points": [
        {
         "co": {
          "X": 1,
          "Y": -1
         },
         "interpolation": 2
        }
       ]
      },
      "crop_height": {
       "Points": [
        {
         "co": {
          "X": 1,
          "Y": 1
         },
         "interpolation": 2
        }
       ]
      },
      "crop_width": {
       "Points": [
        {
         "co": {
          "X": 1,
          "Y": 1
         },
         "interpolation": 2
        }
       ]
      },
      "crop_x": {
       "Points": [
        {
         "co": {
          "X": 1,
          "Y": 0
         },
         "interpolation": 2
        }
       ]
      },
      "crop_y": {
       "Points": [
        {
         "co": {
          "X": 1,
          "Y": 0
         },
         "interpolation": 2
        }
       ]
      },
      "display": 0,
      "duration": 138.710205078125,
      "effects": [],
      "end": 138.710205078125,
      "gravity": 4,
      "has_audio": {
       "Points": [
        {
         "co": {
          "X": 1,
          "Y": -1
         },
         "interpolation": 2
        }
       ]
      },
      "has_video": {
       "Points": [
        {
         "co": {
          "X": 1,
          "Y": -1
         },
         "interpolation": 2
        }
       ]
      },
      "id": "ASHR3UX8IY",
      "layer": 5000000,
      "location_x": {
       "Points": [
        {
         "co": {
          "X": 1,
          "Y": 0
         },
         "interpolation": 2
        }
       ]
      },
      "location_y": {
       "Points": [
        {
         "co": {
          "X": 1,
          "Y": 0
         },
         "interpolation": 2
        }
       ]
      },
      "mixing": 0,
      "perspective_c1_x": {
       "Points": [
        {
         "co": {
          "X": 1,
          "Y": -1
         },
         "interpolation": 2
        }
       ]
      },
      "perspective_c1_y": {
       "Points": [
        {
         "co": {
          "X": 1,
          "Y": -1
         },
         "interpolation": 2
        }
       ]
      },
      "perspective_c2_x": {
       "Points": [
        {
         "co": {
          "X": 1,
          "Y": -1
         },
         "interpolation": 2
        }
       ]
      },
      "perspective_c2_y": {
       "Points": [
        {
         "co": {
          "X": 1,
          "Y": -1
         },
         "interpolation": 2
        }
       ]
      },
      "perspective_c3_x": {
       "Points": [
        {
         "co": {
          "X": 1,
          "Y": -1
         },
         "interpolation": 2
        }
       ]
      },
      "perspective_c3_y": {
       "Points": [
        {
         "co": {
          "X": 1,
          "Y": -1
         },
         "interpolation": 2
        }
       ]
      },
      "perspective_c4_x": {
       "Points": [
        {
         "co": {
          "X": 1,
          "Y": -1
         },
         "interpolation": 2
        }
       ]
      },
      "perspective_c4_y": {
       "Points": [
        {
         "co": {
          "X": 1,
          "Y": -1
         },
         "interpolation": 2
        }
       ]
      },
      "position": 0,
      "reader": {
       "acodec": "mp3float",
       "audio_bit_rate": 179292,
       "audio_stream_index": 0,
       "audio_timebase": {
        "den": 14112000,
        "num": 1
       },
       "channel_layout": 3,
       "channels": 2,
       "display_ratio": {
        "den": 1,
        "num": 1
       },
       "duration": 138.710205078125,
       "file_size": "3108707",
       "fps": {
        "den": 1,
        "num": 24
       },
       "has_audio": true,
       "has_single_image": false,
       "has_video": false,
       "height": 480,
       "interlaced_frame": false,
       "metadata": {
        "encoder": "LAME3.100"
       },
       "path": "./240 Alleluia Alleluia with Singers.mp3",
       "pixel_format": -1,
       "pixel_ratio": {
        "den": 1,
        "num": 1
       },
       "sample_rate": 44100,
       "top_field_first": true,
       "type": "FFmpegReader",
       "vcodec": "",
       "video_bit_rate": 0,
       "video_length": "3329",
       "video_stream_index": -1,
       "video_timebase": {
        "den": 24,
        "num": 1
       },
       "width": 720
      },
      "rotation": {
       "Points": [
        {
         "co": {
          "X": 1,
          "Y": 0
         },
         "interpolation": 2
        }
       ]
      },
      "scale": 1,
      "scale_x": {
       "Points": [
        {
         "co": {
          "X": 1,
          "Y": 1
         },
         "interpolation": 2
        }
       ]
      },
      "scale_y": {
       "Points": [
        {
         "co": {
          "X": 1,
          "Y": 1
         },
         "interpolation": 2
        }
       ]
      },
      "shear_x": {
       "Points": [
        {
         "co": {
          "X": 1,
          "Y": 0
         },
         "interpolation": 2
        }
       ]
      },
      "shear_y": {
       "Points": [
        {
         "co": {
          "X": 1,
          "Y": 0
         },
         "interpolation": 2
        }
       ]
      },
      "start": 0,
      "time": {
       "Points": [
        {
         "co": {
          "X": 1,
          "Y": 1
         },
         "interpolation": 2
        }
       ]
      },
      "volume": {
       "Points": [
        {
         "co": {
          "X": 1,
          "Y": 1
         },
         "interpolation": 2
        }
       ]
      },
      "wave_color": {
       "alpha": {
        "Points": [
         {
          "co": {
           "X": 1,
           "Y": 255
          },
          "handle_left": {
           "X": 0.5,
           "Y": 1
          },
          "handle_right": {
           "X": 0.5,
           "Y": 0
          },
          "handle_type": 0,
          "interpolation": 0
         }
        ]
       },
       "blue": {
        "Points": [
         {
          "co": {
           "X": 1,
           "Y": 255
          },
          "handle_left": {
           "X": 0.5,
           "Y": 1
          },
          "handle_right": {
           "X": 0.5,
           "Y": 0
          },
          "handle_type": 0,
          "interpolation": 0
         }
        ]
       },
       "green": {
        "Points": [
         {
          "co": {
           "X": 1,
           "Y": 123
          },
          "handle_left": {
           "X": 0.5,
           "Y": 1
          },
          "handle_right": {
           "X": 0.5,
           "Y": 0
          },
          "handle_type": 0,
          "interpolation": 0
         }
        ]
       },
       "red": {
        "Points": [
         {
          "co": {
           "X": 1,
           "Y": 0
          },
          "handle_left": {
           "X": 0.5,
           "Y": 1
          },
          "handle_right": {
           "X": 0.5,
           "Y": 0
          },
          "handle_type": 0,
          "interpolation": 0
         }
        ]
       }
      },
      "waveform": false,
      "file_id": "XGTGN70GJK",
      "title": "240 Alleluia Alleluia with Singers.mp3"
     }
    ]
   },
   {
    "type": "update",
    "key": [
     "clips",
     {
      "id": "H10WKM1J0R"
     }
    ],
    "value": {
     "id": "H10WKM1J0R",
     "layer": 6000000,
     "position": 0,
     "start": 0,
     "end": 10
    },
    "partial": false,
    "old_values": {
     "alpha": {
      "Points": [
       {
        "co": {
         "X": 1,
         "Y": 1
        },
        "interpolation": 2
       }
      ]
     },
     "anchor": 0,
     "channel_filter": {
      "Points": [
       {
        "co": {
         "X": 1,
         "Y": -1
        },
        "interpolation": 2
       }
      ]
     },
     "channel_mapping": {
      "Points": [
       {
        "co": {
         "X": 1,
         "Y": -1
        },
        "interpolation": 2
       }
      ]
     },
     "crop_height": {
      "Points": [
       {
        "co": {
         "X": 1,
         "Y": 1
        },
        "interpolation": 2
       }
      ]
     },
     "crop_width": {
      "Points": [
       {
        "co": {
         "X": 1,
         "Y": 1
        },
        "interpolation": 2
       }
      ]
     },
     "crop_x": {
      "Points": [
       {
        "co": {
         "X": 1,
         "Y": 0
        },
        "interpolation": 2
       }
      ]
     },
     "crop_y": {
      "Points": [
       {
        "co": {
         "X": 1,
         "Y": 0
        },
        "interpolation": 2
       }
      ]
     },
     "display": 0,
     "duration": 3600.0,
     "effects": [],
     "end": 10.0,
     "gravity": 4,
     "has_audio": {
      "Points": [
       {
        "co": {
         "X": 1,
         "Y": -1
        },
        "interpolation": 2
       }
      ]
     },
     "has_video": {
      "Points": [
       {
        "co": {
         "X": 1,
         "Y": -1
        },
        "interpolation": 2
       }
      ]
     },
     "id": "H10WKM1J0R",
     "layer": 6000000,
     "location_x": {
      "Points": [
       {
        "co": {
         "X": 1,
         "Y": 0
        },
        "interpolation": 2
       }
      ]
     },
     "location_y": {
      "Points": [
       {
        "co": {
         "X": 1,
         "Y": 0
        },
        "interpolation": 2
       }
      ]
     },
     "mixing": 0,
     "perspective_c1_x": {
      "Points": [
       {
        "co": {
         "X": 1,
         "Y": -1
        },
        "interpolation": 2
       }
      ]
     },
     "perspective_c1_y": {
      "Points": [
       {
        "co": {
         "X": 1,
         "Y": -1
        },
        "interpolation": 2
       }
      ]
     },
     "perspective_c2_x": {
      "Points": [
       {
        "co": {
         "X": 1,
         "Y": -1
        },
        "interpolation": 2
       }
      ]
     },
     "perspective_c2_y": {
      "Points": [
       {
        "co": {
         "X": 1,
         "Y": -1
        },
        "interpolation": 2
       }
      ]
     },
     "perspective_c3_x": {
      "Points": [
       {
        "co": {
         "X": 1,
         "Y": -1
        },
        "interpolation": 2
       }
      ]
     },
     "perspective_c3_y": {
      "Points": [
       {
        "co": {
         "X": 1,
         "Y": -1
        },
        "interpolation": 2
       }
      ]
     },
     "perspective_c4_x": {
      "Points": [
       {
        "co": {
         "X": 1,
         "Y": -1
        },
        "interpolation": 2
       }
      ]
     },
     "perspective_c4_y": {
      "Points": [
       {
        "co": {
         "X": 1,
         "Y": -1
        },
        "interpolation": 2
       }
      ]
     },
     "position": 7.5,
     "reader": {
      "acodec": "",
      "audio_bit_rate": 0,
      "audio_stream_index": -1,
      "audio_timebase": {
       "den": 1,
       "num": 1
      },
      "channel_layout": 4,
      "channels": 0,
      "display_ratio": {
       "den": 721,
       "num": 1280
      },
      "duration": 3600.0,
      "file_size": "3691520",
      "fps": {
       "den": 1,
       "num": 30
      },
      "has_audio": false,
      "has_single_image": true,
      "has_video": true,
      "height": 721,
      "interlaced_frame": false,
      "metadata": {},
      "path": "generated/240_allelulia_give_thanks-1.png",
      "pixel_format": -1,
      "pixel_ratio": {
       "den": 1,
       "num": 1
      },
      "sample_rate": 0,
      "top_field_first": true,
      "type": "QtImageReader",
      "vcodec": "",
      "video_bit_rate": 0,
      "video_length": "108000",
      "video_stream_index": -1,
      "video_timebase": {
       "den": 30,
       "num": 1
      },
      "width": 1280
     },
     "rotation": {
      "Points": [
       {
        "co": {
         "X": 1,
         "Y": 0
        },
        "interpolation": 2
       }
      ]
     },
     "scale": 1,
     "scale_x": {
      "Points": [
       {
        "co": {
         "X": 1,
         "Y": 1
        },
        "interpolation": 2
       }
      ]
     },
     "scale_y": {
      "Points": [
       {
        "co": {
         "X": 1,
         "Y": 1
        },
        "interpolation": 2
       }
      ]
     },
     "shear_x": {
      "Points": [
       {
        "co": {
         "X": 1,
         "Y": 0
        },
        "interpolation": 2
       }
      ]
     },
     "shear_y": {
      "Points": [
       {
        "co": {
         "X": 1,
         "Y": 0
        },
        "interpolation": 2
       }
      ]
     },
     "start": 0,
     "time": {
      "Points": [
       {
        "co": {
         "X": 1,
         "Y": 1
        },
        "interpolation": 2
       }
      ]
     },
     "volume": {
      "Points": [
       {
        "co": {
         "X": 1,
         "Y": 1
        },
        "interpolation": 2
       }
      ]
     },
     "wave_color": {
      "alpha": {
       "Points": [
        {
         "co": {
          "X": 1,
          "Y": 255
         },
         "handle_left": {
          "X": 0.5,
          "Y": 1
         },
         "handle_right": {
          "X": 0.5,
          "Y": 0
         },
         "handle_type": 0,
         "interpolation": 0
        }
       ]
      },
      "blue": {
       "Points": [
        {
         "co": {
          "X": 1,
          "Y": 255
         },
         "handle_left": {
          "X": 0.5,
          "Y": 1
         },
         "handle_right": {
          "X": 0.5,
          "Y": 0
         },
         "handle_type": 0,
         "interpolation": 0
        }
       ]
      },
      "green": {
       "Points": [
        {
         "co": {
          "X": 1,
          "Y": 123
         },
         "handle_left": {
          "X": 0.5,
          "Y": 1
         },
         "handle_right": {
          "X": 0.5,
          "Y": 0
         },
         "handle_type": 0,
         "interpolation": 0
        }
       ]
      },
      "red": {
       "Points": [
        {
         "co": {
          "X": 1,
          "Y": 0
         },
         "handle_left": {
          "X": 0.5,
          "Y": 1
         },
         "handle_right": {
          "X": 0.5,
          "Y": 0
         },
         "handle_type": 0,
         "interpolation": 0
        }
       ]
      }
     },
     "waveform": false,
     "file_id": "C1BCNGB69H",
     "title": "240_allelulia_give_thanks-1.png"
    }
   },
   {
    "type": "update",
    "key": [
     "clips",
     {
      "id": "H10WKM1J0R"
     }
    ],
    "value": {
     "id": "H10WKM1J0R",
     "layer": 6000000,
     "position": 0,
     "start": 0,
     "end": 28.916666666666668
    },
    "partial": false,
    "old_values": {
     "alpha": {
      "Points": [
       {
        "co": {
         "X": 1,
         "Y": 1
        },
        "interpolation": 2
       }
      ]
     },
     "anchor": 0,
     "channel_filter": {
      "Points": [
       {
        "co": {
         "X": 1,
         "Y": -1
        },
        "interpolation": 2
       }
      ]
     },
     "channel_mapping": {
      "Points": [
       {
        "co": {
         "X": 1,
         "Y": -1
        },
        "interpolation": 2
       }
      ]
     },
     "crop_height": {
      "Points": [
       {
        "co": {
         "X": 1,
         "Y": 1
        },
        "interpolation": 2
       }
      ]
     },
     "crop_width": {
      "Points": [
       {
        "co": {
         "X": 1,
         "Y": 1
        },
        "interpolation": 2
       }
      ]
     },
     "crop_x": {
      "Points": [
       {
        "co": {
         "X": 1,
         "Y": 0
        },
        "interpolation": 2
       }
      ]
     },
     "crop_y": {
      "Points": [
       {
        "co": {
         "X": 1,
         "Y": 0
        },
        "interpolation": 2
       }
      ]
     },
     "display": 0,
     "duration": 3600.0,
     "effects": [],
     "end": 10,
     "gravity": 4,
     "has_audio": {
      "Points": [
       {
        "co": {
         "X": 1,
         "Y": -1
        },
        "interpolation": 2
       }
      ]
     },
     "has_video": {
      "Points": [
       {
        "co": {
         "X": 1,
         "Y": -1
        },
        "interpolation": 2
       }
      ]
     },
     "id": "H10WKM1J0R",
     "layer": 6000000,
     "location_x": {
      "Points": [
       {
        "co": {
         "X": 1,
         "Y": 0
        },
        "interpolation": 2
       }
      ]
     },
     "location_y": {
      "Points": [
       {
        "co": {
         "X": 1,
         "Y": 0
        },
        "interpolation": 2
       }
      ]
     },
     "mixing": 0,
     "perspective_c1_x": {
      "Points": [
       {
        "co": {
         "X": 1,
         "Y": -1
        },
        "interpolation": 2
       }
      ]
     },
     "perspective_c1_y": {
      "Points": [
       {
        "co": {
         "X": 1,
         "Y": -1
        },
        "interpolation": 2
       }
      ]
     },
     "perspective_c2_x": {
      "Points": [
       {
        "co": {
         "X": 1,
         "Y": -1
        },
        "interpolation": 2
       }
      ]
     },
     "perspective_c2_y": {
      "Points": [
       {
        "co": {
         "X": 1,
         "Y": -1
        },
        "interpolation": 2
       }
      ]
     },
     "perspective_c3_x": {
      "Points": [
       {
        "co": {
         "X": 1,
         "Y": -1
        },
        "interpolation": 2
       }
      ]
     },
     "perspective_c3_y": {
      "Points": [
       {
        "co": {
         "X": 1,
         "Y": -1
        },
        "interpolation": 2
       }
      ]
     },
     "perspective_c4_x": {
      "Points": [
       {
        "co": {
         "X": 1,
         "Y": -1
        },
        "interpolation": 2
       }
      ]
     },
     "perspective_c4_y": {
      "Points": [
       {
        "co": {
         "X": 1,
         "Y": -1
        },
        "interpolation": 2
       }
      ]
     },
     "position": 0,
     "reader": {
      "acodec": "",
      "audio_bit_rate": 0,
      "audio_stream_index": -1,
      "audio_timebase": {
       "den": 1,
       "num": 1
      },
      "channel_layout": 4,
      "channels": 0,
      "display_ratio": {
       "den": 721,
       "num": 1280
      },
      "duration": 3600.0,
      "file_size": "3691520",
      "fps": {
       "den": 1,
       "num": 30
      },
      "has_audio": false,
      "has_single_image": true,
      "has_video": true,
      "height": 721,
      "interlaced_frame": false,
      "metadata": {},
      "path": "generated/240_allelulia_give_thanks-1.png",
      "pixel_format": -1,
      "pixel_ratio": {
       "den": 1,
       "num": 1
      },
      "sample_rate": 0,
      "top_field_first": true,
      "type": "QtImageReader",
      "vcodec": "",
      "video_bit_rate": 0,
      "video_length": "108000",
      "video_stream_index": -1,
      "video_timebase": {
       "den": 30,
       "num": 1
      },
      "width": 1280
     },
     "rotation": {
      "Points": [
       {
        "co": {
         "X": 1,
         "Y": 0
        },
        "interpolation": 2
       }
      ]
     },
     "scale": 1,
     "scale_x": {
      "Points": [
       {
        "co": {
         "X": 1,
         "Y": 1
        },
        "interpolation": 2
       }
      ]
     },
     "scale_y": {
      "Points": [
       {
        "co": {
         "X": 1,
         "Y": 1
        },
        "interpolation": 2
       }
      ]
     },
     "shear_x": {
      "Points": [
       {
        "co": {
         "X": 1,
         "Y": 0
        },
        "interpolation": 2
       }
      ]
     },
     "shear_y": {
      "Points": [
       {
        "co": {
         "X": 1,
         "Y": 0
        },
        "interpolation": 2
       }
      ]
     },
     "start": 0,
     "time": {
      "Points": [
       {
        "co": {
         "X": 1,
         "Y": 1
        },
        "interpolation": 2
       }
      ]
     },
     "volume": {
      "Points": [
       {
        "co": {
         "X": 1,
         "Y": 1
        },
        "interpolation": 2
       }
      ]
     },
     "wave_color": {
      "alpha": {
       "Points": [
        {
         "co": {
          "X": 1,
          "Y": 255
         },
         "handle_left": {
          "X": 0.5,
          "Y": 1
         },
         "handle_right": {
          "X": 0.5,
          "Y": 0
         },
         "handle_type": 0,
         "interpolation": 0
        }
       ]
      },
      "blue": {
       "Points": [
        {
         "co": {
          "X": 1,
          "Y": 255
         },
         "handle_left": {
          "X": 0.5,
          "Y": 1
         },
         "handle_right": {
          "X": 0.5,
          "Y": 0
         },
         "handle_type": 0,
         "interpolation": 0
        }
       ]
      },
      "green": {
       "Points": [
        {
         "co": {
          "X": 1,
          "Y": 123
         },
         "handle_left": {
          "X": 0.5,
          "Y": 1
         },
         "handle_right": {
          "X": 0.5,
          "Y": 0
         },
         "handle_type": 0,
         "interpolation": 0
        }
       ]
      },
      "red": {
       "Points": [
        {
         "co": {
          "X": 1,
          "Y": 0
         },
         "handle_left": {
          "X": 0.5,
          "Y": 1
         },
         "handle_right": {
          "X": 0.5,
          "Y": 0
         },
         "handle_type": 0,
         "interpolation": 0
        }
       ]
      }
     },
     "waveform": false,
     "file_id": "C1BCNGB69H",
     "title": "240_allelulia_give_thanks-1.png"
    }
   },
   {
    "type": "insert",
    "key": [
     "clips"
    ],
    "value": {
     "alpha": {
      "Points": [
       {
        "co": {
         "X": 1,
         "Y": 1
        },
        "interpolation": 2
       }
      ]
     },
     "anchor": 0,
     "channel_filter": {
      "Points": [
       {
        "co": {
         "X": 1,
         "Y": -1
        },
        "interpolation": 2
       }
      ]
     },
     "channel_mapping": {
      "Points": [
       {
        "co": {
         "X": 1,
         "Y": -1
        },
        "interpolation": 2
       }
      ]
     },
     "crop_height": {
      "Points": [
       {
        "co": {
         "X": 1,
         "Y": 1
        },
        "interpolation": 2
       }
      ]
     },
     "crop_width": {
      "Points": [
       {
        "co": {
         "X": 1,
         "Y": 1
        },
        "interpolation": 2
       }
      ]
     },
     "crop_x": {
      "Points": [
       {
        "co": {
         "X": 1,
         "Y": 0
        },
        "interpolation": 2
       }
      ]
     },
     "crop_y": {
      "Points": [
       {
        "co": {
         "X": 1,
         "Y": 0
        },
        "interpolation": 2
       }
      ]
     },
     "display": 0,
     "duration": 3600.0,
     "effects": [],
     "end": 27.25,
     "gravity": 4,
     "has_audio": {
      "Points": [
       {
        "co": {
         "X": 1,
         "Y": -1
        },
        "interpolation": 2
       }
      ]
     },
     "has_video": {
      "Points": [
       {
        "co": {
         "X": 1,
         "Y": -1
        },
        "interpolation": 2
       }
      ]
     },
     "id": "ZARBOHDFSQ",
     "layer": 6000000,
     "location_x": {
      "Points": [
       {
        "co": {
         "X": 1,
         "Y": 0
        },
        "interpolation": 2
       }
      ]
     },
     "location_y": {
      "Points": [
       {
        "co": {
         "X": 1,
         "Y": 0
        },
        "interpolation": 2
       }
      ]
     },
     "mixing": 0,
     "perspective_c1_x": {
      "Points": [
       {
        "co": {
         "X": 1,
         "Y": -1
        },
        "interpolation": 2
       }
      ]
     },
     "perspective_c1_y": {
      "Points": [
       {
        "co": {
         "X": 1,
         "Y": -1
        },
        "interpolation": 2
       }
      ]
     },
     "perspective_c2_x": {
      "Points": [
       {
        "co": {
         "X": 1,
         "Y": -1
        },
        "interpolation": 2
       }
      ]
     },
     "perspective_c2_y": {
      "Points": [
       {
        "co": {
         "X": 1,
         "Y": -1
        },
        "interpolation": 2
       }
      ]
     },
     "perspective_c3_x": {
      "Points": [
       {
        "co": {
         "X": 1,
         "Y": -1
        },
        "interpolation": 2
       }
      ]
     },
     "perspective_c3_y": {
      "Points": [
       {
        "co": {
         "X": 1,
         "Y": -1
        },
        "interpolation": 2
       }
      ]
     },
     "perspective_c4_x": {
      "Points": [
       {
        "co": {
         "X": 1,
         "Y": -1
        },
        "interpolation": 2
       }
      ]
     },
     "perspective_c4_y": {
      "Points": [
       {
        "co": {
         "X": 1,
         "Y": -1
        },
        "interpolation": 2
       }
      ]
     },
     "position": 26.33333333333333,
     "reader": {
      "acodec": "",
      "audio_bit_rate": 0,
      "audio_stream_index": -1,
      "audio_timebase": {
       "den": 1,
       "num": 1
      },
      "channel_layout": 4,
      "channels": 0,
      "display_ratio": {
       "den": 721,
       "num": 1280
      },
      "duration": 3600.0,
      "file_size": "3691520",
      "fps": {
       "den": 1,
       "num": 30
      },
      "has_audio": false,
      "has_single_image": true,
      "has_video": true,
      "height": 721,
      "interlaced_frame": false,
      "metadata": {},
      "path": "generated/240_allelulia_give_thanks-2.png",
      "pixel_format": -1,
      "pixel_ratio": {
       "den": 1,
       "num": 1
      },
      "sample_rate": 0,
      "top_field_first": true,
      "type": "QtImageReader",
      "vcodec": "",
      "video_bit_rate": 0,
      "video_length": "108000",
      "video_stream_index": -1,
      "video_timebase": {
       "den": 30,
       "num": 1
      },
      "width": 1280
     },
     "rotation": {
      "Points": [
       {
        "co": {
         "X": 1,
         "Y": 0
        },
        "interpolation": 2
       }
      ]
     },
     "scale": 1,
     "scale_x": {
      "Points": [
       {
        "co": {
         "X": 1,
         "Y": 1
        },
        "interpolation": 2
       }
      ]
     },
     "scale_y": {
      "Points": [
       {
        "co": {
         "X": 1,
         "Y": 1
        },
        "interpolation": 2
       }
      ]
     },
     "shear_x": {
      "Points": [
       {
        "co": {
         "X": 1,
         "Y": 0
        },
        "interpolation": 2
       }
      ]
     },
     "shear_y": {
      "Points": [
       {
        "co": {
         "X": 1,
         "Y": 0
        },
        "interpolation": 2
       }
      ]
     },
     "start": 0,
     "time": {
      "Points": [
       {
        "co": {
         "X": 1,
         "Y": 1
        },
        "interpolation": 2
       }
      ]
     },
     "volume": {
      "Points": [
       {
        "co": {
         "X": 1,
         "Y": 1
        },
        "interpolation": 2
       }
      ]
     },
     "wave_color": {
      "alpha": {
       "Points": [
        {
         "co": {
          "X": 1,
          "Y": 255
         },
         "handle_left": {
          "X": 0.5,
          "Y": 1
         },
         "handle_right": {
          "X": 0.5,
          "Y": 0
         },
         "handle_type": 0,
         "interpolation": 0
        }
       ]
      },
      "blue": {
       "Points": [
        {
         "co": {
          "X": 1,
          "Y": 255
         },
         "handle_left": {
          "X": 0.5,
          "Y": 1
         },
         "handle_right": {
          "X": 0.5,
          "Y": 0
         },
         "handle_type": 0,
         "interpolation": 0
        }
       ]
      },
      "green": {
       "Points": [
        {
         "co": {
          "X": 1,
          "Y": 123
         },
         "handle_left": {
          "X": 0.5,
          "Y": 1
         },
         "handle_right": {
          "X": 0.5,
          "Y": 0
         },
         "handle_type": 0,
         "interpolation": 0
        }
       ]
      },
      "red": {
       "Points": [
        {
         "co": {
          "X": 1,
          "Y": 0
         },
         "handle_left": {
          "X": 0.5,
          "Y": 1
         },
         "handle_right": {
          "X": 0.5,
          "Y": 0
         },
         "handle_type": 0,
         "interpolation": 0
        }
       ]
      }
     },
     "waveform": false,
     "file_id": "03J93H2INZ",
     "title": "240_allelulia_give_thanks-2.png"
    },
    "partial": false,
    "old_values": [
     {
      "alpha": {
       "Points": [
        {
         "co": {
          "X": 1,
          "Y": 1
         },
         "interpolation": 2
        }
       ]
      },
      "anchor": 0,
      "channel_filter": {
       "Points": [
        {
         "co": {
          "X": 1,
          "Y": -1
         },
         "interpolation": 2
        }
       ]
      },
      "channel_mapping": {
       "Points": [
        {
         "co": {
          "X": 1,
          "Y": -1
         },
         "interpolation": 2
        }
       ]
      },
      "crop_height": {
       "Points": [
        {
         "co": {
          "X": 1,
          "Y": 1
         },
         "interpolation": 2
        }
       ]
      },
      "crop_width": {
       "Points": [
        {
         "co": {
          "X": 1,
          "Y": 1
         },
         "interpolation": 2
        }
       ]
      },
      "crop_x": {
       "Points": [
        {
         "co": {
          "X": 1,
          "Y": 0
         },
         "interpolation": 2
        }
       ]
      },
      "crop_y": {
       "Points": [
        {
         "co": {
          "X": 1,
          "Y": 0
         },
         "interpolation": 2
        }
       ]
      },
      "display": 0,
      "duration": 138.710205078125,
      "effects": [],
      "end": 138.710205078125,
      "gravity": 4,
      "has_audio": {
       "Points": [
        {
         "co": {
          "X": 1,
          "Y": -1
         },
         "interpolation": 2
        }
       ]
      },
      "has_video": {
       "Points": [
        {
         "co": {
          "X": 1,
          "Y": -1
         },
         "interpolation": 2
        }
       ]
      },
      "id": "ASHR3UX8IY",
      "layer": 5000000,
      "location_x": {
       "Points": [
        {
         "co": {
          "X": 1,
          "Y": 0
         },
         "interpolation": 2
        }
       ]
      },
      "location_y": {
       "Points": [
        {
         "co": {
          "X": 1,
          "Y": 0
         },
         "interpolation": 2
        }
       ]
      },
      "mixing": 0,
      "perspective_c1_x": {
       "Points": [
        {
         "co": {
          "X": 1,
          "Y": -1
         },
         "interpolation": 2
        }
       ]
      },
      "perspective_c1_y": {
       "Points": [
        {
         "co": {
          "X": 1,
          "Y": -1
         },
         "interpolation": 2
        }
       ]
      },
      "perspective_c2_x": {
       "Points": [
        {
         "co": {
          "X": 1,
          "Y": -1
         },
         "interpolation": 2
        }
       ]
      },
      "perspective_c2_y": {
       "Points": [
        {
         "co": {
          "X": 1,
          "Y": -1
         },
         "interpolation": 2
        }
       ]
      },
      "perspective_c3_x": {
       "Points": [
        {
         "co": {
          "X": 1,
          "Y": -1
         },
         "interpolation": 2
        }
       ]
      },
      "perspective_c3_y": {
       "Points": [
        {
         "co": {
          "X": 1,
          "Y": -1
         },
         "interpolation": 2
        }
       ]
      },
      "perspective_c4_x": {
       "Points": [
        {
         "co": {
          "X": 1,
          "Y": -1
         },
         "interpolation": 2
        }
       ]
      },
      "perspective_c4_y": {
       "Points": [
        {
         "co": {
          "X": 1,
          "Y": -1
         },
         "interpolation": 2
        }
       ]
      },
      "position": 0,
      "reader": {
       "acodec": "mp3float",
       "audio_bit_rate": 179292,
       "audio_stream_index": 0,
       "audio_timebase": {
        "den": 14112000,
        "num": 1
       },
       "channel_layout": 3,
       "channels": 2,
       "display_ratio": {
        "den": 1,
        "num": 1
       },
       "duration": 138.710205078125,
       "file_size": "3108707",
       "fps": {
        "den": 1,
        "num": 24
       },
       "has_audio": true,
       "has_single_image": false,
       "has_video": false,
       "height": 480,
       "interlaced_frame": false,
       "metadata": {
        "encoder": "LAME3.100"
       },
       "path": "./240 Alleluia Alleluia with Singers.mp3",
       "pixel_format": -1,
       "pixel_ratio": {
        "den": 1,
        "num": 1
       },
       "sample_rate": 44100,
       "top_field_first": true,
       "type": "FFmpegReader",
       "vcodec": "",
       "video_bit_rate": 0,
       "video_length": "3329",
       "video_stream_index": -1,
       "video_timebase": {
        "den": 24,
        "num": 1
       },
       "width": 720
      },
      "rotation": {
       "Points": [
        {
         "co": {
          "X": 1,
          "Y": 0
         },
         "interpolation": 2
        }
       ]
      },
      "scale": 1,
      "scale_x": {
       "Points": [
        {
         "co": {
          "X": 1,
          "Y": 1
         },
         "interpolation": 2
        }
       ]
      },
      "scale_y": {
       "Points": [
        {
         "co": {
          "X": 1,
          "Y": 1
         },
         "interpolation": 2
        }
       ]
      },
      "shear_x": {
       "Points": [
        {
         "co": {
          "X": 1,
          "Y": 0
         },
         "interpolation": 2
        }
       ]
      },
      "shear_y": {
       "Points": [
        {
         "co": {
          "X": 1,
          "Y": 0
         },
         "interpolation": 2
        }
       ]
      },
      "start": 0,
      "time": {
       "Points": [
        {
         "co": {
          "X": 1,
          "Y": 1
         },
         "interpolation": 2
        }
       ]
      },
      "volume": {
       "Points": [
        {
         "co": {
          "X": 1,
          "Y": 1
         },
         "interpolation": 2
        }
       ]
      },
      "wave_color": {
       "alpha": {
        "Points": [
         {
          "co": {
           "X": 1,
           "Y": 255
          },
          "handle_left": {
           "X": 0.5,
           "Y": 1
          },
          "handle_right": {
           "X": 0.5,
           "Y": 0
          },
          "handle_type": 0,
          "interpolation": 0
         }
        ]
       },
       "blue": {
        "Points": [
         {
          "co": {
           "X": 1,
           "Y": 255
          },
          "handle_left": {
           "X": 0.5,
           "Y": 1
          },
          "handle_right": {
           "X": 0.5,
           "Y": 0
          },
          "handle_type": 0,
          "interpolation": 0
         }
        ]
       },
       "green": {
        "Points": [
         {
          "co": {
           "X": 1,
           "Y": 123
          },
          "handle_left": {
           "X": 0.5,
           "Y": 1
          },
          "handle_right": {
           "X": 0.5,
           "Y": 0
          },
          "handle_type": 0,
          "interpolation": 0
         }
        ]
       },
       "red": {
        "Points": [
         {
          "co": {
           "X": 1,
           "Y": 0
          },
          "handle_left": {
           "X": 0.5,
           "Y": 1
          },
          "handle_right": {
           "X": 0.5,
           "Y": 0
          },
          "handle_type": 0,
          "interpolation": 0
         }
        ]
       }
      },
      "waveform": false,
      "file_id": "XGTGN70GJK",
      "title": "240 Alleluia Alleluia with Singers.mp3"
     },
     {
      "alpha": {
       "Points": [
        {
         "co": {
          "X": 1,
          "Y": 1
         },
         "interpolation": 2
        }
       ]
      },
      "anchor": 0,
      "channel_filter": {
       "Points": [
        {
         "co": {
          "X": 1,
          "Y": -1
         },
         "interpolation": 2
        }
       ]
      },
      "channel_mapping": {
       "Points": [
        {
         "co": {
          "X": 1,
          "Y": -1
         },
         "interpolation": 2
        }
       ]
      },
      "crop_height": {
       "Points": [
        {
         "co": {
          "X": 1,
          "Y": 1
         },
         "interpolation": 2
        }
       ]
      },
      "crop_width": {
       "Points": [
        {
         "co": {
          "X": 1,
          "Y": 1
         },
         "interpolation": 2
        }
       ]
      },
      "crop_x": {
       "Points": [
        {
         "co": {
          "X": 1,
          "Y": 0
         },
         "interpolation": 2
        }
       ]
      },
      "crop_y": {
       "Points": [
        {
         "co": {
          "X": 1,
          "Y": 0
         },
         "interpolation": 2
        }
       ]
      },
      "display": 0,
      "duration": 3600.0,
      "effects": [],
      "end": 28.916666666666668,
      "gravity": 4,
      "has_audio": {
       "Points": [
        {
         "co": {
          "X": 1,
          "Y": -1
         },
         "interpolation": 2
        }
       ]
      },
      "has_video": {
       "Points": [
        {
         "co": {
          "X": 1,
          "Y": -1
         },
         "interpolation": 2
        }
       ]
      },
      "id": "H10WKM1J0R",
      "layer": 6000000,
      "location_x": {
       "Points": [
        {
         "co": {
          "X": 1,
          "Y": 0
         },
         "interpolation": 2
        }
       ]
      },
      "location_y": {
       "Points": [
        {
         "co": {
          "X": 1,
          "Y": 0
         },
         "interpolation": 2
        }
       ]
      },
      "mixing": 0,
      "perspective_c1_x": {
       "Points": [
        {
         "co": {
          "X": 1,
          "Y": -1
         },
         "interpolation": 2
        }
       ]
      },
      "perspective_c1_y": {
       "Points": [
        {
         "co": {
          "X": 1,
          "Y": -1
         },
         "interpolation": 2
        }
       ]
      },
      "perspective_c2_x": {
       "Points": [
        {
         "co": {
          "X": 1,
          "Y": -1
         },
         "interpolation": 2
        }
       ]
      },
      "perspective_c2_y": {
       "Points": [
        {
         "co": {
          "X": 1,
          "Y": -1
         },
         "interpolation": 2
        }
       ]
      },
      "perspective_c3_x": {
       "Points": [
        {
         "co": {
          "X": 1,
          "Y": -1
         },
         "interpolation": 2
        }
       ]
      },
      "perspective_c3_y": {
       "Points": [
        {
         "co": {
          "X": 1,
          "Y": -1
         },
         "interpolation": 2
        }
       ]
      },
      "perspective_c4_x": {
       "Points": [
        {
         "co": {
          "X": 1,
          "Y": -1
         },
         "interpolation": 2
        }
       ]
      },
      "perspective_c4_y": {
       "Points": [
        {
         "co": {
          "X": 1,
          "Y": -1
         },
         "interpolation": 2
        }
       ]
      },
      "position": 0,
      "reader": {
       "acodec": "",
       "audio_bit_rate": 0,
       "audio_stream_index": -1,
       "audio_timebase": {
        "den": 1,
        "num": 1
       },
       "channel_layout": 4,
       "channels": 0,
       "display_ratio": {
        "den": 721,
        "num": 1280
       },
       "duration": 3600.0,
       "file_size": "3691520",
       "fps": {
        "den": 1,
        "num": 30
       },
       "has_audio": false,
       "has_single_image": true,
       "has_video": true,
       "height": 721,
       "interlaced_frame": false,
       "metadata": {},
       "path": "generated/240_allelulia_give_thanks-1.png",
       "pixel_format": -1,
       "pixel_ratio": {
        "den": 1,
        "num": 1
       },
       "sample_rate": 0,
       "top_field_first": true,
       "type": "QtImageReader",
       "vcodec": "",
       "video_bit_rate": 0,
       "video_length": "108000",
       "video_stream_index": -1,
       "video_timebase": {
        "den": 30,
        "num": 1
       },
       "width": 1280
      },
      "rotation": {
       "Points": [
        {
         "co": {
          "X": 1,
          "Y": 0
         },
         "interpolation": 2
        }
       ]
      },
      "scale": 1,
      "scale_x": {
       "Points": [
        {
         "co": {
          "X": 1,
          "Y": 1
         },
         "interpolation": 2
        }
       ]
      },
      "scale_y": {
       "Points": [
        {
         "co": {
          "X": 1,
          "Y": 1
         },
         "interpolation": 2
        }
       ]
      },
      "shear_x": {
       "Points": [
        {
         "co": {
          "X": 1,
          "Y": 0
         },
         "interpolation": 2
        }
       ]
      },
      "shear_y": {
       "Points": [
        {
         "co": {
          "X": 1,
          "Y": 0
         },
         "interpolation": 2
        }
       ]
      },
      "start": 0,
      "time": {
       "Points": [
        {
         "co": {
          "X": 1,
          "Y": 1
         },
         "interpolation": 2
        }
       ]
      },
      "volume": {
       "Points": [
        {
         "co": {
          "X": 1,
          "Y": 1
         },
         "interpolation": 2
        }
       ]
      },
      "wave_color": {
       "alpha": {
        "Points": [
         {
          "co": {
           "X": 1,
           "Y": 255
          },
          "handle_left": {
           "X": 0.5,
           "Y": 1
          },
          "handle_right": {
           "X": 0.5,
           "Y": 0
          },
          "handle_type": 0,
          "interpolation": 0
         }
        ]
       },
       "blue": {
        "Points": [
         {
          "co": {
           "X": 1,
           "Y": 255
          },
          "handle_left": {
           "X": 0.5,
           "Y": 1
          },
          "handle_right": {
           "X": 0.5,
           "Y": 0
          },
          "handle_type": 0,
          "interpolation": 0
         }
        ]
       },
       "green": {
        "Points": [
         {
          "co": {
           "X": 1,
           "Y": 123
          },
          "handle_left": {
           "X": 0.5,
           "Y": 1
          },
          "handle_right": {
           "X": 0.5,
           "Y": 0
          },
          "handle_type": 0,
          "interpolation": 0
         }
        ]
       },
       "red": {
        "Points": [
         {
          "co": {
           "X": 1,
           "Y": 0
          },
          "handle_left": {
           "X": 0.5,
           "Y": 1
          },
          "handle_right": {
           "X": 0.5,
           "Y": 0
          },
          "handle_type": 0,
          "interpolation": 0
         }
        ]
       }
      },
      "waveform": false,
      "file_id": "C1BCNGB69H",
      "title": "240_allelulia_give_thanks-1.png"
     }
    ]
   },
   {
    "type": "update",
    "key": [
     "clips",
     {
      "id": "ZARBOHDFSQ"
     }
    ],
    "value": {
     "id": "ZARBOHDFSQ",
     "layer": 6000000,
     "position": 26.33333333333333,
     "start": 0,
     "end": 10
    },
    "partial": false,
    "old_values": {
     "alpha": {
      "Points": [
       {
        "co": {
         "X": 1,
         "Y": 1
        },
        "interpolation": 2
       }
      ]
     },
     "anchor": 0,
     "channel_filter": {
      "Points": [
       {
        "co": {
         "X": 1,
         "Y": -1
        },
        "interpolation": 2
       }
      ]
     },
     "channel_mapping": {
      "Points": [
       {
        "co": {
         "X": 1,
         "Y": -1
        },
        "interpolation": 2
       }
      ]
     },
     "crop_height": {
      "Points": [
       {
        "co": {
         "X": 1,
         "Y": 1
        },
        "interpolation": 2
       }
      ]
     },
     "crop_width": {
      "Points": [
       {
        "co": {
         "X": 1,
         "Y": 1
        },
        "interpolation": 2
       }
      ]
     },
     "crop_x": {
      "Points": [
       {
        "co": {
         "X": 1,
         "Y": 0
        },
        "interpolation": 2
       }
      ]
     },
     "crop_y": {
      "Points": [
       {
        "co": {
         "X": 1,
         "Y": 0
        },
        "interpolation": 2
       }
      ]
     },
     "display": 0,
     "duration": 3600.0,
     "effects": [],
     "end": 10.0,
     "gravity": 4,
     "has_audio": {
      "Points": [
       {
        "co": {
         "X": 1,
         "Y": -1
        },
        "interpolation": 2
       }
      ]
     },
     "has_video": {
      "Points": [
       {
        "co": {
         "X": 1,
         "Y": -1
        },
        "interpolation": 2
       }
      ]
     },
     "id": "ZARBOHDFSQ",
     "layer": 6000000,
     "location_x": {
      "Points": [
       {
        "co": {
         "X": 1,
         "Y": 0
        },
        "interpolation": 2
       }
      ]
     },
     "location_y": {
      "Points": [
       {
        "co": {
         "X": 1,
         "Y": 0
        },
        "interpolation": 2
       }
      ]
     },
     "mixing": 0,
     "perspective_c1_x": {
      "Points": [
       {
        "co": {
         "X": 1,
         "Y": -1
        },
        "interpolation": 2
       }
      ]
     },
     "perspective_c1_y": {
      "Points": [
       {
        "co": {
         "X": 1,
         "Y": -1
        },
        "interpolation": 2
       }
      ]
     },
     "perspective_c2_x": {
      "Points": [
       {
        "co": {
         "X": 1,
         "Y": -1
        },
        "interpolation": 2
       }
      ]
     },
     "perspective_c2_y": {
      "Points": [
       {
        "co": {
         "X": 1,
         "Y": -1
        },
        "interpolation": 2
       }
      ]
     },
     "perspective_c3_x": {
      "Points": [
       {
        "co": {
         "X": 1,
         "Y": -1
        },
        "interpolation": 2
       }
      ]
     },
     "perspective_c3_y": {
      "Points": [
       {
        "co": {
         "X": 1,
         "Y": -1
        },
        "interpolation": 2
       }
      ]
     },
     "perspective_c4_x": {
      "Points": [
       {
        "co": {
         "X": 1,
         "Y": -1
        },
        "interpolation": 2
       }
      ]
     },
     "perspective_c4_y": {
      "Points": [
       {
        "co": {
         "X": 1,
         "Y": -1
        },
        "interpolation": 2
       }
      ]
     },
     "position": 20.25,
     "reader": {
      "acodec": "",
      "audio_bit_rate": 0,
      "audio_stream_index": -1,
      "audio_timebase": {
       "den": 1,
       "num": 1
      },
      "channel_layout": 4,
      "channels": 0,
      "display_ratio": {
       "den": 721,
       "num": 1280
      },
      "duration": 3600.0,
      "file_size": "3691520",
      "fps": {
       "den": 1,
       "num": 30
      },
      "has_audio": false,
      "has_single_image": true,
      "has_video": true,
      "height": 721,
      "interlaced_frame": false,
      "metadata": {},
      "path": "generated/240_allelulia_give_thanks-2.png",
      "pixel_format": -1,
      "pixel_ratio": {
       "den": 1,
       "num": 1
      },
      "sample_rate": 0,
      "top_field_first": true,
      "type": "QtImageReader",
      "vcodec": "",
      "video_bit_rate": 0,
      "video_length": "108000",
      "video_stream_index": -1,
      "video_timebase": {
       "den": 30,
       "num": 1
      },
      "width": 1280
     },
     "rotation": {
      "Points": [
       {
        "co": {
         "X": 1,
         "Y": 0
        },
        "interpolation": 2
       }
      ]
     },
     "scale": 1,
     "scale_x": {
      "Points": [
       {
        "co": {
         "X": 1,
         "Y": 1
        },
        "interpolation": 2
       }
      ]
     },
     "scale_y": {
      "Points": [
       {
        "co": {
         "X": 1,
         "Y": 1
        },
        "interpolation": 2
       }
      ]
     },
     "shear_x": {
      "Points": [
       {
        "co": {
         "X": 1,
         "Y": 0
        },
        "interpolation": 2
       }
      ]
     },
     "shear_y": {
      "Points": [
       {
        "co": {
         "X": 1,
         "Y": 0
        },
        "interpolation": 2
       }
      ]
     },
     "start": 0,
     "time": {
      "Points": [
       {
        "co": {
         "X": 1,
         "Y": 1
        },
        "interpolation": 2
       }
      ]
     },
     "volume": {
      "Points": [
       {
        "co": {
         "X": 1,
         "Y": 1
        },
        "interpolation": 2
       }
      ]
     },
     "wave_color": {
      "alpha": {
       "Points": [
        {
         "co": {
          "X": 1,
          "Y": 255
         },
         "handle_left": {
          "X": 0.5,
          "Y": 1
         },
         "handle_right": {
          "X": 0.5,
          "Y": 0
         },
         "handle_type": 0,
         "interpolation": 0
        }
       ]
      },
      "blue": {
       "Points": [
        {
         "co": {
          "X": 1,
          "Y": 255
         },
         "handle_left": {
          "X": 0.5,
          "Y": 1
         },
         "handle_right": {
          "X": 0.5,
          "Y": 0
         },
         "handle_type": 0,
         "interpolation": 0
        }
       ]
      },
      "green": {
       "Points": [
        {
         "co": {
          "X": 1,
          "Y": 123
         },
         "handle_left": {
          "X": 0.5,
          "Y": 1
         },
         "handle_right": {
          "X": 0.5,
          "Y": 0
         },
         "handle_type": 0,
         "interpolation": 0
        }
       ]
      },
      "red": {
       "Points": [
        {
         "co": {
          "X": 1,
          "Y": 0
         },
         "handle_left": {
          "X": 0.5,
          "Y": 1
         },
         "handle_right": {
          "X": 0.5,
          "Y": 0
         },
         "handle_type": 0,
         "interpolation": 0
        }
       ]
      }
     },
     "waveform": false,
     "file_id": "03J93H2INZ",
     "title": "240_allelulia_give_thanks-2.png"
    }
   },
   {
    "type": "insert",
    "key": [
     "effects"
    ],
    "value": {
     "id": "KRJQ2LSCZM",
     "layer": 6000000,
     "title": "Transition",
     "type": "Mask",
     "position": 26.33333333333333,
     "start": 0,
     "end": 2.5833333333333393,
     "brightness": {
      "Points": [
       {
        "co": {
         "X": 1,
         "Y": 1
        },
        "handle_left": {
         "X": 0.5,
         "Y": 1
        },
        "handle_right": {
         "X": 0.5,
         "Y": 0
        },
        "handle_type": 0,
        "interpolation": 0
       },
       {
        "co": {
         "X": 63,
         "Y": -1
        },
        "handle_left": {
         "X": 0.5,
         "Y": 1
        },
        "handle_right": {
         "X": 0.5,
         "Y": 0
        },
        "handle_type": 0,
        "interpolation": 0
       }
      ]
     },
     "contrast": {
      "Points": [
       {
        "co": {
         "X": 1,
         "Y": 3
        },
        "interpolation": 2
       }
      ]
     },
     "reader": {
      "acodec": "",
      "audio_bit_rate": 0,
      "audio_stream_index": -1,
      "audio_timebase": {
       "den": 1,
       "num": 1
      },
      "channel_layout": 4,
      "channels": 0,
      "display_ratio": {
       "den": 4,
       "num": 5
      },
      "duration": 3600,
      "file_size": "1658880",
      "fps": {
       "den": 1,
       "num": 30
      },
      "has_audio": false,
      "has_single_image": true,
      "has_video": true,
      "height": 576,
      "interlaced_frame": false,
      "metadata": {},
      "path": "@transitions/common/fade.svg",
      "pixel_format": -1,
      "pixel_ratio": {
       "den": 1,
       "num": 1
      },
      "sample_rate": 0,
      "top_field_first": true,
      "type": "QtImageReader",
      "vcodec": "",
      "video_bit_rate": 0,
      "video_length": "108000",
      "video_stream_index": -1,
      "video_timebase": {
       "den": 30,
       "num": 1
      },
      "width": 720
     },
     "replace_image": false
    },
    "partial": false,
    "old_values": []
   },
   {
    "type": "update",
    "key": [
     "clips",
     {
      "id": "ZARBOHDFSQ"
     }
    ],
    "value": {
     "id": "ZARBOHDFSQ",
     "layer": 6000000,
     "position": 26.33333333333333,
     "start": 0,
     "end": 27.25
    },
    "partial": false,
    "old_values": {
     "alpha": {
      "Points": [
       {
        "co": {
         "X": 1,
         "Y": 1
        },
        "interpolation": 2
       }
      ]
     },
     "anchor": 0,
     "channel_filter": {
      "Points": [
       {
        "co": {
         "X": 1,
         "Y": -1
        },
        "interpolation": 2
       }
      ]
     },
     "channel_mapping": {
      "Points": [
       {
        "co": {
         "X": 1,
         "Y": -1
        },
        "interpolation": 2
       }
      ]
     },
     "crop_height": {
      "Points": [
       {
        "co": {
         "X": 1,
         "Y": 1
        },
        "interpolation": 2
       }
      ]
     },
     "crop_width": {
      "Points": [
       {
        "co": {
         "X": 1,
         "Y": 1
        },
        "interpolation": 2
       }
      ]
     },
     "crop_x": {
      "Points": [
       {
        "co": {
         "X": 1,
         "Y": 0
        },
        "interpolation": 2
       }
      ]
     },
     "crop_y": {
      "Points": [
       {
        "co": {
         "X": 1,
         "Y": 0
        },
        "interpolation": 2
       }
      ]
     },
     "display": 0,
     "duration": 3600.0,
     "effects": [],
     "end": 10,
     "gravity": 4,
     "has_audio": {
      "Points": [
       {
        "co": {
         "X": 1,
         "Y": -1
        },
        "interpolation": 2
       }
      ]
     },
     "has_video": {
      "Points": [
       {
        "co": {
         "X": 1,
         "Y": -1
        },
        "interpolation": 2
       }
      ]
     },
     "id": "ZARBOHDFSQ",
     "layer": 6000000,
     "location_x": {
      "Points": [
       {
        "co": {
         "X": 1,
         "Y": 0
        },
        "interpolation": 2
       }
      ]
     },
     "location_y": {
      "Points": [
       {
        "co": {
         "X": 1,
         "Y": 0
        },
        "interpolation": 2
       }
      ]
     },
     "mixing": 0,
     "perspective_c1_x": {
      "Points": [
       {
        "co": {
         "X": 1,
         "Y": -1
        },
        "interpolation": 2
       }
      ]
     },
     "perspective_c1_y": {
      "Points": [
       {
        "co": {
         "X": 1,
         "Y": -1
        },
        "interpolation": 2
       }
      ]
     },
     "perspective_c2_x": {
      "Points": [
       {
        "co": {
         "X": 1,
         "Y": -1
        },
        "interpolation": 2
       }
      ]
     },
     "perspective_c2_y": {
      "Points": [
       {
        "co": {
         "X": 1,
         "Y": -1
        },
        "interpolation": 2
       }
      ]
     },
     "perspective_c3_x": {
      "Points": [
       {
        "co": {
         "X": 1,
         "Y": -1
        },
        "interpolation": 2
       }
      ]
     },
     "perspective_c3_y": {
      "Points": [
       {
        "co": {
         "X": 1,
         "Y": -1
        },
        "interpolation": 2
       }
      ]
     },
     "perspective_c4_x": {
      "Points": [
       {
        "co": {
         "X": 1,
         "Y": -1
        },
        "interpolation": 2
       }
      ]
     },
     "perspective_c4_y": {
      "Points": [
       {
        "co": {
         "X": 1,
         "Y": -1
        },
        "interpolation": 2
       }
      ]
     },
     "position": 26.33333333333333,
     "reader": {
      "acodec": "",
      "audio_bit_rate": 0,
      "audio_stream_index": -1,
      "audio_timebase": {
       "den": 1,
       "num": 1
      },
      "channel_layout": 4,
      "channels": 0,
      "display_ratio": {
       "den": 721,
       "num": 1280
      },
      "duration": 3600.0,
      "file_size": "3691520",
      "fps": {
       "den": 1,
       "num": 30
      },
      "has_audio": false,
      "has_single_image": true,
      "has_video": true,
      "height": 721,
      "interlaced_frame": false,
      "metadata": {},
      "path": "generated/240_allelulia_give_thanks-2.png",
      "pixel_format": -1,
      "pixel_ratio": {
       "den": 1,
       "num": 1
      },
      "sample_rate": 0,
      "top_field_first": true,
      "type": "QtImageReader",
      "vcodec": "",
      "video_bit_rate": 0,
      "video_length": "108000",
      "video_stream_index": -1,
      "video_timebase": {
       "den": 30,
       "num": 1
      },
      "width": 1280
     },
     "rotation": {
      "Points": [
       {
        "co": {
         "X": 1,
         "Y": 0
        },
        "interpolation": 2
       }
      ]
     },
     "scale": 1,
     "scale_x": {
      "Points": [
       {
        "co": {
         "X": 1,
         "Y": 1
        },
        "interpolation": 2
       }
      ]
     },
     "scale_y": {
      "Points": [
       {
        "co": {
         "X": 1,
         "Y": 1
        },
        "interpolation": 2
       }
      ]
     },
     "shear_x": {
      "Points": [
       {
        "co": {
         "X": 1,
         "Y": 0
        },
        "interpolation": 2
       }
      ]
     },
     "shear_y": {
      "Points": [
       {
        "co": {
         "X": 1,
         "Y": 0
        },
        "interpolation": 2
       }
      ]
     },
     "start": 0,
     "time": {
      "Points": [
       {
        "co": {
         "X": 1,
         "Y": 1
        },
        "interpolation": 2
       }
      ]
     },
     "volume": {
      "Points": [
       {
        "co": {
         "X": 1,
         "Y": 1
        },
        "interpolation": 2
       }
      ]
     },
     "wave_color": {
      "alpha": {
       "Points": [
        {
         "co": {
          "X": 1,
          "Y": 255
         },
         "handle_left": {
          "X": 0.5,
          "Y": 1
         },
         "handle_right": {
          "X": 0.5,
          "Y": 0
         },
         "handle_type": 0,
         "interpolation": 0
        }
       ]
      },
      "blue": {
       "Points": [
        {
         "co": {
          "X": 1,
          "Y": 255
         },
         "handle_left": {
          "X": 0.5,
          "Y": 1
         },
         "handle_right": {
          "X": 0.5,
          "Y": 0
         },
         "handle_type": 0,
         "interpolation": 0
        }
       ]
      },
      "green": {
       "Points": [
        {
         "co": {
          "X": 1,
          "Y": 123
         },
         "handle_left": {
          "X": 0.5,
          "Y": 1
         },
         "handle_right": {
          "X": 0.5,
          "Y": 0
         },
         "handle_type": 0,
         "interpolation": 0
        }
       ]
      },
      "red": {
       "Points": [
        {
         "co": {
          "X": 1,
          "Y": 0
         },
         "handle_left": {
          "X": 0.5,
          "Y": 1
         },
         "handle_right": {
          "X": 0.5,
          "Y": 0
         },
         "handle_type": 0,
         "interpolation": 0
        }
       ]
      }
     },
     "waveform": false,
     "file_id": "03J93H2INZ",
     "title": "240_allelulia_give_thanks-2.png"
    }
   },
   {
    "type": "insert",
    "key": [
     "clips"
    ],
    "value": {
     "alpha": {
      "Points": [
       {
        "co": {
         "X": 1,
         "Y": 1
        },
        "interpolation": 2
       }
      ]
     },
     "anchor": 0,
     "channel_filter": {
      "Points": [
       {
        "co": {
         "X": 1,
         "Y": -1
        },
        "interpolation": 2
       }
      ]
     },
     "channel_mapping": {
      "Points": [
       {
        "co": {
         "X": 1,
         "Y": -1
        },
        "interpolation": 2
       }
      ]
     },
     "crop_height": {
      "Points": [
       {
        "co": {
         "X": 1,
         "Y": 1
        },
        "interpolation": 2
       }
      ]
     },
     "crop_width": {
      "Points": [
       {
        "co": {
         "X": 1,
         "Y": 1
        },
        "interpolation": 2
       }
      ]
     },
     "crop_x": {
      "Points": [
       {
        "co": {
         "X": 1,
         "Y": 0
        },
        "interpolation": 2
       }
      ]
     },
     "crop_y": {
      "Points": [
       {
        "co": {
         "X": 1,
         "Y": 0
        },
        "interpolation": 2
       }
      ]
     },
     "display": 0,
     "duration": 3600.0,
     "effects": [],
     "end": 29.5,
     "gravity": 4,
     "has_audio": {
      "Points": [
       {
        "co": {
         "X": 1,
         "Y": -1
        },
        "interpolation": 2
       }
      ]
     },
     "has_video": {
      "Points": [
       {
        "co": {
         "X": 1,
         "Y": -1
        },
        "interpolation": 2
       }
      ]
     },
     "id": "ZHZA9ZA36U",
     "layer": 6000000,
     "location_x": {
      "Points": [
       {
        "co": {
         "X": 1,
         "Y": 0
        },
        "interpolation": 2
       }
      ]
     },
     "location_y": {
      "Points": [
       {
        "co": {
         "X": 1,
         "Y": 0
        },
        "interpolation": 2
       }
      ]
     },
     "mixing": 0,
     "perspective_c1_x": {
      "Points": [
       {
        "co": {
         "X": 1,
         "Y": -1
        },
        "interpolation": 2
       }
      ]
     },
     "perspective_c1_y": {
      "Points": [
       {
        "co": {
         "X": 1,
         "Y": -1
        },
        "interpolation": 2
       }
      ]
     },
     "perspective_c2_x": {
      "Points": [
       {
        "co": {
         "X": 1,
         "Y": -1
        },
        "interpolation": 2
       }
      ]
     },
     "perspective_c2_y": {
      "Points": [
       {
        "co": {
         "X": 1,
         "Y": -1
        },
        "interpolation": 2
       }
      ]
     },
     "perspective_c3_x": {
      "Points": [
       {
        "co": {
         "X": 1,
         "Y": -1
        },
        "interpolation": 2
       }
      ]
     },
     "perspective_c3_y": {
      "Points": [
       {
        "co": {
         "X": 1,
         "Y": -1
        },
        "interpolation": 2
       }
      ]
     },
     "perspective_c4_x": {
      "Points": [
       {
        "co": {
         "X": 1,
         "Y": -1
        },
        "interpolation": 2
       }
      ]
     },
     "perspective_c4_y": {
      "Points": [
       {
        "co": {
         "X": 1,
         "Y": -1
        },
        "interpolation": 2
       }
      ]
     },
     "position": 50.849999999999994,
     "reader": {
      "acodec": "",
      "audio_bit_rate": 0,
      "audio_stream_index": -1,
      "audio_timebase": {
       "den": 1,
       "num": 1
      },
      "channel_layout": 4,
      "channels": 0,
      "display_ratio": {
       "den": 721,
       "num": 1280
      },
      "duration": 3600.0,
      "file_size": "3691520",
      "fps": {
       "den": 1,
       "num": 30
      },
      "has_audio": false,
      "has_single_image": true,
      "has_video": true,
      "height": 721,
      "interlaced_frame": false,
      "metadata": {},
      "path": "generated/240_allelulia_give_thanks-3.png",
      "pixel_format": -1,
      "pixel_ratio": {
       "den": 1,
       "num": 1
      },
      "sample_rate": 0,
      "top_field_first": true,
      "type": "QtImageReader",
      "vcodec": "",
      "video_bit_rate": 0,
      "video_length": "108000",
      "video_stream_index": -1,
      "video_timebase": {
       "den": 30,
       "num": 1
      },
      "width": 1280
     },
     "rotation": {
      "Points": [
       {
        "co": {
         "X": 1,
         "Y": 0
        },
        "interpolation": 2
       }
      ]
     },
     "scale": 1,
     "scale_x": {
      "Points": [
       {
        "co": {
         "X": 1,
         "Y": 1
        },
        "interpolation": 2
       }
      ]
     },
     "scale_y": {
      "Points": [
       {
        "co": {
         "X": 1,
         "Y": 1
        },
        "interpolation": 2
       }
      ]
     },
     "shear_x": {
      "Points": [
       {
        "co": {
         "X": 1,
         "Y": 0
        },
        "interpolation": 2
       }
      ]
     },
     "shear_y": {
      "Points": [
       {
        "co": {
         "X": 1,
         "Y": 0
        },
        "interpolation": 2
       }
      ]
     },
     "start": 0,
     "time": {
      "Points": [
       {
        "co": {
         "X": 1,
         "Y": 1
        },
        "interpolation": 2
       }
      ]
     },
     "volume": {
      "Points": [
       {
        "co": {
         "X": 1,
         "Y": 1
        },
        "interpolation": 2
       }
      ]
     },
     "wave_color": {
      "alpha": {
       "Points": [
        {
         "co": {
          "X": 1,
          "Y": 255
         },
         "handle_left": {
          "X": 0.5,
          "Y": 1
         },
         "handle_right": {
          "X": 0.5,
          "Y": 0
         },
         "handle_type": 0,
         "interpolation": 0
        }
       ]
      },
      "blue": {
       "Points": [
        {
         "co": {
          "X": 1,
          "Y": 255
         },
         "handle_left": {
          "X": 0.5,
          "Y": 1
         },
         "handle_right": {
          "X": 0.5,
          "Y": 0
         },
         "handle_type": 0,
         "interpolation": 0
        }
       ]
      },
      "green": {
       "Points": [
        {
         "co": {
          "X": 1,
          "Y": 123
         },
         "handle_left": {
          "X": 0.5,
          "Y": 1
         },
         "handle_right": {
          "X": 0.5,
          "Y": 0
         },
         "handle_type": 0,
         "interpolation": 0
        }
       ]
      },
      "red": {
       "Points": [
        {
         "co": {
          "X": 1,
          "Y": 0
         },
         "handle_left": {
          "X": 0.5,
          "Y": 1
         },
         "handle_right": {
          "X": 0.5,
          "Y": 0
         },
         "handle_type": 0,
         "interpolation": 0
        }
       ]
      }
     },
     "waveform": false,
     "file_id": "5VAPZ0XAUP",
     "title": "240_allelulia_give_thanks-3.png"
    },
    "partial": false,
    "old_values": [
     {
      "alpha": {
       "Points": [
        {
         "co": {
          "X": 1,
          "Y": 1
         },
         "interpolation": 2
        }
       ]
      },
      "anchor": 0,
      "channel_filter": {
       "Points": [
        {
         "co": {
          "X": 1,
          "Y": -1
         },
         "interpolation": 2
        }
       ]
      },
      "channel_mapping": {
       "Points": [
        {
         "co": {
          "X": 1,
          "Y": -1
         },
         "interpolation": 2
        }
       ]
      },
      "crop_height": {
       "Points": [
        {
         "co": {
          "X": 1,
          "Y": 1
         },
         "interpolation": 2
        }
       ]
      },
      "crop_width": {
       "Points": [
        {
         "co": {
          "X": 1,
          "Y": 1
         },
         "interpolation": 2
        }
       ]
      },
      "crop_x": {
       "Points": [
        {
         "co": {
          "X": 1,
          "Y": 0
         },
         "interpolation": 2
        }
       ]
      },
      "crop_y": {
       "Points": [
        {
         "co": {
          "X": 1,
          "Y": 0
         },
         "interpolation": 2
        }
       ]
      },
      "display": 0,
      "duration": 138.710205078125,
      "effects": [],
      "end": 138.710205078125,
      "gravity": 4,
      "has_audio": {
       "Points": [
        {
         "co": {
          "X": 1,
          "Y": -1
         },
         "interpolation": 2
        }
       ]
      },
      "has_video": {
       "Points": [
        {
         "co": {
          "X": 1,
          "Y": -1
         },
         "interpolation": 2
        }
       ]
      },
      "id": "ASHR3UX8IY",
      "layer": 5000000,
      "location_x": {
       "Points": [
        {
         "co": {
          "X": 1,
          "Y": 0
         },
         "interpolation": 2
        }
       ]
      },
      "location_y": {
       "Points": [
        {
         "co": {
          "X": 1,
          "Y": 0
         },
         "interpolation": 2
        }
       ]
      },
      "mixing": 0,
      "perspective_c1_x": {
       "Points": [
        {
         "co": {
          "X": 1,
          "Y": -1
         },
         "interpolation": 2
        }
       ]
      },
      "perspective_c1_y": {
       "Points": [
        {
         "co": {
          "X": 1,
          "Y": -1
         },
         "interpolation": 2
        }
       ]
      },
      "perspective_c2_x": {
       "Points": [
        {
         "co": {
          "X": 1,
          "Y": -1
         },
         "interpolation": 2
        }
       ]
      },
      "perspective_c2_y": {
       "Points": [
        {
         "co": {
          "X": 1,
          "Y": -1
         },
         "interpolation": 2
        }
       ]
      },
      "perspective_c3_x": {
       "Points": [
        {
         "co": {
          "X": 1,
          "Y": -1
         },
         "interpolation": 2
        }
       ]
      },
      "perspective_c3_y": {
       "Points": [
        {
         "co": {
          "X": 1,
          "Y": -1
         },
         "interpolation": 2
        }
       ]
      },
      "perspective_c4_x": {
       "Points": [
        {
         "co": {
          "X": 1,
          "Y": -1
         },
         "interpolation": 2
        }
       ]
      },
      "perspective_c4_y": {
       "Points": [
        {
         "co": {
          "X": 1,
          "Y": -1
         },
         "interpolation": 2
        }
       ]
      },
      "position": 0,
      "reader": {
       "acodec": "mp3float",
       "audio_bit_rate": 179292,
       "audio_stream_index": 0,
       "audio_timebase": {
        "den": 14112000,
        "num": 1
       },
       "channel_layout": 3,
       "channels": 2,
       "display_ratio": {
        "den": 1,
        "num": 1
       },
       "duration": 138.710205078125,
       "file_size": "3108707",
       "fps": {
        "den": 1,
        "num": 24
       },
       "has_audio": true,
       "has_single_image": false,
       "has_video": false,
       "height": 480,
       "interlaced_frame": false,
       "metadata": {
        "encoder": "LAME3.100"
       },
       "path": "./240 Alleluia Alleluia with Singers.mp3",
       "pixel_format": -1,
       "pixel_ratio": {
        "den": 1,
        "num": 1
       },
       "sample_rate": 44100,
       "top_field_first": true,
       "type": "FFmpegReader",
       "vcodec": "",
       "video_bit_rate": 0,
       "video_length": "3329",
       "video_stream_index": -1,
       "video_timebase": {
        "den": 24,
        "num": 1
       },
       "width": 720
      },
      "rotation": {
       "Points": [
        {
         "co": {
          "X": 1,
          "Y": 0
         },
         "interpolation": 2
        }
       ]
      },
      "scale": 1,
      "scale_x": {
       "Points": [
        {
         "co": {
          "X": 1,
          "Y": 1
         },
         "interpolation": 2
        }
       ]
      },
      "scale_y": {
       "Points": [
        {
         "co": {
          "X": 1,
          "Y": 1
         },
         "interpolation": 2
        }
       ]
      },
      "shear_x": {
       "Points": [
        {
         "co": {
          "X": 1,
          "Y": 0
         },
         "interpolation": 2
        }
       ]
      },
      "shear_y": {
       "Points": [
        {
         "co": {
          "X": 1,
          "Y": 0
         },
         "interpolation": 2
        }
       ]
      },
      "start": 0,
      "time": {
       "Points": [
        {
         "co": {
          "X": 1,
          "Y": 1
         },
         "interpolation": 2
        }
       ]
      },
      "volume": {
       "Points": [
        {
         "co": {
          "X": 1,
          "Y": 1
         },
         "interpolation": 2
        }
       ]
      },
      "wave_color": {
       "alpha": {
        "Points": [
         {
          "co": {
           "X": 1,
           "Y": 255
          },
          "handle_left": {
           "X": 0.5,
           "Y": 1
          },
          "handle_right": {
           "X": 0.5,
           "Y": 0
          },
          "handle_type": 0,
          "interpolation": 0
         }
        ]
       },
       "blue": {
        "Points": [
         {
          "co": {
           "X": 1,
           "Y": 255
          },
          "handle_left": {
           "X": 0.5,
           "Y": 1
          },
          "handle_right": {
           "X": 0.5,
           "Y": 0
          },
          "handle_type": 0,
          "interpolation": 0
         }
        ]
       },
       "green": {
        "Points": [
         {
          "co": {
           "X": 1,
           "Y": 123
          },
          "handle_left": {
           "X": 0.5,
           "Y": 1
          },
          "handle_right": {
           "X": 0.5,
           "Y": 0
          },
          "handle_type": 0,
          "interpolation": 0
         }
        ]
       },
       "red": {
        "Points": [
         {
          "co": {
           "X": 1,
           "Y": 0
          },
          "handle_left": {
           "X": 0.5,
           "Y": 1
          },
          "handle_right": {
           "X": 0.5,
           "Y": 0
          },
          "handle_type": 0,
          "interpolation": 0
         }
        ]
       }
      },
      "waveform": false,
      "file_id": "XGTGN70GJK",
      "title": "240 Alleluia Alleluia with Singers.mp3"
     },
     {
      "alpha": {
       "Points": [
        {
         "co": {
          "X": 1,
          "Y": 1
         },
         "interpolation": 2
        }
       ]
      },
      "anchor": 0,
      "channel_filter": {
       "Points": [
        {
         "co": {
          "X": 1,
          "Y": -1
         },
         "interpolation": 2
        }
       ]
      },
      "channel_mapping": {
       "Points": [
        {
         "co": {
          "X": 1,
          "Y": -1
         },
         "interpolation": 2
        }
       ]
      },
      "crop_height": {
       "Points": [
        {
         "co": {
          "X": 1,
          "Y": 1
         },
         "interpolation": 2
        }
       ]
      },
      "crop_width": {
       "Points": [
        {
         "co": {
          "X": 1,
          "Y": 1
         },
         "interpolation": 2
        }
       ]
      },
      "crop_x": {
       "Points": [
        {
         "co": {
          "X": 1,
          "Y": 0
         },
         "interpolation": 2
        }
       ]
      },
      "crop_y": {
       "Points": [
        {
         "co": {
          "X": 1,
          "Y": 0
         },
         "interpolation": 2
        }
       ]
      },
      "display": 0,
      "duration": 3600.0,
      "effects": [],
      "end": 28.916666666666668,
      "gravity": 4,
      "has_audio": {
       "Points": [
        {
         "co": {
          "X": 1,
          "Y": -1
         },
         "interpolation": 2
        }
       ]
      },
      "has_video": {
       "Points": [
        {
         "co": {
          "X": 1,
          "Y": -1
         },
         "interpolation": 2
        }
       ]
      },
      "id": "H10WKM1J0R",
      "layer": 6000000,
      "location_x": {
       "Points": [
        {
         "co": {
          "X": 1,
          "Y": 0
         },
         "interpolation": 2
        }
       ]
      },
      "location_y": {
       "Points": [
        {
         "co": {
          "X": 1,
          "Y": 0
         },
         "interpolation": 2
        }
       ]
      },
      "mixing": 0,
      "perspective_c1_x": {
       "Points": [
        {
         "co": {
          "X": 1,
          "Y": -1
         },
         "interpolation": 2
        }
       ]
      },
      "perspective_c1_y": {
       "Points": [
        {
         "co": {
          "X": 1,
          "Y": -1
         },
         "interpolation": 2
        }
       ]
      },
      "perspective_c2_x": {
       "Points": [
        {
         "co": {
          "X": 1,
          "Y": -1
         },
         "interpolation": 2
        }
       ]
      },
      "perspective_c2_y": {
       "Points": [
        {
         "co": {
          "X": 1,
          "Y": -1
         },
         "interpolation": 2
        }
       ]
      },
      "perspective_c3_x": {
       "Points": [
        {
         "co": {
          "X": 1,
          "Y": -1
         },
         "interpolation": 2
        }
       ]
      },
      "perspective_c3_y": {
       "Points": [
        {
         "co": {
          "X": 1,
          "Y": -1
         },
         "interpolation": 2
        }
       ]
      },
      "perspective_c4_x": {
       "Points": [
        {
         "co": {
          "X": 1,
          "Y": -1
         },
         "interpolation": 2
        }
       ]
      },
      "perspective_c4_y": {
       "Points": [
        {
         "co": {
          "X": 1,
          "Y": -1
         },
         "interpolation": 2
        }
       ]
      },
      "position": 0,
      "reader": {
       "acodec": "",
       "audio_bit_rate": 0,
       "audio_stream_index": -1,
       "audio_timebase": {
        "den": 1,
        "num": 1
       },
       "channel_layout": 4,
       "channels": 0,
       "display_ratio": {
        "den": 721,
        "num": 1280
       },
       "duration": 3600.0,
       "file_size": "3691520",
       "fps": {
        "den": 1,
        "num": 30
       },
       "has_audio": false,
       "has_single_image": true,
       "has_video": true,
       "height": 721,
       "interlaced_frame": false,
       "metadata": {},
       "path": "generated/240_allelulia_give_thanks-1.png",
       "pixel_format": -1,
       "pixel_ratio": {
        "den": 1,
        "num": 1
       },
       "sample_rate": 0,
       "top_field_first": true,
       "type": "QtImageReader",
       "vcodec": "",
       "video_bit_rate": 0,
       "video_length": "108000",
       "video_stream_index": -1,
       "video_timebase": {
        "den": 30,
        "num": 1
       },
       "width": 1280
      },
      "rotation": {
       "Points": [
        {
         "co": {
          "X": 1,
          "Y": 0
         },
         "interpolation": 2
        }
       ]
      },
      "scale": 1,
      "scale_x": {
       "Points": [
        {
         "co": {
          "X": 1,
          "Y": 1
         },
         "interpolation": 2
        }
       ]
      },
      "scale_y": {
       "Points": [
        {
         "co": {
          "X": 1,
          "Y": 1
         },
         "interpolation": 2
        }
       ]
      },
      "shear_x": {
       "Points": [
        {
         "co": {
          "X": 1,
          "Y": 0
         },
         "interpolation": 2
        }
       ]
      },
      "shear_y": {
       "Points": [
        {
         "co": {
          "X": 1,
          "Y": 0
         },
         "interpolation": 2
        }
       ]
      },
      "start": 0,
      "time": {
       "Points": [
        {
         "co": {
          "X": 1,
          "Y": 1
         },
         "interpolation": 2
        }
       ]
      },
      "volume": {
       "Points": [
        {
         "co": {
          "X": 1,
          "Y": 1
         },
         "interpolation": 2
        }
       ]
      },
      "wave_color": {
       "alpha": {
        "Points": [
         {
          "co": {
           "X": 1,
           "Y": 255
          },
          "handle_left": {
           "X": 0.5,
           "Y": 1
          },
          "handle_right": {
           "X": 0.5,
           "Y": 0
          },
          "handle_type": 0,
          "interpolation": 0
         }
        ]
       },
       "blue": {
        "Points": [
         {
          "co": {
           "X": 1,
           "Y": 255
          },
          "handle_left": {
           "X": 0.5,
           "Y": 1
          },
          "handle_right": {
           "X": 0.5,
           "Y": 0
          },
          "handle_type": 0,
          "interpolation": 0
         }
        ]
       },
       "green": {
        "Points": [
         {
          "co": {
           "X": 1,
           "Y": 123
          },
          "handle_left": {
           "X": 0.5,
           "Y": 1
          },
          "handle_right": {
           "X": 0.5,
           "Y": 0
          },
          "handle_type": 0,
          "interpolation": 0
         }
        ]
       },
       "red": {
        "Points": [
         {
          "co": {
           "X": 1,
           "Y": 0
          },
          "handle_left": {
           "X": 0.5,
           "Y": 1
          },
          "handle_right": {
           "X": 0.5,
           "Y": 0
          },
          "handle_type": 0,
          "interpolation": 0
         }
        ]
       }
      },
      "waveform": false,
      "file_id": "C1BCNGB69H",
      "title": "240_allelulia_give_thanks-1.png"
     },
     {
      "alpha": {
       "Points": [
        {
         "co": {
          "X": 1,
          "Y": 1
         },
         "interpolation": 2
        }
       ]
      },
      "anchor": 0,
      "channel_filter": {
       "Points": [
        {
         "co": {
          "X": 1,
          "Y": -1
         },
         "interpolation": 2
        }
       ]
      },
      "channel_mapping": {
       "Points": [
        {
         "co": {
          "X": 1,
          "Y": -1
         },
         "interpolation": 2
        }
       ]
      },
      "crop_height": {
       "Points": [
        {
         "co": {
          "X": 1,
          "Y": 1
         },
         "interpolation": 2
        }
       ]
      },
      "crop_width": {
       "Points": [
        {
         "co": {
          "X": 1,
          "Y": 1
         },
         "interpolation": 2
        }
       ]
      },
      "crop_x": {
       "Points": [
        {
         "co": {
          "X": 1,
          "Y": 0
         },
         "interpolation": 2
        }
       ]
      },
      "crop_y": {
       "Points": [
        {
         "co": {
          "X": 1,
          "Y": 0
         },
         "interpolation": 2
        }
       ]
      },
      "display": 0,
      "duration": 3600.0,
      "effects": [],
      "end": 27.25,
      "gravity": 4,
      "has_audio": {
       "Points": [
        {
         "co": {
          "X": 1,
          "Y": -1
         },
         "interpolation": 2
        }
       ]
      },
      "has_video": {
       "Points": [
        {
         "co": {
          "X": 1,
          "Y": -1
         },
         "interpolation": 2
        }
       ]
      },
      "id": "ZARBOHDFSQ",
      "layer": 6000000,
      "location_x": {
       "Points": [
        {
         "co": {
          "X": 1,
          "Y": 0
         },
         "interpolation": 2
        }
       ]
      },
      "location_y": {
       "Points": [
        {
         "co": {
          "X": 1,
          "Y": 0
         },
         "interpolation": 2
        }
       ]
      },
      "mixing": 0,
      "perspective_c1_x": {
       "Points": [
        {
         "co": {
          "X": 1,
          "Y": -1
         },
         "interpolation": 2
        }
       ]
      },
      "perspective_c1_y": {
       "Points": [
        {
         "co": {
          "X": 1,
          "Y": -1
         },
         "interpolation": 2
        }
       ]
      },
      "perspective_c2_x": {
       "Points": [
        {
         "co": {
          "X": 1,
          "Y": -1
         },
         "interpolation": 2
        }
       ]
      },
      "perspective_c2_y": {
       "Points": [
        {
         "co": {
          "X": 1,
          "Y": -1
         },
         "interpolation": 2
        }
       ]
      },
      "perspective_c3_x": {
       "Points": [
        {
         "co": {
          "X": 1,
          "Y": -1
         },
         "interpolation": 2
        }
       ]
      },
      "perspective_c3_y": {
       "Points": [
        {
         "co": {
          "X": 1,
          "Y": -1
         },
         "interpolation": 2
        }
       ]
      },
      "perspective_c4_x": {
       "Points": [
        {
         "co": {
          "X": 1,
          "Y": -1
         },
         "interpolation": 2
        }
       ]
      },
      "perspective_c4_y": {
       "Points": [
        {
         "co": {
          "X": 1,
          "Y": -1
         },
         "interpolation": 2
        }
       ]
      },
      "position": 26.33333333333333,
      "reader": {
       "acodec": "",
       "audio_bit_rate": 0,
       "audio_stream_index": -1,
       "audio_timebase": {
        "den": 1,
        "num": 1
       },
       "channel_layout": 4,
       "channels": 0,
       "display_ratio": {
        "den": 721,
        "num": 1280
       },
       "duration": 3600.0,
       "file_size": "3691520",
       "fps": {
        "den": 1,
        "num": 30
       },
       "has_audio": false,
       "has_single_image": true,
       "has_video": true,
       "height": 721,
       "interlaced_frame": false,
       "metadata": {},
       "path": "generated/240_allelulia_give_thanks-2.png",
       "pixel_format": -1,
       "pixel_ratio": {
        "den": 1,
        "num": 1
       },
       "sample_rate": 0,
       "top_field_first": true,
       "type": "QtImageReader",
       "vcodec": "",
       "video_bit_rate": 0,
       "video_length": "108000",
       "video_stream_index": -1,
       "video_timebase": {
        "den": 30,
        "num": 1
       },
       "width": 1280
      },
      "rotation": {
       "Points": [
        {
         "co": {
          "X": 1,
          "Y": 0
         },
         "interpolation": 2
        }
       ]
      },
      "scale": 1,
      "scale_x": {
       "Points": [
        {
         "co": {
          "X": 1,
          "Y": 1
         },
         "interpolation": 2
        }
       ]
      },
      "scale_y": {
       "Points": [
        {
         "co": {
          "X": 1,
          "Y": 1
         },
         "interpolation": 2
        }
       ]
      },
      "shear_x": {
       "Points": [
        {
         "co": {
          "X": 1,
          "Y": 0
         },
         "interpolation": 2
        }
       ]
      },
      "shear_y": {
       "Points": [
        {
         "co": {
          "X": 1,
          "Y": 0
         },
         "interpolation": 2
        }
       ]
      },
      "start": 0,
      "time": {
       "Points": [
        {
         "co": {
          "X": 1,
          "Y": 1
         },
         "interpolation": 2
        }
       ]
      },
      "volume": {
       "Points": [
        {
         "co": {
          "X": 1,
          "Y": 1
         },
         "interpolation": 2
        }
       ]
      },
      "wave_color": {
       "alpha": {
        "Points": [
         {
          "co": {
           "X": 1,
           "Y": 255
          },
          "handle_left": {
           "X": 0.5,
           "Y": 1
          },
          "handle_right": {
           "X": 0.5,
           "Y": 0
          },
          "handle_type": 0,
          "interpolation": 0
         }
        ]
       },
       "blue": {
        "Points": [
         {
          "co": {
           "X": 1,
           "Y": 255
          },
          "handle_left": {
           "X": 0.5,
           "Y": 1
          },
          "handle_right": {
           "X": 0.5,
           "Y": 0
          },
          "handle_type": 0,
          "interpolation": 0
         }
        ]
       },
       "green": {
        "Points": [
         {
          "co": {
           "X": 1,
           "Y": 123
          },
          "handle_left": {
           "X": 0.5,
           "Y": 1
          },
          "handle_right": {
           "X": 0.5,
           "Y": 0
          },
          "handle_type": 0,
          "interpolation": 0
         }
        ]
       },
       "red": {
        "Points": [
         {
          "co": {
           "X": 1,
           "Y": 0
          },
          "handle_left": {
           "X": 0.5,
           "Y": 1
          },
          "handle_right": {
           "X": 0.5,
           "Y": 0
          },
          "handle_type": 0,
          "interpolation": 0
         }
        ]
       }
      },
      "waveform": false,
      "file_id": "03J93H2INZ",
      "title": "240_allelulia_give_thanks-2.png"
     }
    ]
   },
   {
    "type": "update",
    "key": [
     "clips",
     {
      "id": "ZHZA9ZA36U"
     }
    ],
    "value": {
     "id": "ZHZA9ZA36U",
     "layer": 6000000,
     "position": 50.849999999999994,
     "start": 0,
     "end": 10
    },
    "partial": false,
    "old_values": {
     "alpha": {
      "Points": [
       {
        "co": {
         "X": 1,
         "Y": 1
        },
        "interpolation": 2
       }
      ]
     },
     "anchor": 0,
     "channel_filter": {
      "Points": [
       {
        "co": {
         "X": 1,
         "Y": -1
        },
        "interpolation": 2
       }
      ]
     },
     "channel_mapping": {
      "Points": [
       {
        "co": {
         "X": 1,
         "Y": -1
        },
        "interpolation": 2
       }
      ]
     },
     "crop_height": {
      "Points": [
       {
        "co": {
         "X": 1,
         "Y": 1
        },
        "interpolation": 2
       }
      ]
     },
     "crop_width": {
      "Points": [
       {
        "co": {
         "X": 1,
         "Y": 1
        },
        "interpolation": 2
       }
      ]
     },
     "crop_x": {
      "Points": [
       {
        "co": {
         "X": 1,
         "Y": 0
        },
        "interpolation": 2
       }
      ]
     },
     "crop_y": {
      "Points": [
       {
        "co": {
         "X": 1,
         "Y": 0
        },
        "interpolation": 2
       }
      ]
     },
     "display": 0,
     "duration": 3600.0,
     "effects": [],
     "end": 10.0,
     "gravity": 4,
     "has_audio": {
      "Points": [
       {
        "co": {
         "X": 1,
         "Y": -1
        },
        "interpolation": 2
       }
      ]
     },
     "has_video": {
      "Points": [
       {
        "co": {
         "X": 1,
         "Y": -1
        },
        "interpolation": 2
       }
      ]
     },
     "id": "ZHZA9ZA36U",
     "layer": 6000000,
     "location_x": {
      "Points": [
       {
        "co": {
         "X": 1,
         "Y": 0
        },
        "interpolation": 2
       }
      ]
     },
     "location_y": {
      "Points": [
       {
        "co": {
         "X": 1,
         "Y": 0
        },
        "interpolation": 2
       }
      ]
     },
     "mixing": 0,
     "perspective_c1_x": {
      "Points": [
       {
        "co": {
         "X": 1,
         "Y": -1
        },
        "interpolation": 2
       }
      ]
     },
     "perspective_c1_y": {
      "Points": [
       {
        "co": {
         "X": 1,
         "Y": -1
        },
        "interpolation": 2
       }
      ]
     },
     "perspective_c2_x": {
      "Points": [
       {
        "co": {
         "X": 1,
         "Y": -1
        },
        "interpolation": 2
       }
      ]
     },
     "perspective_c2_y": {
      "Points": [
       {
        "co": {
         "X": 1,
         "Y": -1
        },
        "interpolation": 2
       }
      ]
     },
     "perspective_c3_x": {
      "Points": [
       {
        "co": {
         "X": 1,
         "Y": -1
        },
        "interpolation": 2
       }
      ]
     },
     "perspective_c3_y": {
      "Points": [
       {
        "co": {
         "X": 1,
         "Y": -1
        },
        "interpolation": 2
       }
      ]
     },
     "perspective_c4_x": {
      "Points": [
       {
        "co": {
         "X": 1,
         "Y": -1
        },
        "interpolation": 2
       }
      ]
     },
     "perspective_c4_y": {
      "Points": [
       {
        "co": {
         "X": 1,
         "Y": -1
        },
        "interpolation": 2
       }
      ]
     },
     "position": 37.35,
     "reader": {
      "acodec": "",
      "audio_bit_rate": 0,
      "audio_stream_index": -1,
      "audio_timebase": {
       "den": 1,
       "num": 1
      },
      "channel_layout": 4,
      "channels": 0,
      "display_ratio": {
       "den": 721,
       "num": 1280
      },
      "duration": 3600.0,
      "file_size": "3691520",
      "fps": {
       "den": 1,
       "num": 30
      },
      "has_audio": false,
      "has_single_image": true,
      "has_video": true,
      "height": 721,
      "interlaced_frame": false,
      "metadata": {},
      "path": "generated/240_allelulia_give_thanks-3.png",
      "pixel_format": -1,
      "pixel_ratio": {
       "den": 1,
       "num": 1
      },
      "sample_rate": 0,
      "top_field_first": true,
      "type": "QtImageReader",
      "vcodec": "",
      "video_bit_rate": 0,
      "video_length": "108000",
      "video_stream_index": -1,
      "video_timebase": {
       "den": 30,
       "num": 1
      },
      "width": 1280
     },
     "rotation": {
      "Points": [
       {
        "co": {
         "X": 1,
         "Y": 0
        },
        "interpolation": 2
       }
      ]
     },
     "scale": 1,
     "scale_x": {
      "Points": [
       {
        "co": {
         "X": 1,
         "Y": 1
        },
        "interpolation": 2
       }
      ]
     },
     "scale_y": {
      "Points": [
       {
        "co": {
         "X": 1,
         "Y": 1
        },
        "interpolation": 2
       }
      ]
     },
     "shear_x": {
      "Points": [
       {
        "co": {
         "X": 1,
         "Y": 0
        },
        "interpolation": 2
       }
      ]
     },
     "shear_y": {
      "Points": [
       {
        "co": {
         "X": 1,
         "Y": 0
        },
        "interpolation": 2
       }
      ]
     },
     "start": 0,
     "time": {
      "Points": [
       {
        "co": {
         "X": 1,
         "Y": 1
        },
        "interpolation": 2
       }
      ]
     },
     "volume": {
      "Points": [
       {
        "co": {
         "X": 1,
         "Y": 1
        },
        "interpolation": 2
       }
      ]
     },
     "wave_color": {
      "alpha": {
       "Points": [
        {
         "co": {
          "X": 1,
          "Y": 255
         },
         "handle_left": {
          "X": 0.5,
          "Y": 1
         },
         "handle_right": {
          "X": 0.5,
          "Y": 0
         },
         "handle_type": 0,
         "interpolation": 0
        }
       ]
      },
      "blue": {
       "Points": [
        {
         "co": {
          "X": 1,
          "Y": 255
         },
         "handle_left": {
          "X": 0.5,
          "Y": 1
         },
         "handle_right": {
          "X": 0.5,
          "Y": 0
         },
         "handle_type": 0,
         "interpolation": 0
        }
       ]
      },
      "green": {
       "Points": [
        {
         "co": {
          "X": 1,
          "Y": 123
         },
         "handle_left": {
          "X": 0.5,
          "Y": 1
         },
         "handle_right": {
          "X": 0.5,
          "Y": 0
         },
         "handle_type": 0,
         "interpolation": 0
        }
       ]
      },
      "red": {
       "Points": [
        {
         "co": {
          "X": 1,
          "Y": 0
         },
         "handle_left": {
          "X": 0.5,
          "Y": 1
         },
         "handle_right": {
          "X": 0.5,
          "Y": 0
         },
         "handle_type": 0,
         "interpolation": 0
        }
       ]
      }
     },
     "waveform": false,
     "file_id": "5VAPZ0XAUP",
     "title": "240_allelulia_give_thanks-3.png"
    }
   },
   {
    "type": "insert",
    "key": [
     "effects"
    ],
    "value": {
     "id": "MR1C9GH5EV",
     "layer": 6000000,
     "title": "Transition",
     "type": "Mask",
     "position": 50.849999999999994,
     "start": 0,
     "end": 2.7333333333333343,
     "brightness": {
      "Points": [
       {
        "co": {
         "X": 1,
         "Y": 1
        },
        "handle_left": {
         "X": 0.5,
         "Y": 1
        },
        "handle_right": {
         "X": 0.5,
         "Y": 0
        },
        "handle_type": 0,
        "interpolation": 0
       },
       {
        "co": {
         "X": 67,
         "Y": -1
        },
        "handle_left": {
         "X": 0.5,
         "Y": 1
        },
        "handle_right": {
         "X": 0.5,
         "Y": 0
        },
        "handle_type": 0,
        "interpolation": 0
       }
      ]
     },
     "contrast": {
      "Points": [
       {
        "co": {
         "X": 1,
         "Y": 3
        },
        "interpolation": 2
       }
      ]
     },
     "reader": {
      "acodec": "",
      "audio_bit_rate": 0,
      "audio_stream_index": -1,
      "audio_timebase": {
       "den": 1,
       "num": 1
      },
      "channel_layout": 4,
      "channels": 0,
      "display_ratio": {
       "den": 4,
       "num": 5
      },
      "duration": 3600,
      "file_size": "1658880",
      "fps": {
       "den": 1,
       "num": 30
      },
      "has_audio": false,
      "has_single_image": true,
      "has_video": true,
      "height": 576,
      "interlaced_frame": false,
      "metadata": {},
      "path": "@transitions/common/fade.svg",
      "pixel_format": -1,
      "pixel_ratio": {
       "den": 1,
       "num": 1
      },
      "sample_rate": 0,
      "top_field_first": true,
      "type": "QtImageReader",
      "vcodec": "",
      "video_bit_rate": 0,
      "video_length": "108000",
      "video_stream_index": -1,
      "video_timebase": {
       "den": 30,
       "num": 1
      },
      "width": 720
     },
     "replace_image": false
    },
    "partial": false,
    "old_values": [
     {
      "id": "KRJQ2LSCZM",
      "layer": 6000000,
      "title": "Transition",
      "type": "Mask",
      "position": 26.33333333333333,
      "start": 0,
      "end": 2.5833333333333393,
      "brightness": {
       "Points": [
        {
         "co": {
          "X": 1,
          "Y": 1
         },
         "handle_left": {
          "X": 0.5,
          "Y": 1
         },
         "handle_right": {
          "X": 0.5,
          "Y": 0
         },
         "handle_type": 0,
         "interpolation": 0
        },
        {
         "co": {
          "X": 63,
          "Y": -1
         },
         "handle_left": {
          "X": 0.5,
          "Y": 1
         },
         "handle_right": {
          "X": 0.5,
          "Y": 0
         },
         "handle_type": 0,
         "interpolation": 0
        }
       ]
      },
      "contrast": {
       "Points": [
        {
         "co": {
          "X": 1,
          "Y": 3
         },
         "interpolation": 2
        }
       ]
      },
      "reader": {
       "acodec": "",
       "audio_bit_rate": 0,
       "audio_stream_index": -1,
       "audio_timebase": {
        "den": 1,
        "num": 1
       },
       "channel_layout": 4,
       "channels": 0,
       "display_ratio": {
        "den": 4,
        "num": 5
       },
       "duration": 3600,
       "file_size": "1658880",
       "fps": {
        "den": 1,
        "num": 30
       },
       "has_audio": false,
       "has_single_image": true,
       "has_video": true,
       "height": 576,
       "interlaced_frame": false,
       "metadata": {},
       "path": "@transitions/common/fade.svg",
       "pixel_format": -1,
       "pixel_ratio": {
        "den": 1,
        "num": 1
       },
       "sample_rate": 0,
       "top_field_first": true,
       "type": "QtImageReader",
       "vcodec": "",
       "video_bit_rate": 0,
       "video_length": "108000",
       "video_stream_index": -1,
       "video_timebase": {
        "den": 30,
        "num": 1
       },
       "width": 720
      },
      "replace_image": false
     }
    ]
   },
   {
    "type": "update",
    "key": [
     "clips",
     {
      "id": "ZHZA9ZA36U"
     }
    ],
    "value": {
     "id": "ZHZA9ZA36U",
     "layer": 6000000,
     "position": 50.849999999999994,
     "start": 0,
     "end": 30.25
    },
    "partial": false,
    "old_values": {
     "alpha": {
      "Points": [
       {
        "co": {
         "X": 1,
         "Y": 1
        },
        "interpolation": 2
       }
      ]
     },
     "anchor": 0,
     "channel_filter": {
      "Points": [
       {
        "co": {
         "X": 1,
         "Y": -1
        },
        "interpolation": 2
       }
      ]
     },
     "channel_mapping": {
      "Points": [
       {
        "co": {
         "X": 1,
         "Y": -1
        },
        "interpolation": 2
       }
      ]
     },
     "crop_height": {
      "Points": [
       {
        "co": {
         "X": 1,
         "Y": 1
        },
        "interpolation": 2
       }
      ]
     },
     "crop_width": {
      "Points": [
       {
        "co": {
         "X": 1,
         "Y": 1
        },
        "interpolation": 2
       }
      ]
     },
     "crop_x": {
      "Points": [
       {
        "co": {
         "X": 1,
         "Y": 0
        },
        "interpolation": 2
       }
      ]
     },
     "crop_y": {
      "Points": [
       {
        "co": {
         "X": 1,
         "Y": 0
        },
        "interpolation": 2
       }
      ]
     },
     "display": 0,
     "duration": 3600.0,
     "effects": [],
     "end": 10,
     "gravity": 4,
     "has_audio": {
      "Points": [
       {
        "co": {
         "X": 1,
         "Y": -1
        },
        "interpolation": 2
       }
      ]
     },
     "has_video": {
      "Points": [
       {
        "co": {
         "X": 1,
         "Y": -1
        },
        "interpolation": 2
       }
      ]
     },
     "id": "ZHZA9ZA36U",
     "layer": 6000000,
     "location_x": {
      "Points": [
       {
        "co": {
         "X": 1,
         "Y": 0
        },
        "interpolation": 2
       }
      ]
     },
     "location_y": {
      "Points": [
       {
        "co": {
         "X": 1,
         "Y": 0
        },
        "interpolation": 2
       }
      ]
     },
     "mixing": 0,
     "perspective_c1_x": {
      "Points": [
       {
        "co": {
         "X": 1,
         "Y": -1
        },
        "interpolation": 2
       }
      ]
     },
     "perspective_c1_y": {
      "Points": [
       {
        "co": {
         "X": 1,
         "Y": -1
        },
        "interpolation": 2
       }
      ]
     },
     "perspective_c2_x": {
      "Points": [
       {
        "co": {
         "X": 1,
         "Y": -1
        },
        "interpolation": 2
       }
      ]
     },
     "perspective_c2_y": {
      "Points": [
       {
        "co": {
         "X": 1,
         "Y": -1
        },
        "interpolation": 2
       }
      ]
     },
     "perspective_c3_x": {
      "Points": [
       {
        "co": {
         "X": 1,
         "Y": -1
        },
        "interpolation": 2
       }
      ]
     },
     "perspective_c3_y": {
      "Points": [
       {
        "co": {
         "X": 1,
         "Y": -1
        },
        "interpolation": 2
       }
      ]
     },
     "perspective_c4_x": {
      "Points": [
       {
        "co": {
         "X": 1,
         "Y": -1
        },
        "interpolation": 2
       }
      ]
     },
     "perspective_c4_y": {
      "Points": [
       {
        "co": {
         "X": 1,
         "Y": -1
        },
        "interpolation": 2
       }
      ]
     },
     "position": 50.849999999999994,
     "reader": {
      "acodec": "",
      "audio_bit_rate": 0,
      "audio_stream_index": -1,
      "audio_timebase": {
       "den": 1,
       "num": 1
      },
      "channel_layout": 4,
      "channels": 0,
      "display_ratio": {
       "den": 721,
       "num": 1280
      },
      "duration": 3600.0,
      "file_size": "3691520",
      "fps": {
       "den": 1,
       "num": 30
      },
      "has_audio": false,
      "has_single_image": true,
      "has_video": true,
      "height": 721,
      "interlaced_frame": false,
      "metadata": {},
      "path": "generated/240_allelulia_give_thanks-3.png",
      "pixel_format": -1,
      "pixel_ratio": {
       "den": 1,
       "num": 1
      },
      "sample_rate": 0,
      "top_field_first": true,
      "type": "QtImageReader",
      "vcodec": "",
      "video_bit_rate": 0,
      "video_length": "108000",
      "video_stream_index": -1,
      "video_timebase": {
       "den": 30,
       "num": 1
      },
      "width": 1280
     },
     "rotation": {
      "Points": [
       {
        "co": {
         "X": 1,
         "Y": 0
        },
        "interpolation": 2
       }
      ]
     },
     "scale": 1,
     "scale_x": {
      "Points": [
       {
        "co": {
         "X": 1,
         "Y": 1
        },
        "interpolation": 2
       }
      ]
     },
     "scale_y": {
      "Points": [
       {
        "co": {
         "X": 1,
         "Y": 1
        },
        "interpolation": 2
       }
      ]
     },
     "shear_x": {
      "Points": [
       {
        "co": {
         "X": 1,
         "Y": 0
        },
        "interpolation": 2
       }
      ]
     },
     "shear_y": {
      "Points": [
       {
        "co": {
         "X": 1,
         "Y": 0
        },
        "interpolation": 2
       }
      ]
     },
     "start": 0,
     "time": {
      "Points": [
       {
        "co": {
         "X": 1,
         "Y": 1
        },
        "interpolation": 2
       }
      ]
     },
     "volume": {
      "Points": [
       {
        "co": {
         "X": 1,
         "Y": 1
        },
        "interpolation": 2
       }
      ]
     },
     "wave_color": {
      "alpha": {
       "Points": [
        {
         "co": {
          "X": 1,
          "Y": 255
         },
         "handle_left": {
          "X": 0.5,
          "Y": 1
         },
         "handle_right": {
          "X": 0.5,
          "Y": 0
         },
         "handle_type": 0,
         "interpolation": 0
        }
       ]
      },
      "blue": {
       "Points": [
        {
         "co": {
          "X": 1,
          "Y": 255
         },
         "handle_left": {
          "X": 0.5,
          "Y": 1
         },
         "handle_right": {
          "X": 0.5,
          "Y": 0
         },
         "handle_type": 0,
         "interpolation": 0
        }
       ]
      },
      "green": {
       "Points": [
        {
         "co": {
          "X": 1,
          "Y": 123
         },
         "handle_left": {
          "X": 0.5,
          "Y": 1
         },
         "handle_right": {
          "X": 0.5,
          "Y": 0
         },
         "handle_type": 0,
         "interpolation": 0
        }
       ]
      },
      "red": {
       "Points": [
        {
         "co": {
          "X": 1,
          "Y": 0
         },
         "handle_left": {
          "X": 0.5,
          "Y": 1
         },
         "handle_right": {
          "X": 0.5,
          "Y": 0
         },
         "handle_type": 0,
         "interpolation": 0
        }
       ]
      }
     },
     "waveform": false,
     "file_id": "5VAPZ0XAUP",
     "title": "240_allelulia_give_thanks-3.png"
    }
   },
   {
    "type": "update",
    "key": [
     "clips",
     {
      "id": "ZHZA9ZA36U"
     }
    ],
    "value": {
     "id": "ZHZA9ZA36U",
     "layer": 6000000,
     "position": 50.849999999999994,
     "start": 0,
     "end": 29.5
    },
    "partial": false,
    "old_values": {
     "alpha": {
      "Points": [
       {
        "co": {
         "X": 1,
         "Y": 1
        },
        "interpolation": 2
       }
      ]
     },
     "anchor": 0,
     "channel_filter": {
      "Points": [
       {
        "co": {
         "X": 1,
         "Y": -1
        },
        "interpolation": 2
       }
      ]
     },
     "channel_mapping": {
      "Points": [
       {
        "co": {
         "X": 1,
         "Y": -1
        },
        "interpolation": 2
       }
      ]
     },
     "crop_height": {
      "Points": [
       {
        "co": {
         "X": 1,
         "Y": 1
        },
        "interpolation": 2
       }
      ]
     },
     "crop_width": {
      "Points": [
       {
        "co": {
         "X": 1,
         "Y": 1
        },
        "interpolation": 2
       }
      ]
     },
     "crop_x": {
      "Points": [
       {
        "co": {
         "X": 1,
         "Y": 0
        },
        "interpolation": 2
       }
      ]
     },
     "crop_y": {
      "Points": [
       {
        "co": {
         "X": 1,
         "Y": 0
        },
        "interpolation": 2
       }
      ]
     },
     "display": 0,
     "duration": 3600.0,
     "effects": [],
     "end": 30.25,
     "gravity": 4,
     "has_audio": {
      "Points": [
       {
        "co": {
         "X": 1,
         "Y": -1
        },
        "interpolation": 2
       }
      ]
     },
     "has_video": {
      "Points": [
       {
        "co": {
         "X": 1,
         "Y": -1
        },
        "interpolation": 2
       }
      ]
     },
     "id": "ZHZA9ZA36U",
     "layer": 6000000,
     "location_x": {
      "Points": [
       {
        "co": {
         "X": 1,
         "Y": 0
        },
        "interpolation": 2
       }
      ]
     },
     "location_y": {
      "Points": [
       {
        "co": {
         "X": 1,
         "Y": 0
        },
        "interpolation": 2
       }
      ]
     },
     "mixing": 0,
     "perspective_c1_x": {
      "Points": [
       {
        "co": {
         "X": 1,
         "Y": -1
        },
        "interpolation": 2
       }
      ]
     },
     "perspective_c1_y": {
      "Points": [
       {
        "co": {
         "X": 1,
         "Y": -1
        },
        "interpolation": 2
       }
      ]
     },
     "perspective_c2_x": {
      "Points": [
       {
        "co": {
         "X": 1,
         "Y": -1
        },
        "interpolation": 2
       }
      ]
     },
     "perspective_c2_y": {
      "Points": [
       {
        "co": {
         "X": 1,
         "Y": -1
        },
        "interpolation": 2
       }
      ]
     },
     "perspective_c3_x": {
      "Points": [
       {
        "co": {
         "X": 1,
         "Y": -1
        },
        "interpolation": 2
       }
      ]
     },
     "perspective_c3_y": {
      "Points": [
       {
        "co": {
         "X": 1,
         "Y": -1
        },
        "interpolation": 2
       }
      ]
     },
     "perspective_c4_x": {
      "Points": [
       {
        "co": {
         "X": 1,
         "Y": -1
        },
        "interpolation": 2
       }
      ]
     },
     "perspective_c4_y": {
      "Points": [
       {
        "co": {
         "X": 1,
         "Y": -1
        },
        "interpolation": 2
       }
      ]
     },
     "position": 50.849999999999994,
     "reader": {
      "acodec": "",
      "audio_bit_rate": 0,
      "audio_stream_index": -1,
      "audio_timebase": {
       "den": 1,
       "num": 1
      },
      "channel_layout": 4,
      "channels": 0,
      "display_ratio": {
       "den": 721,
       "num": 1280
      },
      "duration": 3600.0,
      "file_size": "3691520",
      "fps": {
       "den": 1,
       "num": 30
      },
      "has_audio": false,
      "has_single_image": true,
      "has_video": true,
      "height": 721,
      "interlaced_frame": false,
      "metadata": {},
      "path": "generated/240_allelulia_give_thanks-3.png",
      "pixel_format": -1,
      "pixel_ratio": {
       "den": 1,
       "num": 1
      },
      "sample_rate": 0,
      "top_field_first": true,
      "type": "QtImageReader",
      "vcodec": "",
      "video_bit_rate": 0,
      "video_length": "108000",
      "video_stream_index": -1,
      "video_timebase": {
       "den": 30,
       "num": 1
      },
      "width": 1280
     },
     "rotation": {
      "Points": [
       {
        "co": {
         "X": 1,
         "Y": 0
        },
        "interpolation": 2
       }
      ]
     },
     "scale": 1,
     "scale_x": {
      "Points": [
       {
        "co": {
         "X": 1,
         "Y": 1
        },
        "interpolation": 2
       }
      ]
     },
     "scale_y": {
      "Points": [
       {
        "co": {
         "X": 1,
         "Y": 1
        },
        "interpolation": 2
       }
      ]
     },
     "shear_x": {
      "Points": [
       {
        "co": {
         "X": 1,
         "Y": 0
        },
        "interpolation": 2
       }
      ]
     },
     "shear_y": {
      "Points": [
       {
        "co": {
         "X": 1,
         "Y": 0
        },
        "interpolation": 2
       }
      ]
     },
     "start": 0,
     "time": {
      "Points": [
       {
        "co": {
         "X": 1,
         "Y": 1
        },
        "interpolation": 2
       }
      ]
     },
     "volume": {
      "Points": [
       {
        "co": {
         "X": 1,
         "Y": 1
        },
        "interpolation": 2
       }
      ]
     },
     "wave_color": {
      "alpha": {
       "Points": [
        {
         "co": {
          "X": 1,
          "Y": 255
         },
         "handle_left": {
          "X": 0.5,
          "Y": 1
         },
         "handle_right": {
          "X": 0.5,
          "Y": 0
         },
         "handle_type": 0,
         "interpolation": 0
        }
       ]
      },
      "blue": {
       "Points": [
        {
         "co": {
          "X": 1,
          "Y": 255
         },
         "handle_left": {
          "X": 0.5,
          "Y": 1
         },
         "handle_right": {
          "X": 0.5,
          "Y": 0
         },
         "handle_type": 0,
         "interpolation": 0
        }
       ]
      },
      "green": {
       "Points": [
        {
         "co": {
          "X": 1,
          "Y": 123
         },
         "handle_left": {
          "X": 0.5,
          "Y": 1
         },
         "handle_right": {
          "X": 0.5,
          "Y": 0
         },
         "handle_type": 0,
         "interpolation": 0
        }
       ]
      },
      "red": {
       "Points": [
        {
         "co": {
          "X": 1,
          "Y": 0
         },
         "handle_left": {
          "X": 0.5,
          "Y": 1
         },
         "handle_right": {
          "X": 0.5,
          "Y": 0
         },
         "handle_type": 0,
         "interpolation": 0
        }
       ]
      }
     },
     "waveform": false,
     "file_id": "5VAPZ0XAUP",
     "title": "240_allelulia_give_thanks-3.png"
    }
   },
   {
    "type": "insert",
    "key": [
     "clips"
    ],
    "value": {
     "alpha": {
      "Points": [
       {
        "co": {
         "X": 1,
         "Y": 1
        },
        "interpolation": 2
       }
      ]
     },
     "anchor": 0,
     "channel_filter": {
      "Points": [
       {
        "co": {
         "X": 1,
         "Y": -1
        },
        "interpolation": 2
       }
      ]
     },
     "channel_mapping": {
      "Points": [
       {
        "co": {
         "X": 1,
         "Y": -1
        },
        "interpolation": 2
       }
      ]
     },
     "crop_height": {
      "Points": [
       {
        "co": {
         "X": 1,
         "Y": 1
        },
        "interpolation": 2
       }
      ]
     },
     "crop_width": {
      "Points": [
       {
        "co": {
         "X": 1,
         "Y": 1
        },
        "interpolation": 2
       }
      ]
     },
     "crop_x": {
      "Points": [
       {
        "co": {
         "X": 1,
         "Y": 0
        },
        "interpolation": 2
       }
      ]
     },
     "crop_y": {
      "Points": [
       {
        "co": {
         "X": 1,
         "Y": 0
        },
        "interpolation": 2
       }
      ]
     },
     "display": 0,
     "duration": 3600.0,
     "effects": [],
     "end": 29.791666666666668,
     "gravity": 4,
     "has_audio": {
      "Points": [
       {
        "co": {
         "X": 1,
         "Y": -1
        },
        "interpolation": 2
       }
      ]
     },
     "has_video": {
      "Points": [
       {
        "co": {
         "X": 1,
         "Y": -1
        },
        "interpolation": 2
       }
      ]
     },
     "id": "C5G969ZVWP",
     "layer": 6000000,
     "location_x": {
      "Points": [
       {
        "co": {
         "X": 1,
         "Y": 0
        },
        "interpolation": 2
       }
      ]
     },
     "location_y": {
      "Points": [
       {
        "co": {
         "X": 1,
         "Y": 0
        },
        "interpolation": 2
       }
      ]
     },
     "mixing": 0,
     "perspective_c1_x": {
      "Points": [
       {
        "co": {
         "X": 1,
         "Y": -1
        },
        "interpolation": 2
       }
      ]
     },
     "perspective_c1_y": {
      "Points": [
       {
        "co": {
         "X": 1,
         "Y": -1
        },
        "interpolation": 2
       }
      ]
     },
     "perspective_c2_x": {
      "Points": [
       {
        "co": {
         "X": 1,
         "Y": -1
        },
        "interpolation": 2
       }
      ]
     },
     "perspective_c2_y": {
      "Points": [
       {
        "co": {
         "X": 1,
         "Y": -1
        },
        "interpolation": 2
       }
      ]
     },
     "perspective_c3_x": {
      "Points": [
       {
        "co": {
         "X": 1,
         "Y": -1
        },
        "interpolation": 2
       }
      ]
     },
     "perspective_c3_y": {
      "Points": [
       {
        "co": {
         "X": 1,
         "Y": -1
        },
        "interpolation": 2
       }
      ]
     },
     "perspective_c4_x": {
      "Points": [
       {
        "co": {
         "X": 1,
         "Y": -1
        },
        "interpolation": 2
       }
      ]
     },
     "perspective_c4_y": {
      "Points": [
       {
        "co": {
         "X": 1,
         "Y": -1
        },
        "interpolation": 2
       }
      ]
     },
     "position": 77.7,
     "reader": {
      "acodec": "",
      "audio_bit_rate": 0,
      "audio_stream_index": -1,
      "audio_timebase": {
       "den": 1,
       "num": 1
      },
      "channel_layout": 4,
      "channels": 0,
      "display_ratio": {
       "den": 721,
       "num": 1280
      },
      "duration": 3600.0,
      "file_size": "3691520",
      "fps": {
       "den": 1,
       "num": 30
      },
      "has_audio": false,
      "has_single_image": true,
      "has_video": true,
      "height": 721,
      "interlaced_frame": false,
      "metadata": {},
      "path": "generated/240_allelulia_give_thanks-4.png",
      "pixel_format": -1,
      "pixel_ratio": {
       "den": 1,
       "num": 1
      },
      "sample_rate": 0,
      "top_field_first": true,
      "type": "QtImageReader",
      "vcodec": "",
      "video_bit_rate": 0,
      "video_length": "108000",
      "video_stream_index": -1,
      "video_timebase": {
       "den": 30,
       "num": 1
      },
      "width": 1280
     },
     "rotation": {
      "Points": [
       {
        "co": {
         "X": 1,
         "Y": 0
        },
        "interpolation": 2
       }
      ]
     },
     "scale": 1,
     "scale_x": {
      "Points": [
       {
        "co": {
         "X": 1,
         "Y": 1
        },
        "interpolation": 2
       }
      ]
     },
     "scale_y": {
      "Points": [
       {
        "co": {
         "X": 1,
         "Y": 1
        },
        "interpolation": 2
       }
      ]
     },
     "shear_x": {
      "Points": [
       {
        "co": {
         "X": 1,
         "Y": 0
        },
        "interpolation": 2
       }
      ]
     },
     "shear_y": {
      "Points": [
       {
        "co": {
         "X": 1,
         "Y": 0
        },
        "interpolation": 2
       }
      ]
     },
     "start": 0,
     "time": {
      "Points": [
       {
        "co": {
         "X": 1,
         "Y": 1
        },
        "interpolation": 2
       }
      ]
     },
     "volume": {
      "Points": [
       {
        "co": {
         "X": 1,
         "Y": 1
        },
        "interpolation": 2
       }
      ]
     },
     "wave_color": {
      "alpha": {
       "Points": [
        {
         "co": {
          "X": 1,
          "Y": 255
         },
         "handle_left": {
          "X": 0.5,
          "Y": 1
         },
         "handle_right": {
          "X": 0.5,
          "Y": 0
         },
         "handle_type": 0,
         "interpolation": 0
        }
       ]
      },
      "blue": {
       "Points": [
        {
         "co": {
          "X": 1,
          "Y": 255
         },
         "handle_left": {
          "X": 0.5,
          "Y": 1
         },
         "handle_right": {
          "X": 0.5,
          "Y": 0
         },
         "handle_type": 0,
         "interpolation": 0
        }
       ]
      },
      "green": {
       "Points": [
        {
         "co": {
          "X": 1,
          "Y": 123
         },
         "handle_left": {
          "X": 0.5,
          "Y": 1
         },
         "handle_right": {
          "X": 0.5,
          "Y": 0
         },
         "handle_type": 0,
         "interpolation": 0
        }
       ]
      },
      "red": {
       "Points": [
        {
         "co": {
          "X": 1,
          "Y": 0
         },
         "handle_left": {
          "X": 0.5,
          "Y": 1
         },
         "handle_right": {
          "X": 0.5,
          "Y": 0
         },
         "handle_type": 0,
         "interpolation": 0
        }
       ]
      }
     },
     "waveform": false,
     "file_id": "R0PJFNQQE1",
     "title": "240_allelulia_give_thanks-4.png"
    },
    "partial": false,
    "old_values": [
     {
      "alpha": {
       "Points": [
        {
         "co": {
          "X": 1,
          "Y": 1
         },
         "interpolation": 2
        }
       ]
      },
      "anchor": 0,
      "channel_filter": {
       "Points": [
        {
         "co": {
          "X": 1,
          "Y": -1
         },
         "interpolation": 2
        }
       ]
      },
      "channel_mapping": {
       "Points": [
        {
         "co": {
          "X": 1,
          "Y": -1
         },
         "interpolation": 2
        }
       ]
      },
      "crop_height": {
       "Points": [
        {
         "co": {
          "X": 1,
          "Y": 1
         },
         "interpolation": 2
        }
       ]
      },
      "crop_width": {
       "Points": [
        {
         "co": {
          "X": 1,
          "Y": 1
         },
         "interpolation": 2
        }
       ]
      },
      "crop_x": {
       "Points": [
        {
         "co": {
          "X": 1,
          "Y": 0
         },
         "interpolation": 2
        }
       ]
      },
      "crop_y": {
       "Points": [
        {
         "co": {
          "X": 1,
          "Y": 0
         },
         "interpolation": 2
        }
       ]
      },
      "display": 0,
      "duration": 138.710205078125,
      "effects": [],
      "end": 138.710205078125,
      "gravity": 4,
      "has_audio": {
       "Points": [
        {
         "co": {
          "X": 1,
          "Y": -1
         },
         "interpolation": 2
        }
       ]
      },
      "has_video": {
       "Points": [
        {
         "co": {
          "X": 1,
          "Y": -1
         },
         "interpolation": 2
        }
       ]
      },
      "id": "ASHR3UX8IY",
      "layer": 5000000,
      "location_x": {
       "Points": [
        {
         "co": {
          "X": 1,
          "Y": 0
         },
         "interpolation": 2
        }
       ]
      },
      "location_y": {
       "Points": [
        {
         "co": {
          "X": 1,
          "Y": 0
         },
         "interpolation": 2
        }
       ]
      },
      "mixing": 0,
      "perspective_c1_x": {
       "Points": [
        {
         "co": {
          "X": 1,
          "Y": -1
         },
         "interpolation": 2
        }
       ]
      },
      "perspective_c1_y": {
       "Points": [
        {
         "co": {
          "X": 1,
          "Y": -1
         },
         "interpolation": 2
        }
       ]
      },
      "perspective_c2_x": {
       "Points": [
        {
         "co": {
          "X": 1,
          "Y": -1
         },
         "interpolation": 2
        }
       ]
      },
      "perspective_c2_y": {
       "Points": [
        {
         "co": {
          "X": 1,
          "Y": -1
         },
         "interpolation": 2
        }
       ]
      },
      "perspective_c3_x": {
       "Points": [
        {
         "co": {
          "X": 1,
          "Y": -1
         },
         "interpolation": 2
        }
       ]
      },
      "perspective_c3_y": {
       "Points": [
        {
         "co": {
          "X": 1,
          "Y": -1
         },
         "interpolation": 2
        }
       ]
      },
      "perspective_c4_x": {
       "Points": [
        {
         "co": {
          "X": 1,
          "Y": -1
         },
         "interpolation": 2
        }
       ]
      },
      "perspective_c4_y": {
       "Points": [
        {
         "co": {
          "X": 1,
          "Y": -1
         },
         "interpolation": 2
        }
       ]
      },
      "position": 0,
      "reader": {
       "acodec": "mp3float",
       "audio_bit_rate": 179292,
       "audio_stream_index": 0,
       "audio_timebase": {
        "den": 14112000,
        "num": 1
       },
       "channel_layout": 3,
       "channels": 2,
       "display_ratio": {
        "den": 1,
        "num": 1
       },
       "duration": 138.710205078125,
       "file_size": "3108707",
       "fps": {
        "den": 1,
        "num": 24
       },
       "has_audio": true,
       "has_single_image": false,
       "has_video": false,
       "height": 480,
       "interlaced_frame": false,
       "metadata": {
        "encoder": "LAME3.100"
       },
       "path": "./240 Alleluia Alleluia with Singers.mp3",
       "pixel_format": -1,
       "pixel_ratio": {
        "den": 1,
        "num": 1
       },
       "sample_rate": 44100,
       "top_field_first": true,
       "type": "FFmpegReader",
       "vcodec": "",
       "video_bit_rate": 0,
       "video_length": "3329",
       "video_stream_index": -1,
       "video_timebase": {
        "den": 24,
        "num": 1
       },
       "width": 720
      },
      "rotation": {
       "Points": [
        {
         "co": {
          "X": 1,
          "Y": 0
         },
         "interpolation": 2
        }
       ]
      },
      "scale": 1,
      "scale_x": {
       "Points": [
        {
         "co": {
          "X": 1,
          "Y": 1
         },
         "interpolation": 2
        }
       ]
      },
      "scale_y": {
       "Points": [
        {
         "co": {
          "X": 1,
          "Y": 1
         },
         "interpolation": 2
        }
       ]
      },
      "shear_x": {
       "Points": [
        {
         "co": {
          "X": 1,
          "Y": 0
         },
         "interpolation": 2
        }
       ]
      },
      "shear_y": {
       "Points": [
        {
         "co": {
          "X": 1,
          "Y": 0
         },
         "interpolation": 2
        }
       ]
      },
      "start": 0,
      "time": {
       "Points": [
        {
         "co": {
          "X": 1,
          "Y": 1
         },
         "interpolation": 2
        }
       ]
      },
      "volume": {
       "Points": [
        {
         "co": {
          "X": 1,
          "Y": 1
         },
         "interpolation": 2
        }
       ]
      },
      "wave_color": {
       "alpha": {
        "Points": [
         {
          "co": {
           "X": 1,
           "Y": 255
          },
          "handle_left": {
           "X": 0.5,
           "Y": 1
          },
          "handle_right": {
           "X": 0.5,
           "Y": 0
          },
          "handle_type": 0,
          "interpolation": 0
         }
        ]
       },
       "blue": {
        "Points": [
         {
          "co": {
           "X": 1,
           "Y": 255
          },
          "handle_left": {
           "X": 0.5,
           "Y": 1
          },
          "handle_right": {
           "X": 0.5,
           "Y": 0
          },
          "handle_type": 0,
          "interpolation": 0
         }
        ]
       },
       "green": {
        "Points": [
         {
          "co": {
           "X": 1,
           "Y": 123
          },
          "handle_left": {
           "X": 0.5,
           "Y": 1
          },
          "handle_right": {
           "X": 0.5,
           "Y": 0
          },
          "handle_type": 0,
          "interpolation": 0
         }
        ]
       },
       "red": {
        "Points": [
         {
          "co": {
           "X": 1,
           "Y": 0
          },
          "handle_left": {
           "X": 0.5,
           "Y": 1
          },
          "handle_right": {
           "X": 0.5,
           "Y": 0
          },
          "handle_type": 0,
          "interpolation": 0
         }
        ]
       }
      },
      "waveform": false,
      "file_id": "XGTGN70GJK",
      "title": "240 Alleluia Alleluia with Singers.mp3"
     },
     {
      "alpha": {
       "Points": [
        {
         "co": {
          "X": 1,
          "Y": 1
         },
         "interpolation": 2
        }
       ]
      },
      "anchor": 0,
      "channel_filter": {
       "Points": [
        {
         "co": {
          "X": 1,
          "Y": -1
         },
         "interpolation": 2
        }
       ]
      },
      "channel_mapping": {
       "Points": [
        {
         "co": {
          "X": 1,
          "Y": -1
         },
         "interpolation": 2
        }
       ]
      },
      "crop_height": {
       "Points": [
        {
         "co": {
          "X": 1,
          "Y": 1
         },
         "interpolation": 2
        }
       ]
      },
      "crop_width": {
       "Points": [
        {
         "co": {
          "X": 1,
          "Y": 1
         },
         "interpolation": 2
        }
       ]
      },
      "crop_x": {
       "Points": [
        {
         "co": {
          "X": 1,
          "Y": 0
         },
         "interpolation": 2
        }
       ]
      },
      "crop_y": {
       "Points": [
        {
         "co": {
          "X": 1,
          "Y": 0
         },
         "interpolation": 2
        }
       ]
      },
      "display": 0,
      "duration": 3600.0,
      "effects": [],
      "end": 28.916666666666668,
      "gravity": 4,
      "has_audio": {
       "Points": [
        {
         "co": {
          "X": 1,
          "Y": -1
         },
         "interpolation": 2
        }
       ]
      },
      "has_video": {
       "Points": [
        {
         "co": {
          "X": 1,
          "Y": -1
         },
         "interpolation": 2
        }
       ]
      },
      "id": "H10WKM1J0R",
      "layer": 6000000,
      "location_x": {
       "Points": [
        {
         "co": {
          "X": 1,
          "Y": 0
         },
         "interpolation": 2
        }
       ]
      },
      "location_y": {
       "Points": [
        {
         "co": {
          "X": 1,
          "Y": 0
         },
         "interpolation": 2
        }
       ]
      },
      "mixing": 0,
      "perspective_c1_x": {
       "Points": [
        {
         "co": {
          "X": 1,
          "Y": -1
         },
         "interpolation": 2
        }
       ]
      },
      "perspective_c1_y": {
       "Points": [
        {
         "co": {
          "X": 1,
          "Y": -1
         },
         "interpolation": 2
        }
       ]
      },
      "perspective_c2_x": {
       "Points": [
        {
         "co": {
          "X": 1,
          "Y": -1
         },
         "interpolation": 2
        }
       ]
      },
      "perspective_c2_y": {
       "Points": [
        {
         "co": {
          "X": 1,
          "Y": -1
         },
         "interpolation": 2
        }
       ]
      },
      "perspective_c3_x": {
       "Points": [
        {
         "co": {
          "X": 1,
          "Y": -1
         },
         "interpolation": 2
        }
       ]
      },
      "perspective_c3_y": {
       "Points": [
        {
         "co": {
          "X": 1,
          "Y": -1
         },
         "interpolation": 2
        }
       ]
      },
      "perspective_c4_x": {
       "Points": [
        {
         "co": {
          "X": 1,
          "Y": -1
         },
         "interpolation": 2
        }
       ]
      },
      "perspective_c4_y": {
       "Points": [
        {
         "co": {
          "X": 1,
          "Y": -1
         },
         "interpolation": 2
        }
       ]
      },
      "position": 0,
      "reader": {
       "acodec": "",
       "audio_bit_rate": 0,
       "audio_stream_index": -1,
       "audio_timebase": {
        "den": 1,
        "num": 1
       },
       "channel_layout": 4,
       "channels": 0,
       "display_ratio": {
        "den": 721,
        "num": 1280
       },
       "duration": 3600.0,
       "file_size": "3691520",
       "fps": {
        "den": 1,
        "num": 30
       },
       "has_audio": false,
       "has_single_image": true,
       "has_video": true,
       "height": 721,
       "interlaced_frame": false,
       "metadata": {},
       "path": "generated/240_allelulia_give_thanks-1.png",
       "pixel_format": -1,
       "pixel_ratio": {
        "den": 1,
        "num": 1
       },
       "sample_rate": 0,
       "top_field_first": true,
       "type": "QtImageReader",
       "vcodec": "",
       "video_bit_rate": 0,
       "video_length": "108000",
       "video_stream_index": -1,
       "video_timebase": {
        "den": 30,
        "num": 1
       },
       "width": 1280
      },
      "rotation": {
       "Points": [
        {
         "co": {
          "X": 1,
          "Y": 0
         },
         "interpolation": 2
        }
       ]
      },
      "scale": 1,
      "scale_x": {
       "Points": [
        {
         "co": {
          "X": 1,
          "Y": 1
         },
         "interpolation": 2
        }
       ]
      },
      "scale_y": {
       "Points": [
        {
         "co": {
          "X": 1,
          "Y": 1
         },
         "interpolation": 2
        }
       ]
      },
      "shear_x": {
       "Points": [
        {
         "co": {
          "X": 1,
          "Y": 0
         },
         "interpolation": 2
        }
       ]
      },
      "shear_y": {
       "Points": [
        {
         "co": {
          "X": 1,
          "Y": 0
         },
         "interpolation": 2
        }
       ]
      },
      "start": 0,
      "time": {
       "Points": [
        {
         "co": {
          "X": 1,
          "Y": 1
         },
         "interpolation": 2
        }
       ]
      },
      "volume": {
       "Points": [
        {
         "co": {
          "X": 1,
          "Y": 1
         },
         "interpolation": 2
        }
       ]
      },
      "wave_color": {
       "alpha": {
        "Points": [
         {
          "co": {
           "X": 1,
           "Y": 255
          },
          "handle_left": {
           "X": 0.5,
           "Y": 1
          },
          "handle_right": {
           "X": 0.5,
           "Y": 0
          },
          "handle_type": 0,
          "interpolation": 0
         }
        ]
       },
       "blue": {
        "Points": [
         {
          "co": {
           "X": 1,
           "Y": 255
          },
          "handle_left": {
           "X": 0.5,
           "Y": 1
          },
          "handle_right": {
           "X": 0.5,
           "Y": 0
          },
          "handle_type": 0,
          "interpolation": 0
         }
        ]
       },
       "green": {
        "Points": [
         {
          "co": {
           "X": 1,
           "Y": 123
          },
          "handle_left": {
           "X": 0.5,
           "Y": 1
          },
          "handle_right": {
           "X": 0.5,
           "Y": 0
          },
          "handle_type": 0,
          "interpolation": 0
         }
        ]
       },
       "red": {
        "Points": [
         {
          "co": {
           "X": 1,
           "Y": 0
          },
          "handle_left": {
           "X": 0.5,
           "Y": 1
          },
          "handle_right": {
           "X": 0.5,
           "Y": 0
          },
          "handle_type": 0,
          "interpolation": 0
         }
        ]
       }
      },
      "waveform": false,
      "file_id": "C1BCNGB69H",
      "title": "240_allelulia_give_thanks-1.png"
     },
     {
      "alpha": {
       "Points": [
        {
         "co": {
          "X": 1,
          "Y": 1
         },
         "interpolation": 2
        }
       ]
      },
      "anchor": 0,
      "channel_filter": {
       "Points": [
        {
         "co": {
          "X": 1,
          "Y": -1
         },
         "interpolation": 2
        }
       ]
      },
      "channel_mapping": {
       "Points": [
        {
         "co": {
          "X": 1,
          "Y": -1
         },
         "interpolation": 2
        }
       ]
      },
      "crop_height": {
       "Points": [
        {
         "co": {
          "X": 1,
          "Y": 1
         },
         "interpolation": 2
        }
       ]
      },
      "crop_width": {
       "Points": [
        {
         "co": {
          "X": 1,
          "Y": 1
         },
         "interpolation": 2
        }
       ]
      },
      "crop_x": {
       "Points": [
        {
         "co": {
          "X": 1,
          "Y": 0
         },
         "interpolation": 2
        }
       ]
      },
      "crop_y": {
       "Points": [
        {
         "co": {
          "X": 1,
          "Y": 0
         },
         "interpolation": 2
        }
       ]
      },
      "display": 0,
      "duration": 3600.0,
      "effects": [],
      "end": 27.25,
      "gravity": 4,
      "has_audio": {
       "Points": [
        {
         "co": {
          "X": 1,
          "Y": -1
         },
         "interpolation": 2
        }
       ]
      },
      "has_video": {
       "Points": [
        {
         "co": {
          "X": 1,
          "Y": -1
         },
         "interpolation": 2
        }
       ]
      },
      "id": "ZARBOHDFSQ",
      "layer": 6000000,
      "location_x": {
       "Points": [
        {
         "co": {
          "X": 1,
          "Y": 0
         },
         "interpolation": 2
        }
       ]
      },
      "location_y": {
       "Points": [
        {
         "co": {
          "X": 1,
          "Y": 0
         },
         "interpolation": 2
        }
       ]
      },
      "mixing": 0,
      "perspective_c1_x": {
       "Points": [
        {
         "co": {
          "X": 1,
          "Y": -1
         },
         "interpolation": 2
        }
       ]
      },
      "perspective_c1_y": {
       "Points": [
        {
         "co": {
          "X": 1,
          "Y": -1
         },
         "interpolation": 2
        }
       ]
      },
      "perspective_c2_x": {
       "Points": [
        {
         "co": {
          "X": 1,
          "Y": -1
         },
         "interpolation": 2
        }
       ]
      },
      "perspective_c2_y": {
       "Points": [
        {
         "co": {
          "X": 1,
          "Y": -1
         },
         "interpolation": 2
        }
       ]
      },
      "perspective_c3_x": {
       "Points": [
        {
         "co": {
          "X": 1,
          "Y": -1
         },
         "interpolation": 2
        }
       ]
      },
      "perspective_c3_y": {
       "Points": [
        {
         "co": {
          "X": 1,
          "Y": -1
         },
         "interpolation": 2
        }
       ]
      },
      "perspective_c4_x": {
       "Points": [
        {
         "co": {
          "X": 1,
          "Y": -1
         },
         "interpolation": 2
        }
       ]
      },
      "perspective_c4_y": {
       "Points": [
        {
         "co": {
          "X": 1,
          "Y": -1
         },
         "interpolation": 2
        }
       ]
      },
      "position": 26.33333333333333,
      "reader": {
       "acodec": "",
       "audio_bit_rate": 0,
       "audio_stream_index": -1,
       "audio_timebase": {
        "den": 1,
        "num": 1
       },
       "channel_layout": 4,
       "channels": 0,
       "display_ratio": {
        "den": 721,
        "num": 1280
       },
       "duration": 3600.0,
       "file_size": "3691520",
       "fps": {
        "den": 1,
        "num": 30
       },
       "has_audio": false,
       "has_single_image": true,
       "has_video": true,
       "height": 721,
       "interlaced_frame": false,
       "metadata": {},
       "path": "generated/240_allelulia_give_thanks-2.png",
       "pixel_format": -1,
       "pixel_ratio": {
        "den": 1,
        "num": 1
       },
       "sample_rate": 0,
       "top_field_first": true,
       "type": "QtImageReader",
       "vcodec": "",
       "video_bit_rate": 0,
       "video_length": "108000",
       "video_stream_index": -1,
       "video_timebase": {
        "den": 30,
        "num": 1
       },
       "width": 1280
      },
      "rotation": {
       "Points": [
        {
         "co": {
          "X": 1,
          "Y": 0
         },
         "interpolation": 2
        }
       ]
      },
      "scale": 1,
      "scale_x": {
       "Points": [
        {
         "co": {
          "X": 1,
          "Y": 1
         },
         "interpolation": 2
        }
       ]
      },
      "scale_y": {
       "Points": [
        {
         "co": {
          "X": 1,
          "Y": 1
         },
         "interpolation": 2
        }
       ]
      },
      "shear_x": {
       "Points": [
        {
         "co": {
          "X": 1,
          "Y": 0
         },
         "interpolation": 2
        }
       ]
      },
      "shear_y": {
       "Points": [
        {
         "co": {
          "X": 1,
          "Y": 0
         },
         "interpolation": 2
        }
       ]
      },
      "start": 0,
      "time": {
       "Points": [
        {
         "co": {
          "X": 1,
          "Y": 1
         },
         "interpolation": 2
        }
       ]
      },
      "volume": {
       "Points": [
        {
         "co": {
          "X": 1,
          "Y": 1
         },
         "interpolation": 2
        }
       ]
      },
      "wave_color": {
       "alpha": {
        "Points": [
         {
          "co": {
           "X": 1,
           "Y": 255
          },
          "handle_left": {
           "X": 0.5,
           "Y": 1
          },
          "handle_right": {
           "X": 0.5,
           "Y": 0
          },
          "handle_type": 0,
          "interpolation": 0
         }
        ]
       },
       "blue": {
        "Points": [
         {
          "co": {
           "X": 1,
           "Y": 255
          },
          "handle_left": {
           "X": 0.5,
           "Y": 1
          },
          "handle_right": {
           "X": 0.5,
           "Y": 0
          },
          "handle_type": 0,
          "interpolation": 0
         }
        ]
       },
       "green": {
        "Points": [
         {
          "co": {
           "X": 1,
           "Y": 123
          },
          "handle_left": {
           "X": 0.5,
           "Y": 1
          },
          "handle_right": {
           "X": 0.5,
           "Y": 0
          },
          "handle_type": 0,
          "interpolation": 0
         }
        ]
       },
       "red": {
        "Points": [
         {
          "co": {
           "X": 1,
           "Y": 0
          },
          "handle_left": {
           "X": 0.5,
           "Y": 1
          },
          "handle_right": {
           "X": 0.5,
           "Y": 0
          },
          "handle_type": 0,
          "interpolation": 0
         }
        ]
       }
      },
      "waveform": false,
      "file_id": "03J93H2INZ",
      "title": "240_allelulia_give_thanks-2.png"
     },
     {
      "alpha": {
       "Points": [
        {
         "co": {
          "X": 1,
          "Y": 1
         },
         "interpolation": 2
        }
       ]
      },
      "anchor": 0,
      "channel_filter": {
       "Points": [
        {
         "co": {
          "X": 1,
          "Y": -1
         },
         "interpolation": 2
        }
       ]
      },
      "channel_mapping": {
       "Points": [
        {
         "co": {
          "X": 1,
          "Y": -1
         },
         "interpolation": 2
        }
       ]
      },
      "crop_height": {
       "Points": [
        {
         "co": {
          "X": 1,
          "Y": 1
         },
         "interpolation": 2
        }
       ]
      },
      "crop_width": {
       "Points": [
        {
         "co": {
          "X": 1,
          "Y": 1
         },
         "interpolation": 2
        }
       ]
      },
      "crop_x": {
       "Points": [
        {
         "co": {
          "X": 1,
          "Y": 0
         },
         "interpolation": 2
        }
       ]
      },
      "crop_y": {
       "Points": [
        {
         "co": {
          "X": 1,
          "Y": 0
         },
         "interpolation": 2
        }
       ]
      },
      "display": 0,
      "duration": 3600.0,
      "effects": [],
      "end": 29.5,
      "gravity": 4,
      "has_audio": {
       "Points": [
        {
         "co": {
          "X": 1,
          "Y": -1
         },
         "interpolation": 2
        }
       ]
      },
      "has_video": {
       "Points": [
        {
         "co": {
          "X": 1,
          "Y": -1
         },
         "interpolation": 2
        }
       ]
      },
      "id": "ZHZA9ZA36U",
      "layer": 6000000,
      "location_x": {
       "Points": [
        {
         "co": {
          "X": 1,
          "Y": 0
         },
         "interpolation": 2
        }
       ]
      },
      "location_y": {
       "Points": [
        {
         "co": {
          "X": 1,
          "Y": 0
         },
         "interpolation": 2
        }
       ]
      },
      "mixing": 0,
      "perspective_c1_x": {
       "Points": [
        {
         "co": {
          "X": 1,
          "Y": -1
         },
         "interpolation": 2
        }
       ]
      },
      "perspective_c1_y": {
       "Points": [
        {
         "co": {
          "X": 1,
          "Y": -1
         },
         "interpolation": 2
        }
       ]
      },
      "perspective_c2_x": {
       "Points": [
        {
         "co": {
          "X": 1,
          "Y": -1
         },
         "interpolation": 2
        }
       ]
      },
      "perspective_c2_y": {
       "Points": [
        {
         "co": {
          "X": 1,
          "Y": -1
         },
         "interpolation": 2
        }
       ]
      },
      "perspective_c3_x": {
       "Points": [
        {
         "co": {
          "X": 1,
          "Y": -1
         },
         "interpolation": 2
        }
       ]
      },
      "perspective_c3_y": {
       "Points": [
        {
         "co": {
          "X": 1,
          "Y": -1
         },
         "interpolation": 2
        }
       ]
      },
      "perspective_c4_x": {
       "Points": [
        {
         "co": {
          "X": 1,
          "Y": -1
         },
         "interpolation": 2
        }
       ]
      },
      "perspective_c4_y": {
       "Points": [
        {
         "co": {
          "X": 1,
          "Y": -1
         },
         "interpolation": 2
        }
       ]
      },
      "position": 50.849999999999994,
      "reader": {
       "acodec": "",
       "audio_bit_rate": 0,
       "audio_stream_index": -1,
       "audio_timebase": {
        "den": 1,
        "num": 1
       },
       "channel_layout": 4,
       "channels": 0,
       "display_ratio": {
        "den": 721,
        "num": 1280
       },
       "duration": 3600.0,
       "file_size": "3691520",
       "fps": {
        "den": 1,
        "num": 30
       },
       "has_audio": false,
       "has_single_image": true,
       "has_video": true,
       "height": 721,
       "interlaced_frame": false,
       "metadata": {},
       "path": "generated/240_allelulia_give_thanks-3.png",
       "pixel_format": -1,
       "pixel_ratio": {
        "den": 1,
        "num": 1
       },
       "sample_rate": 0,
       "top_field_first": true,
       "type": "QtImageReader",
       "vcodec": "",
       "video_bit_rate": 0,
       "video_length": "108000",
       "video_stream_index": -1,
       "video_timebase": {
        "den": 30,
        "num": 1
       },
       "width": 1280
      },
      "rotation": {
       "Points": [
        {
         "co": {
          "X": 1,
          "Y": 0
         },
         "interpolation": 2
        }
       ]
      },
      "scale": 1,
      "scale_x": {
       "Points": [
        {
         "co": {
          "X": 1,
          "Y": 1
         },
         "interpolation": 2
        }
       ]
      },
      "scale_y": {
       "Points": [
        {
         "co": {
          "X": 1,
          "Y": 1
         },
         "interpolation": 2
        }
       ]
      },
      "shear_x": {
       "Points": [
        {
         "co": {
          "X": 1,
          "Y": 0
         },
         "interpolation": 2
        }
       ]
      },
      "shear_y": {
       "Points": [
        {
         "co": {
          "X": 1,
          "Y": 0
         },
         "interpolation": 2
        }
       ]
      },
      "start": 0,
      "time": {
       "Points": [
        {
         "co": {
          "X": 1,
          "Y": 1
         },
         "interpolation": 2
        }
       ]
      },
      "volume": {
       "Points": [
        {
         "co": {
          "X": 1,
          "Y": 1
         },
         "interpolation": 2
        }
       ]
      },
      "wave_color": {
       "alpha": {
        "Points": [
         {
          "co": {
           "X": 1,
           "Y": 255
          },
          "handle_left": {
           "X": 0.5,
           "Y": 1
          },
          "handle_right": {
           "X": 0.5,
           "Y": 0
          },
          "handle_type": 0,
          "interpolation": 0
         }
        ]
       },
       "blue": {
        "Points": [
         {
          "co": {
           "X": 1,
           "Y": 255
          },
          "handle_left": {
           "X": 0.5,
           "Y": 1
          },
          "handle_right": {
           "X": 0.5,
           "Y": 0
          },
          "handle_type": 0,
          "interpolation": 0
         }
        ]
       },
       "green": {
        "Points": [
         {
          "co": {
           "X": 1,
           "Y": 123
          },
          "handle_left": {
           "X": 0.5,
           "Y": 1
          },
          "handle_right": {
           "X": 0.5,
           "Y": 0
          },
          "handle_type": 0,
          "interpolation": 0
         }
        ]
       },
       "red": {
        "Points": [
         {
          "co": {
           "X": 1,
           "Y": 0
          },
          "handle_left": {
           "X": 0.5,
           "Y": 1
          },
          "handle_right": {
           "X": 0.5,
           "Y": 0
          },
          "handle_type": 0,
          "interpolation": 0
         }
        ]
       }
      },
      "waveform": false,
      "file_id": "5VAPZ0XAUP",
      "title": "240_allelulia_give_thanks-3.png"
     }
    ]
   },
   {
    "type": "update",
    "key": [
     "clips",
     {
      "id": "C5G969ZVWP"
     }
    ],
    "value": {
     "id": "C5G969ZVWP",
     "layer": 6000000,
     "position": 77.7,
     "start": 0,
     "end": 10
    },
    "partial": false,
    "old_values": {
     "alpha": {
      "Points": [
       {
        "co": {
         "X": 1,
         "Y": 1
        },
        "interpolation": 2
       }
      ]
     },
     "anchor": 0,
     "channel_filter": {
      "Points": [
       {
        "co": {
         "X": 1,
         "Y": -1
        },
        "interpolation": 2
       }
      ]
     },
     "channel_mapping": {
      "Points": [
       {
        "co": {
         "X": 1,
         "Y": -1
        },
        "interpolation": 2
       }
      ]
     },
     "crop_height": {
      "Points": [
       {
        "co": {
         "X": 1,
         "Y": 1
        },
        "interpolation": 2
       }
      ]
     },
     "crop_width": {
      "Points": [
       {
        "co": {
         "X": 1,
         "Y": 1
        },
        "interpolation": 2
       }
      ]
     },
     "crop_x": {
      "Points": [
       {
        "co": {
         "X": 1,
         "Y": 0
        },
        "interpolation": 2
       }
      ]
     },
     "crop_y": {
      "Points": [
       {
        "co": {
         "X": 1,
         "Y": 0
        },
        "interpolation": 2
       }
      ]
     },
     "display": 0,
     "duration": 3600.0,
     "effects": [],
     "end": 10.0,
     "gravity": 4,
     "has_audio": {
      "Points": [
       {
        "co": {
         "X": 1,
         "Y": -1
        },
        "interpolation": 2
       }
      ]
     },
     "has_video": {
      "Points": [
       {
        "co": {
         "X": 1,
         "Y": -1
        },
        "interpolation": 2
       }
      ]
     },
     "id": "C5G969ZVWP",
     "layer": 6000000,
     "location_x": {
      "Points": [
       {
        "co": {
         "X": 1,
         "Y": 0
        },
        "interpolation": 2
       }
      ]
     },
     "location_y": {
      "Points": [
       {
        "co": {
         "X": 1,
         "Y": 0
        },
        "interpolation": 2
       }
      ]
     },
     "mixing": 0,
     "perspective_c1_x": {
      "Points": [
       {
        "co": {
         "X": 1,
         "Y": -1
        },
        "interpolation": 2
       }
      ]
     },
     "perspective_c1_y": {
      "Points": [
       {
        "co": {
         "X": 1,
         "Y": -1
        },
        "interpolation": 2
       }
      ]
     },
     "perspective_c2_x": {
      "Points": [
       {
        "co": {
         "X": 1,
         "Y": -1
        },
        "interpolation": 2
       }
      ]
     },
     "perspective_c2_y": {
      "Points": [
       {
        "co": {
         "X": 1,
         "Y": -1
        },
        "interpolation": 2
       }
      ]
     },
     "perspective_c3_x": {
      "Points": [
       {
        "co": {
         "X": 1,
         "Y": -1
        },
        "interpolation": 2
       }
      ]
     },
     "perspective_c3_y": {
      "Points": [
       {
        "co": {
         "X": 1,
         "Y": -1
        },
        "interpolation": 2
       }
      ]
     },
     "perspective_c4_x": {
      "Points": [
       {
        "co": {
         "X": 1,
         "Y": -1
        },
        "interpolation": 2
       }
      ]
     },
     "perspective_c4_y": {
      "Points": [
       {
        "co": {
         "X": 1,
         "Y": -1
        },
        "interpolation": 2
       }
      ]
     },
     "position": 61.949999999999996,
     "reader": {
      "acodec": "",
      "audio_bit_rate": 0,
      "audio_stream_index": -1,
      "audio_timebase": {
       "den": 1,
       "num": 1
      },
      "channel_layout": 4,
      "channels": 0,
      "display_ratio": {
       "den": 721,
       "num": 1280
      },
      "duration": 3600.0,
      "file_size": "3691520",
      "fps": {
       "den": 1,
       "num": 30
      },
      "has_audio": false,
      "has_single_image": true,
      "has_video": true,
      "height": 721,
      "interlaced_frame": false,
      "metadata": {},
      "path": "generated/240_allelulia_give_thanks-4.png",
      "pixel_format": -1,
      "pixel_ratio": {
       "den": 1,
       "num": 1
      },
      "sample_rate": 0,
      "top_field_first": true,
      "type": "QtImageReader",
      "vcodec": "",
      "video_bit_rate": 0,
      "video_length": "108000",
      "video_stream_index": -1,
      "video_timebase": {
       "den": 30,
       "num": 1
      },
      "width": 1280
     },
     "rotation": {
      "Points": [
       {
        "co": {
         "X": 1,
         "Y": 0
        },
        "interpolation": 2
       }
      ]
     },
     "scale": 1,
     "scale_x": {
      "Points": [
       {
        "co": {
         "X": 1,
         "Y": 1
        },
        "interpolation": 2
       }
      ]
     },
     "scale_y": {
      "Points": [
       {
        "co": {
         "X": 1,
         "Y": 1
        },
        "interpolation": 2
       }
      ]
     },
     "shear_x": {
      "Points": [
       {
        "co": {
         "X": 1,
         "Y": 0
        },
        "interpolation": 2
       }
      ]
     },
     "shear_y": {
      "Points": [
       {
        "co": {
         "X": 1,
         "Y": 0
        },
        "interpolation": 2
       }
      ]
     },
     "start": 0,
     "time": {
      "Points": [
       {
        "co": {
         "X": 1,
         "Y": 1
        },
        "interpolation": 2
       }
      ]
     },
     "volume": {
      "Points": [
       {
        "co": {
         "X": 1,
         "Y": 1
        },
        "interpolation": 2
       }
      ]
     },
     "wave_color": {
      "alpha": {
       "Points": [
        {
         "co": {
          "X": 1,
          "Y": 255
         },
         "handle_left": {
          "X": 0.5,
          "Y": 1
         },
         "handle_right": {
          "X": 0.5,
          "Y": 0
         },
         "handle_type": 0,
         "interpolation": 0
        }
       ]
      },
      "blue": {
       "Points": [
        {
         "co": {
          "X": 1,
          "Y": 255
         },
         "handle_left": {
          "X": 0.5,
          "Y": 1
         },
         "handle_right": {
          "X": 0.5,
          "Y": 0
         },
         "handle_type": 0,
         "interpolation": 0
        }
       ]
      },
      "green": {
       "Points": [
        {
         "co": {
          "X": 1,
          "Y": 123
         },
         "handle_left": {
          "X": 0.5,
          "Y": 1
         },
         "handle_right": {
          "X": 0.5,
          "Y": 0
         },
         "handle_type": 0,
         "interpolation": 0
        }
       ]
      },
      "red": {
       "Points": [
        {
         "co": {
          "X": 1,
          "Y": 0
         },
         "handle_left": {
          "X": 0.5,
          "Y": 1
         },
         "handle_right": {
          "X": 0.5,
          "Y": 0
         },
         "handle_type": 0,
         "interpolation": 0
        }
       ]
      }
     },
     "waveform": false,
     "file_id": "R0PJFNQQE1",
     "title": "240_allelulia_give_thanks-4.png"
    }
   },
   {
    "type": "insert",
    "key": [
     "effects"
    ],
    "value": {
     "id": "ZV0DDOKUKR",
     "layer": 6000000,
     "title": "Transition",
     "type": "Mask",
     "position": 77.7,
     "start": 0,
     "end": 2.6499999999999915,
     "brightness": {
      "Points": [
       {
        "co": {
         "X": 1,
         "Y": 1
        },
        "handle_left": {
         "X": 0.5,
         "Y": 1
        },
        "handle_right": {
         "X": 0.5,
         "Y": 0
        },
        "handle_type": 0,
        "interpolation": 0
       },
       {
        "co": {
         "X": 65,
         "Y": -1
        },
        "handle_left": {
         "X": 0.5,
         "Y": 1
        },
        "handle_right": {
         "X": 0.5,
         "Y": 0
        },
        "handle_type": 0,
        "interpolation": 0
       }
      ]
     },
     "contrast": {
      "Points": [
       {
        "co": {
         "X": 1,
         "Y": 3
        },
        "interpolation": 2
       }
      ]
     },
     "reader": {
      "acodec": "",
      "audio_bit_rate": 0,
      "audio_stream_index": -1,
      "audio_timebase": {
       "den": 1,
       "num": 1
      },
      "channel_layout": 4,
      "channels": 0,
      "display_ratio": {
       "den": 4,
       "num": 5
      },
      "duration": 3600,
      "file_size": "1658880",
      "fps": {
       "den": 1,
       "num": 30
      },
      "has_audio": false,
      "has_single_image": true,
      "has_video": true,
      "height": 576,
      "interlaced_frame": false,
      "metadata": {},
      "path": "@transitions/common/fade.svg",
      "pixel_format": -1,
      "pixel_ratio": {
       "den": 1,
       "num": 1
      },
      "sample_rate": 0,
      "top_field_first": true,
      "type": "QtImageReader",
      "vcodec": "",
      "video_bit_rate": 0,
      "video_length": "108000",
      "video_stream_index": -1,
      "video_timebase": {
       "den": 30,
       "num": 1
      },
      "width": 720
     },
     "replace_image": false
    },
    "partial": false,
    "old_values": [
     {
      "id": "KRJQ2LSCZM",
      "layer": 6000000,
      "title": "Transition",
      "type": "Mask",
      "position": 26.33333333333333,
      "start": 0,
      "end": 2.5833333333333393,
      "brightness": {
       "Points": [
        {
         "co": {
          "X": 1,
          "Y": 1
         },
         "handle_left": {
          "X": 0.5,
          "Y": 1
         },
         "handle_right": {
          "X": 0.5,
          "Y": 0
         },
         "handle_type": 0,
         "interpolation": 0
        },
        {
         "co": {
          "X": 63,
          "Y": -1
         },
         "handle_left": {
          "X": 0.5,
          "Y": 1
         },
         "handle_right": {
          "X": 0.5,
          "Y": 0
         },
         "handle_type": 0,
         "interpolation": 0
        }
       ]
      },
      "contrast": {
       "Points": [
        {
         "co": {
          "X": 1,
          "Y": 3
         },
         "interpolation": 2
        }
       ]
      },
      "reader": {
       "acodec": "",
       "audio_bit_rate": 0,
       "audio_stream_index": -1,
       "audio_timebase": {
        "den": 1,
        "num": 1
       },
       "channel_layout": 4,
       "channels": 0,
       "display_ratio": {
        "den": 4,
        "num": 5
       },
       "duration": 3600,
       "file_size": "1658880",
       "fps": {
        "den": 1,
        "num": 30
       },
       "has_audio": false,
       "has_single_image": true,
       "has_video": true,
       "height": 576,
       "interlaced_frame": false,
       "metadata": {},
       "path": "@transitions/common/fade.svg",
       "pixel_format": -1,
       "pixel_ratio": {
        "den": 1,
        "num": 1
       },
       "sample_rate": 0,
       "top_field_first": true,
       "type": "QtImageReader",
       "vcodec": "",
       "video_bit_rate": 0,
       "video_length": "108000",
       "video_stream_index": -1,
       "video_timebase": {
        "den": 30,
        "num": 1
       },
       "width": 720
      },
      "replace_image": false
     },
     {
      "id": "MR1C9GH5EV",
      "layer": 6000000,
      "title": "Transition",
      "type": "Mask",
      "position": 50.849999999999994,
      "start": 0,
      "end": 2.7333333333333343,
      "brightness": {
       "Points": [
        {
         "co": {
          "X": 1,
          "Y": 1
         },
         "handle_left": {
          "X": 0.5,
          "Y": 1
         },
         "handle_right": {
          "X": 0.5,
          "Y": 0
         },
         "handle_type": 0,
         "interpolation": 0
        },
        {
         "co": {
          "X": 67,
          "Y": -1
         },
         "handle_left": {
          "X": 0.5,
          "Y": 1
         },
         "handle_right": {
          "X": 0.5,
          "Y": 0
         },
         "handle_type": 0,
         "interpolation": 0
        }
       ]
      },
      "contrast": {
       "Points": [
        {
         "co": {
          "X": 1,
          "Y": 3
         },
         "interpolation": 2
        }
       ]
      },
      "reader": {
       "acodec": "",
       "audio_bit_rate": 0,
       "audio_stream_index": -1,
       "audio_timebase": {
        "den": 1,
        "num": 1
       },
       "channel_layout": 4,
       "channels": 0,
       "display_ratio": {
        "den": 4,
        "num": 5
       },
       "duration": 3600,
       "file_size": "1658880",
       "fps": {
        "den": 1,
        "num": 30
       },
       "has_audio": false,
       "has_single_image": true,
       "has_video": true,
       "height": 576,
       "interlaced_frame": false,
       "metadata": {},
       "path": "@transitions/common/fade.svg",
       "pixel_format": -1,
       "pixel_ratio": {
        "den": 1,
        "num": 1
       },
       "sample_rate": 0,
       "top_field_first": true,
       "type": "QtImageReader",
       "vcodec": "",
       "video_bit_rate": 0,
       "video_length": "108000",
       "video_stream_index": -1,
       "video_timebase": {
        "den": 30,
        "num": 1
       },
       "width": 720
      },
      "replace_image": false
     }
    ]
   },
   {
    "type": "update",
    "key": [
     "clips",
     {
      "id": "C5G969ZVWP"
     }
    ],
    "value": {
     "id": "C5G969ZVWP",
     "layer": 6000000,
     "position": 77.7,
     "start": 0,
     "end": 29.791666666666668
    },
    "partial": false,
    "old_values": {
     "alpha": {
      "Points": [
       {
        "co": {
         "X": 1,
         "Y": 1
        },
        "interpolation": 2
       }
      ]
     },
     "anchor": 0,
     "channel_filter": {
      "Points": [
       {
        "co": {
         "X": 1,
         "Y": -1
        },
        "interpolation": 2
       }
      ]
     },
     "channel_mapping": {
      "Points": [
       {
        "co": {
         "X": 1,
         "Y": -1
        },
        "interpolation": 2
       }
      ]
     },
     "crop_height": {
      "Points": [
       {
        "co": {
         "X": 1,
         "Y": 1
        },
        "interpolation": 2
       }
      ]
     },
     "crop_width": {
      "Points": [
       {
        "co": {
         "X": 1,
         "Y": 1
        },
        "interpolation": 2
       }
      ]
     },
     "crop_x": {
      "Points": [
       {
        "co": {
         "X": 1,
         "Y": 0
        },
        "interpolation": 2
       }
      ]
     },
     "crop_y": {
      "Points": [
       {
        "co": {
         "X": 1,
         "Y": 0
        },
        "interpolation": 2
       }
      ]
     },
     "display": 0,
     "duration": 3600.0,
     "effects": [],
     "end": 10,
     "gravity": 4,
     "has_audio": {
      "Points": [
       {
        "co": {
         "X": 1,
         "Y": -1
        },
        "interpolation": 2
       }
      ]
     },
     "has_video": {
      "Points": [
       {
        "co": {
         "X": 1,
         "Y": -1
        },
        "interpolation": 2
       }
      ]
     },
     "id": "C5G969ZVWP",
     "layer": 6000000,
     "location_x": {
      "Points": [
       {
        "co": {
         "X": 1,
         "Y": 0
        },
        "interpolation": 2
       }
      ]
     },
     "location_y": {
      "Points": [
       {
        "co": {
         "X": 1,
         "Y": 0
        },
        "interpolation": 2
       }
      ]
     },
     "mixing": 0,
     "perspective_c1_x": {
      "Points": [
       {
        "co": {
         "X": 1,
         "Y": -1
        },
        "interpolation": 2
       }
      ]
     },
     "perspective_c1_y": {
      "Points": [
       {
        "co": {
         "X": 1,
         "Y": -1
        },
        "interpolation": 2
       }
      ]
     },
     "perspective_c2_x": {
      "Points": [
       {
        "co": {
         "X": 1,
         "Y": -1
        },
        "interpolation": 2
       }
      ]
     },
     "perspective_c2_y": {
      "Points": [
       {
        "co": {
         "X": 1,
         "Y": -1
        },
        "interpolation": 2
       }
      ]
     },
     "perspective_c3_x": {
      "Points": [
       {
        "co": {
         "X": 1,
         "Y": -1
        },
        "interpolation": 2
       }
      ]
     },
     "perspective_c3_y": {
      "Points": [
       {
        "co": {
         "X": 1,
         "Y": -1
        },
        "interpolation": 2
       }
      ]
     },
     "perspective_c4_x": {
      "Points": [
       {
        "co": {
         "X": 1,
         "Y": -1
        },
        "interpolation": 2
       }
      ]
     },
     "perspective_c4_y": {
      "Points": [
       {
        "co": {
         "X": 1,
         "Y": -1
        },
        "interpolation": 2
       }
      ]
     },
     "position": 77.7,
     "reader": {
      "acodec": "",
      "audio_bit_rate": 0,
      "audio_stream_index": -1,
      "audio_timebase": {
       "den": 1,
       "num": 1
      },
      "channel_layout": 4,
      "channels": 0,
      "display_ratio": {
       "den": 721,
       "num": 1280
      },
      "duration": 3600.0,
      "file_size": "3691520",
      "fps": {
       "den": 1,
       "num": 30
      },
      "has_audio": false,
      "has_single_image": true,
      "has_video": true,
      "height": 721,
      "interlaced_frame": false,
      "metadata": {},
      "path": "generated/240_allelulia_give_thanks-4.png",
      "pixel_format": -1,
      "pixel_ratio": {
       "den": 1,
       "num": 1
      },
      "sample_rate": 0,
      "top_field_first": true,
      "type": "QtImageReader",
      "vcodec": "",
      "video_bit_rate": 0,
      "video_length": "108000",
      "video_stream_index": -1,
      "video_timebase": {
       "den": 30,
       "num": 1
      },
      "width": 1280
     },
     "rotation": {
      "Points": [
       {
        "co": {
         "X": 1,
         "Y": 0
        },
        "interpolation": 2
       }
      ]
     },
     "scale": 1,
     "scale_x": {
      "Points": [
       {
        "co": {
         "X": 1,
         "Y": 1
        },
        "interpolation": 2
       }
      ]
     },
     "scale_y": {
      "Points": [
       {
        "co": {
         "X": 1,
         "Y": 1
        },
        "interpolation": 2
       }
      ]
     },
     "shear_x": {
      "Points": [
       {
        "co": {
         "X": 1,
         "Y": 0
        },
        "interpolation": 2
       }
      ]
     },
     "shear_y": {
      "Points": [
       {
        "co": {
         "X": 1,
         "Y": 0
        },
        "interpolation": 2
       }
      ]
     },
     "start": 0,
     "time": {
      "Points": [
       {
        "co": {
         "X": 1,
         "Y": 1
        },
        "interpolation": 2
       }
      ]
     },
     "volume": {
      "Points": [
       {
        "co": {
         "X": 1,
         "Y": 1
        },
        "interpolation": 2
       }
      ]
     },
     "wave_color": {
      "alpha": {
       "Points": [
        {
         "co": {
          "X": 1,
          "Y": 255
         },
         "handle_left": {
          "X": 0.5,
          "Y": 1
         },
         "handle_right": {
          "X": 0.5,
          "Y": 0
         },
         "handle_type": 0,
         "interpolation": 0
        }
       ]
      },
      "blue": {
       "Points": [
        {
         "co": {
          "X": 1,
          "Y": 255
         },
         "handle_left": {
          "X": 0.5,
          "Y": 1
         },
         "handle_right": {
          "X": 0.5,
          "Y": 0
         },
         "handle_type": 0,
         "interpolation": 0
        }
       ]
      },
      "green": {
       "Points": [
        {
         "co": {
          "X": 1,
          "Y": 123
         },
         "handle_left": {
          "X": 0.5,
          "Y": 1
         },
         "handle_right": {
          "X": 0.5,
          "Y": 0
         },
         "handle_type": 0,
         "interpolation": 0
        }
       ]
      },
      "red": {
       "Points": [
        {
         "co": {
          "X": 1,
          "Y": 0
         },
         "handle_left": {
          "X": 0.5,
          "Y": 1
         },
         "handle_right": {
          "X": 0.5,
          "Y": 0
         },
         "handle_type": 0,
         "interpolation": 0
        }
       ]
      }
     },
     "waveform": false,
     "file_id": "R0PJFNQQE1",
     "title": "240_allelulia_give_thanks-4.png"
    }
   },
   {
    "type": "insert",
    "key": [
     "clips"
    ],
    "value": {
     "alpha": {
      "Points": [
       {
        "co": {
         "X": 1,
         "Y": 1
        },
        "interpolation": 2
       }
      ]
     },
     "anchor": 0,
     "channel_filter": {
      "Points": [
       {
        "co": {
         "X": 1,
         "Y": -1
        },
        "interpolation": 2
       }
      ]
     },
     "channel_mapping": {
      "Points": [
       {
        "co": {
         "X": 1,
         "Y": -1
        },
        "interpolation": 2
       }
      ]
     },
     "crop_height": {
      "Points": [
       {
        "co": {
         "X": 1,
         "Y": 1
        },
        "interpolation": 2
       }
      ]
     },
     "crop_width": {
      "Points": [
       {
        "co": {
         "X": 1,
         "Y": 1
        },
        "interpolation": 2
       }
      ]
     },
     "crop_x": {
      "Points": [
       {
        "co": {
         "X": 1,
         "Y": 0
        },
        "interpolation": 2
       }
      ]
     },
     "crop_y": {
      "Points": [
       {
        "co": {
         "X": 1,
         "Y": 0
        },
        "interpolation": 2
       }
      ]
     },
     "display": 0,
     "duration": 3600.0,
     "effects": [],
     "end": 35.208333333333336,
     "gravity": 4,
     "has_audio": {
      "Points": [
       {
        "co": {
         "X": 1,
         "Y": -1
        },
        "interpolation": 2
       }
      ]
     },
     "has_video": {
      "Points": [
       {
        "co": {
         "X": 1,
         "Y": -1
        },
        "interpolation": 2
       }
      ]
     },
     "id": "DE994N4JS4",
     "layer": 6000000,
     "location_x": {
      "Points": [
       {
        "co": {
         "X": 1,
         "Y": 0
        },
        "interpolation": 2
       }
      ]
     },
     "location_y": {
      "Points": [
       {
        "co": {
         "X": 1,
         "Y": 0
        },
        "interpolation": 2
       }
      ]
     },
     "mixing": 0,
     "perspective_c1_x": {
      "Points": [
       {
        "co": {
         "X": 1,
         "Y": -1
        },
        "interpolation": 2
       }
      ]
     },
     "perspective_c1_y": {
      "Points": [
       {
        "co": {
         "X": 1,
         "Y": -1
        },
        "interpolation": 2
       }
      ]
     },
     "perspective_c2_x": {
      "Points": [
       {
        "co": {
         "X": 1,
         "Y": -1
        },
        "interpolation": 2
       }
      ]
     },
     "perspective_c2_y": {
      "Points": [
       {
        "co": {
         "X": 1,
         "Y": -1
        },
        "interpolation": 2
       }
      ]
     },
     "perspective_c3_x": {
      "Points": [
       {
        "co": {
         "X": 1,
         "Y": -1
        },
        "interpolation": 2
       }
      ]
     },
     "perspective_c3_y": {
      "Points": [
       {
        "co": {
         "X": 1,
         "Y": -1
        },
        "interpolation": 2
       }
      ]
     },
     "perspective_c4_x": {
      "Points": [
       {
        "co": {
         "X": 1,
         "Y": -1
        },
        "interpolation": 2
       }
      ]
     },
     "perspective_c4_y": {
      "Points": [
       {
        "co": {
         "X": 1,
         "Y": -1
        },
        "interpolation": 2
       }
      ]
     },
     "position": 103.94999999999999,
     "reader": {
      "acodec": "",
      "audio_bit_rate": 0,
      "audio_stream_index": -1,
      "audio_timebase": {
       "den": 1,
       "num": 1
      },
      "channel_layout": 4,
      "channels": 0,
      "display_ratio": {
       "den": 721,
       "num": 1280
      },
      "duration": 3600.0,
      "file_size": "3691520",
      "fps": {
       "den": 1,
       "num": 30
      },
      "has_audio": false,
      "has_single_image": true,
      "has_video": true,
      "height": 721,
      "interlaced_frame": false,
      "metadata": {},
      "path": "generated/240_allelulia_give_thanks-5.png",
      "pixel_format": -1,
      "pixel_ratio": {
       "den": 1,
       "num": 1
      },
      "sample_rate": 0,
      "top_field_first": true,
      "type": "QtImageReader",
      "vcodec": "",
      "video_bit_rate": 0,
      "video_length": "108000",
      "video_stream_index": -1,
      "video_timebase": {
       "den": 30,
       "num": 1
      },
      "width": 1280
     },
     "rotation": {
      "Points": [
       {
        "co": {
         "X": 1,
         "Y": 0
        },
        "interpolation": 2
       }
      ]
     },
     "scale": 1,
     "scale_x": {
      "Points": [
       {
        "co": {
         "X": 1,
         "Y": 1
        },
        "interpolation": 2
       }
      ]
     },
     "scale_y": {
      "Points": [
       {
        "co": {
         "X": 1,
         "Y": 1
        },
        "interpolation": 2
       }
      ]
     },
     "shear_x": {
      "Points": [
       {
        "co": {
         "X": 1,
         "Y": 0
        },
        "interpolation": 2
       }
      ]
     },
     "shear_y": {
      "Points": [
       {
        "co": {
         "X": 1,
         "Y": 0
        },
        "interpolation": 2
       }
      ]
     },
     "start": 0,
     "time": {
      "Points": [
       {
        "co": {
         "X": 1,
         "Y": 1
        },
        "interpolation": 2
       }
      ]
     },
     "volume": {
      "Points": [
       {
        "co": {
         "X": 1,
         "Y": 1
        },
        "interpolation": 2
       }
      ]
     },
     "wave_color": {
      "alpha": {
       "Points": [
        {
         "co": {
          "X": 1,
          "Y": 255
         },
         "handle_left": {
          "X": 0.5,
          "Y": 1
         },
         "handle_right": {
          "X": 0.5,
          "Y": 0
         },
         "handle_type": 0,
         "interpolation": 0
        }
       ]
      },
      "blue": {
       "Points": [
        {
         "co": {
          "X": 1,
          "Y": 255
         },
         "handle_left": {
          "X": 0.5,
          "Y": 1
         },
         "handle_right": {
          "X": 0.5,
          "Y": 0
         },
         "handle_type": 0,
         "interpolation": 0
        }
       ]
      },
      "green": {
       "Points": [
        {
         "co": {
          "X": 1,
          "Y": 123
         },
         "handle_left": {
          "X": 0.5,
          "Y": 1
         },
         "handle_right": {
          "X": 0.5,
          "Y": 0
         },
         "handle_type": 0,
         "interpolation": 0
        }
       ]
      },
      "red": {
       "Points": [
        {
         "co": {
          "X": 1,
          "Y": 0
         },
         "handle_left": {
          "X": 0.5,
          "Y": 1
         },
         "handle_right": {
          "X": 0.5,
          "Y": 0
         },
         "handle_type": 0,
         "interpolation": 0
        }
       ]
      }
     },
     "waveform": false,
     "file_id": "HDUSPFUYCT",
     "title": "240_allelulia_give_thanks-5.png"
    },
    "partial": false,
    "old_values": [
     {
      "alpha": {
       "Points": [
        {
         "co": {
          "X": 1,
          "Y": 1
         },
         "interpolation": 2
        }
       ]
      },
      "anchor": 0,
      "channel_filter": {
       "Points": [
        {
         "co": {
          "X": 1,
          "Y": -1
         },
         "interpolation": 2
        }
       ]
      },
      "channel_mapping": {
       "Points": [
        {
         "co": {
          "X": 1,
          "Y": -1
         },
         "interpolation": 2
        }
       ]
      },
      "crop_height": {
       "Points": [
        {
         "co": {
          "X": 1,
          "Y": 1
         },
         "interpolation": 2
        }
       ]
      },
      "crop_width": {
       "Points": [
        {
         "co": {
          "X": 1,
          "Y": 1
         },
         "interpolation": 2
        }
       ]
      },
      "crop_x": {
       "Points": [
        {
         "co": {
          "X": 1,
          "Y": 0
         },
         "interpolation": 2
        }
       ]
      },
      "crop_y": {
       "Points": [
        {
         "co": {
          "X": 1,
          "Y": 0
         },
         "interpolation": 2
        }
       ]
      },
      "display": 0,
      "duration": 138.710205078125,
      "effects": [],
      "end": 138.710205078125,
      "gravity": 4,
      "has_audio": {
       "Points": [
        {
         "co": {
          "X": 1,
          "Y": -1
         },
         "interpolation": 2
        }
       ]
      },
      "has_video": {
       "Points": [
        {
         "co": {
          "X": 1,
          "Y": -1
         },
         "interpolation": 2
        }
       ]
      },
      "id": "ASHR3UX8IY",
      "layer": 5000000,
      "location_x": {
       "Points": [
        {
         "co": {
          "X": 1,
          "Y": 0
         },
         "interpolation": 2
        }
       ]
      },
      "location_y": {
       "Points": [
        {
         "co": {
          "X": 1,
          "Y": 0
         },
         "interpolation": 2
        }
       ]
      },
      "mixing": 0,
      "perspective_c1_x": {
       "Points": [
        {
         "co": {
          "X": 1,
          "Y": -1
         },
         "interpolation": 2
        }
       ]
      },
      "perspective_c1_y": {
       "Points": [
        {
         "co": {
          "X": 1,
          "Y": -1
         },
         "interpolation": 2
        }
       ]
      },
      "perspective_c2_x": {
       "Points": [
        {
         "co": {
          "X": 1,
          "Y": -1
         },
         "interpolation": 2
        }
       ]
      },
      "perspective_c2_y": {
       "Points": [
        {
         "co": {
          "X": 1,
          "Y": -1
         },
         "interpolation": 2
        }
       ]
      },
      "perspective_c3_x": {
       "Points": [
        {
         "co": {
          "X": 1,
          "Y": -1
         },
         "interpolation": 2
        }
       ]
      },
      "perspective_c3_y": {
       "Points": [
        {
         "co": {
          "X": 1,
          "Y": -1
         },
         "interpolation": 2
        }
       ]
      },
      "perspective_c4_x": {
       "Points": [
        {
         "co": {
          "X": 1,
          "Y": -1
         },
         "interpolation": 2
        }
       ]
      },
      "perspective_c4_y": {
       "Points": [
        {
         "co": {
          "X": 1,
          "Y": -1
         },
         "interpolation": 2
        }
       ]
      },
      "position": 0,
      "reader": {
       "acodec": "mp3float",
       "audio_bit_rate": 179292,
       "audio_stream_index": 0,
       "audio_timebase": {
        "den": 14112000,
        "num": 1
       },
       "channel_layout": 3,
       "channels": 2,
       "display_ratio": {
        "den": 1,
        "num": 1
       },
       "duration": 138.710205078125,
       "file_size": "3108707",
       "fps": {
        "den": 1,
        "num": 24
       },
       "has_audio": true,
       "has_single_image": false,
       "has_video": false,
       "height": 480,
       "interlaced_frame": false,
       "metadata": {
        "encoder": "LAME3.100"
       },
       "path": "./240 Alleluia Alleluia with Singers.mp3",
       "pixel_format": -1,
       "pixel_ratio": {
        "den": 1,
        "num": 1
       },
       "sample_rate": 44100,
       "top_field_first": true,
       "type": "FFmpegReader",
       "vcodec": "",
       "video_bit_rate": 0,
       "video_length": "3329",
       "video_stream_index": -1,
       "video_timebase": {
        "den": 24,
        "num": 1
       },
       "width": 720
      },
      "rotation": {
       "Points": [
        {
         "co": {
          "X": 1,
          "Y": 0
         },
         "interpolation": 2
        }
       ]
      },
      "scale": 1,
      "scale_x": {
       "Points": [
        {
         "co": {
          "X": 1,
          "Y": 1
         },
         "interpolation": 2
        }
       ]
      },
      "scale_y": {
       "Points": [
        {
         "co": {
          "X": 1,
          "Y": 1
         },
         "interpolation": 2
        }
       ]
      },
      "shear_x": {
       "Points": [
        {
         "co": {
          "X": 1,
          "Y": 0
         },
         "interpolation": 2
        }
       ]
      },
      "shear_y": {
       "Points": [
        {
         "co": {
          "X": 1,
          "Y": 0
         },
         "interpolation": 2
        }
       ]
      },
      "start": 0,
      "time": {
       "Points": [
        {
         "co": {
          "X": 1,
          "Y": 1
         },
         "interpolation": 2
        }
       ]
      },
      "volume": {
       "Points": [
        {
         "co": {
          "X": 1,
          "Y": 1
         },
         "interpolation": 2
        }
       ]
      },
      "wave_color": {
       "alpha": {
        "Points": [
         {
          "co": {
           "X": 1,
           "Y": 255
          },
          "handle_left": {
           "X": 0.5,
           "Y": 1
          },
          "handle_right": {
           "X": 0.5,
           "Y": 0
          },
          "handle_type": 0,
          "interpolation": 0
         }
        ]
       },
       "blue": {
        "Points": [
         {
          "co": {
           "X": 1,
           "Y": 255
          },
          "handle_left": {
           "X": 0.5,
           "Y": 1
          },
          "handle_right": {
           "X": 0.5,
           "Y": 0
          },
          "handle_type": 0,
          "interpolation": 0
         }
        ]
       },
       "green": {
        "Points": [
         {
          "co": {
           "X": 1,
           "Y": 123
          },
          "handle_left": {
           "X": 0.5,
           "Y": 1
          },
          "handle_right": {
           "X": 0.5,
           "Y": 0
          },
          "handle_type": 0,
          "interpolation": 0
         }
        ]
       },
       "red": {
        "Points": [
         {
          "co": {
           "X": 1,
           "Y": 0
          },
          "handle_left": {
           "X": 0.5,
           "Y": 1
          },
          "handle_right": {
           "X": 0.5,
           "Y": 0
          },
          "handle_type": 0,
          "interpolation": 0
         }
        ]
       }
      },
      "waveform": false,
      "file_id": "XGTGN70GJK",
      "title": "240 Alleluia Alleluia with Singers.mp3"
     },
     {
      "alpha": {
       "Points": [
        {
         "co": {
          "X": 1,
          "Y": 1
         },
         "interpolation": 2
        }
       ]
      },
      "anchor": 0,
      "channel_filter": {
       "Points": [
        {
         "co": {
          "X": 1,
          "Y": -1
         },
         "interpolation": 2
        }
       ]
      },
      "channel_mapping": {
       "Points": [
        {
         "co": {
          "X": 1,
          "Y": -1
         },
         "interpolation": 2
        }
       ]
      },
      "crop_height": {
       "Points": [
        {
         "co": {
          "X": 1,
          "Y": 1
         },
         "interpolation": 2
        }
       ]
      },
      "crop_width": {
       "Points": [
        {
         "co": {
          "X": 1,
          "Y": 1
         },
         "interpolation": 2
        }
       ]
      },
      "crop_x": {
       "Points": [
        {
         "co": {
          "X": 1,
          "Y": 0
         },
         "interpolation": 2
        }
       ]
      },
      "crop_y": {
       "Points": [
        {
         "co": {
          "X": 1,
          "Y": 0
         },
         "interpolation": 2
        }
       ]
      },
      "display": 0,
      "duration": 3600.0,
      "effects": [],
      "end": 28.916666666666668,
      "gravity": 4,
      "has_audio": {
       "Points": [
        {
         "co": {
          "X": 1,
          "Y": -1
         },
         "interpolation": 2
        }
       ]
      },
      "has_video": {
       "Points": [
        {
         "co": {
          "X": 1,
          "Y": -1
         },
         "interpolation": 2
        }
       ]
      },
      "id": "H10WKM1J0R",
      "layer": 6000000,
      "location_x": {
       "Points": [
        {
         "co": {
          "X": 1,
          "Y": 0
         },
         "interpolation": 2
        }
       ]
      },
      "location_y": {
       "Points": [
        {
         "co": {
          "X": 1,
          "Y": 0
         },
         "interpolation": 2
        }
       ]
      },
      "mixing": 0,
      "perspective_c1_x": {
       "Points": [
        {
         "co": {
          "X": 1,
          "Y": -1
         },
         "interpolation": 2
        }
       ]
      },
      "perspective_c1_y": {
       "Points": [
        {
         "co": {
          "X": 1,
          "Y": -1
         },
         "interpolation": 2
        }
       ]
      },
      "perspective_c2_x": {
       "Points": [
        {
         "co": {
          "X": 1,
          "Y": -1
         },
         "interpolation": 2
        }
       ]
      },
      "perspective_c2_y": {
       "Points": [
        {
         "co": {
          "X": 1,
          "Y": -1
         },
         "interpolation": 2
        }
       ]
      },
      "perspective_c3_x": {
       "Points": [
        {
         "co": {
          "X": 1,
          "Y": -1
         },
         "interpolation": 2
        }
       ]
      },
      "perspective_c3_y": {
       "Points": [
        {
         "co": {
          "X": 1,
          "Y": -1
         },
         "interpolation": 2
        }
       ]
      },
      "perspective_c4_x": {
       "Points": [
        {
         "co": {
          "X": 1,
          "Y": -1
         },
         "interpolation": 2
        }
       ]
      },
      "perspective_c4_y": {
       "Points": [
        {
         "co": {
          "X": 1,
          "Y": -1
         },
         "interpolation": 2
        }
       ]
      },
      "position": 0,
      "reader": {
       "acodec": "",
       "audio_bit_rate": 0,
       "audio_stream_index": -1,
       "audio_timebase": {
        "den": 1,
        "num": 1
       },
       "channel_layout": 4,
       "channels": 0,
       "display_ratio": {
        "den": 721,
        "num": 1280
       },
       "duration": 3600.0,
       "file_size": "3691520",
       "fps": {
        "den": 1,
        "num": 30
       },
       "has_audio": false,
       "has_single_image": true,
       "has_video": true,
       "height": 721,
       "interlaced_frame": false,
       "metadata": {},
       "path": "generated/240_allelulia_give_thanks-1.png",
       "pixel_format": -1,
       "pixel_ratio": {
        "den": 1,
        "num": 1
       },
       "sample_rate": 0,
       "top_field_first": true,
       "type": "QtImageReader",
       "vcodec": "",
       "video_bit_rate": 0,
       "video_length": "108000",
       "video_stream_index": -1,
       "video_timebase": {
        "den": 30,
        "num": 1
       },
       "width": 1280
      },
      "rotation": {
       "Points": [
        {
         "co": {
          "X": 1,
          "Y": 0
         },
         "interpolation": 2
        }
       ]
      },
      "scale": 1,
      "scale_x": {
       "Points": [
        {
         "co": {
          "X": 1,
          "Y": 1
         },
         "interpolation": 2
        }
       ]
      },
      "scale_y": {
       "Points": [
        {
         "co": {
          "X": 1,
          "Y": 1
         },
         "interpolation": 2
        }
       ]
      },
      "shear_x": {
       "Points": [
        {
         "co": {
          "X": 1,
          "Y": 0
         },
         "interpolation": 2
        }
       ]
      },
      "shear_y": {
       "Points": [
        {
         "co": {
          "X": 1,
          "Y": 0
         },
         "interpolation": 2
        }
       ]
      },
      "start": 0,
      "time": {
       "Points": [
        {
         "co": {
          "X": 1,
          "Y": 1
         },
         "interpolation": 2
        }
       ]
      },
      "volume": {
       "Points": [
        {
         "co": {
          "X": 1,
          "Y": 1
         },
         "interpolation": 2
        }
       ]
      },
      "wave_color": {
       "alpha": {
        "Points": [
         {
          "co": {
           "X": 1,
           "Y": 255
          },
          "handle_left": {
           "X": 0.5,
           "Y": 1
          },
          "handle_right": {
           "X": 0.5,
           "Y": 0
          },
          "handle_type": 0,
          "interpolation": 0
         }
        ]
       },
       "blue": {
        "Points": [
         {
          "co": {
           "X": 1,
           "Y": 255
          },
          "handle_left": {
           "X": 0.5,
           "Y": 1
          },
          "handle_right": {
           "X": 0.5,
           "Y": 0
          },
          "handle_type": 0,
          "interpolation": 0
         }
        ]
       },
       "green": {
        "Points": [
         {
          "co": {
           "X": 1,
           "Y": 123
          },
          "handle_left": {
           "X": 0.5,
           "Y": 1
          },
          "handle_right": {
           "X": 0.5,
           "Y": 0
          },
          "handle_type": 0,
          "interpolation": 0
         }
        ]
       },
       "red": {
        "Points": [
         {
          "co": {
           "X": 1,
           "Y": 0
          },
          "handle_left": {
           "X": 0.5,
           "Y": 1
          },
          "handle_right": {
           "X": 0.5,
           "Y": 0
          },
          "handle_type": 0,
          "interpolation": 0
         }
        ]
       }
      },
      "waveform": false,
      "file_id": "C1BCNGB69H",
      "title": "240_allelulia_give_thanks-1.png"
     },
     {
      "alpha": {
       "Points": [
        {
         "co": {
          "X": 1,
          "Y": 1
         },
         "interpolation": 2
        }
       ]
      },
      "anchor": 0,
      "channel_filter": {
       "Points": [
        {
         "co": {
          "X": 1,
          "Y": -1
         },
         "interpolation": 2
        }
       ]
      },
      "channel_mapping": {
       "Points": [
        {
         "co": {
          "X": 1,
          "Y": -1
         },
         "interpolation": 2
        }
       ]
      },
      "crop_height": {
       "Points": [
        {
         "co": {
          "X": 1,
          "Y": 1
         },
         "interpolation": 2
        }
       ]
      },
      "crop_width": {
       "Points": [
        {
         "co": {
          "X": 1,
          "Y": 1
         },
         "interpolation": 2
        }
       ]
      },
      "crop_x": {
       "Points": [
        {
         "co": {
          "X": 1,
          "Y": 0
         },
         "interpolation": 2
        }
       ]
      },
      "crop_y": {
       "Points": [
        {
         "co": {
          "X": 1,
          "Y": 0
         },
         "interpolation": 2
        }
       ]
      },
      "display": 0,
      "duration": 3600.0,
      "effects": [],
      "end": 27.25,
      "gravity": 4,
      "has_audio": {
       "Points": [
        {
         "co": {
          "X": 1,
          "Y": -1
         },
         "interpolation": 2
        }
       ]
      },
      "has_video": {
       "Points": [
        {
         "co": {
          "X": 1,
          "Y": -1
         },
         "interpolation": 2
        }
       ]
      },
      "id": "ZARBOHDFSQ",
      "layer": 6000000,
      "location_x": {
       "Points": [
        {
         "co": {
          "X": 1,
          "Y": 0
         },
         "interpolation": 2
        }
       ]
      },
      "location_y": {
       "Points": [
        {
         "co": {
          "X": 1,
          "Y": 0
         },
         "interpolation": 2
        }
       ]
      },
      "mixing": 0,
      "perspective_c1_x": {
       "Points": [
        {
         "co": {
          "X": 1,
          "Y": -1
         },
         "interpolation": 2
        }
       ]
      },
      "perspective_c1_y": {
       "Points": [
        {
         "co": {
          "X": 1,
          "Y": -1
         },
         "interpolation": 2
        }
       ]
      },
      "perspective_c2_x": {
       "Points": [
        {
         "co": {
          "X": 1,
          "Y": -1
         },
         "interpolation": 2
        }
       ]
      },
      "perspective_c2_y": {
       "Points": [
        {
         "co": {
          "X": 1,
          "Y": -1
         },
         "interpolation": 2
        }
       ]
      },
      "perspective_c3_x": {
       "Points": [
        {
         "co": {
          "X": 1,
          "Y": -1
         },
         "interpolation": 2
        }
       ]
      },
      "perspective_c3_y": {
       "Points": [
        {
         "co": {
          "X": 1,
          "Y": -1
         },
         "interpolation": 2
        }
       ]
      },
      "perspective_c4_x": {
       "Points": [
        {
         "co": {
          "X": 1,
          "Y": -1
         },
         "interpolation": 2
        }
       ]
      },
      "perspective_c4_y": {
       "Points": [
        {
         "co": {
          "X": 1,
          "Y": -1
         },
         "interpolation": 2
        }
       ]
      },
      "position": 26.33333333333333,
      "reader": {
       "acodec": "",
       "audio_bit_rate": 0,
       "audio_stream_index": -1,
       "audio_timebase": {
        "den": 1,
        "num": 1
       },
       "channel_layout": 4,
       "channels": 0,
       "display_ratio": {
        "den": 721,
        "num": 1280
       },
       "duration": 3600.0,
       "file_size": "3691520",
       "fps": {
        "den": 1,
        "num": 30
       },
       "has_audio": false,
       "has_single_image": true,
       "has_video": true,
       "height": 721,
       "interlaced_frame": false,
       "metadata": {},
       "path": "generated/240_allelulia_give_thanks-2.png",
       "pixel_format": -1,
       "pixel_ratio": {
        "den": 1,
        "num": 1
       },
       "sample_rate": 0,
       "top_field_first": true,
       "type": "QtImageReader",
       "vcodec": "",
       "video_bit_rate": 0,
       "video_length": "108000",
       "video_stream_index": -1,
       "video_timebase": {
        "den": 30,
        "num": 1
       },
       "width": 1280
      },
      "rotation": {
       "Points": [
        {
         "co": {
          "X": 1,
          "Y": 0
         },
         "interpolation": 2
        }
       ]
      },
      "scale": 1,
      "scale_x": {
       "Points": [
        {
         "co": {
          "X": 1,
          "Y": 1
         },
         "interpolation": 2
        }
       ]
      },
      "scale_y": {
       "Points": [
        {
         "co": {
          "X": 1,
          "Y": 1
         },
         "interpolation": 2
        }
       ]
      },
      "shear_x": {
       "Points": [
        {
         "co": {
          "X": 1,
          "Y": 0
         },
         "interpolation": 2
        }
       ]
      },
      "shear_y": {
       "Points": [
        {
         "co": {
          "X": 1,
          "Y": 0
         },
         "interpolation": 2
        }
       ]
      },
      "start": 0,
      "time": {
       "Points": [
        {
         "co": {
          "X": 1,
          "Y": 1
         },
         "interpolation": 2
        }
       ]
      },
      "volume": {
       "Points": [
        {
         "co": {
          "X": 1,
          "Y": 1
         },
         "interpolation": 2
        }
       ]
      },
      "wave_color": {
       "alpha": {
        "Points": [
         {
          "co": {
           "X": 1,
           "Y": 255
          },
          "handle_left": {
           "X": 0.5,
           "Y": 1
          },
          "handle_right": {
           "X": 0.5,
           "Y": 0
          },
          "handle_type": 0,
          "interpolation": 0
         }
        ]
       },
       "blue": {
        "Points": [
         {
          "co": {
           "X": 1,
           "Y": 255
          },
          "handle_left": {
           "X": 0.5,
           "Y": 1
          },
          "handle_right": {
           "X": 0.5,
           "Y": 0
          },
          "handle_type": 0,
          "interpolation": 0
         }
        ]
       },
       "green": {
        "Points": [
         {
          "co": {
           "X": 1,
           "Y": 123
          },
          "handle_left": {
           "X": 0.5,
           "Y": 1
          },
          "handle_right": {
           "X": 0.5,
           "Y": 0
          },
          "handle_type": 0,
          "interpolation": 0
         }
        ]
       },
       "red": {
        "Points": [
         {
          "co": {
           "X": 1,
           "Y": 0
          },
          "handle_left": {
           "X": 0.5,
           "Y": 1
          },
          "handle_right": {
           "X": 0.5,
           "Y": 0
          },
          "handle_type": 0,
          "interpolation": 0
         }
        ]
       }
      },
      "waveform": false,
      "file_id": "03J93H2INZ",
      "title": "240_allelulia_give_thanks-2.png"
     },
     {
      "alpha": {
       "Points": [
        {
         "co": {
          "X": 1,
          "Y": 1
         },
         "interpolation": 2
        }
       ]
      },
      "anchor": 0,
      "channel_filter": {
       "Points": [
        {
         "co": {
          "X": 1,
          "Y": -1
         },
         "interpolation": 2
        }
       ]
      },
      "channel_mapping": {
       "Points": [
        {
         "co": {
          "X": 1,
          "Y": -1
         },
         "interpolation": 2
        }
       ]
      },
      "crop_height": {
       "Points": [
        {
         "co": {
          "X": 1,
          "Y": 1
         },
         "interpolation": 2
        }
       ]
      },
      "crop_width": {
       "Points": [
        {
         "co": {
          "X": 1,
          "Y": 1
         },
         "interpolation": 2
        }
       ]
      },
      "crop_x": {
       "Points": [
        {
         "co": {
          "X": 1,
          "Y": 0
         },
         "interpolation": 2
        }
       ]
      },
      "crop_y": {
       "Points": [
        {
         "co": {
          "X": 1,
          "Y": 0
         },
         "interpolation": 2
        }
       ]
      },
      "display": 0,
      "duration": 3600.0,
      "effects": [],
      "end": 29.5,
      "gravity": 4,
      "has_audio": {
       "Points": [
        {
         "co": {
          "X": 1,
          "Y": -1
         },
         "interpolation": 2
        }
       ]
      },
      "has_video": {
       "Points": [
        {
         "co": {
          "X": 1,
          "Y": -1
         },
         "interpolation": 2
        }
       ]
      },
      "id": "ZHZA9ZA36U",
      "layer": 6000000,
      "location_x": {
       "Points": [
        {
         "co": {
          "X": 1,
          "Y": 0
         },
         "interpolation": 2
        }
       ]
      },
      "location_y": {
       "Points": [
        {
         "co": {
          "X": 1,
          "Y": 0
         },
         "interpolation": 2
        }
       ]
      },
      "mixing": 0,
      "perspective_c1_x": {
       "Points": [
        {
         "co": {
          "X": 1,
          "Y": -1
         },
         "interpolation": 2
        }
       ]
      },
      "perspective_c1_y": {
       "Points": [
        {
         "co": {
          "X": 1,
          "Y": -1
         },
         "interpolation": 2
        }
       ]
      },
      "perspective_c2_x": {
       "Points": [
        {
         "co": {
          "X": 1,
          "Y": -1
         },
         "interpolation": 2
        }
       ]
      },
      "perspective_c2_y": {
       "Points": [
        {
         "co": {
          "X": 1,
          "Y": -1
         },
         "interpolation": 2
        }
       ]
      },
      "perspective_c3_x": {
       "Points": [
        {
         "co": {
          "X": 1,
          "Y": -1
         },
         "interpolation": 2
        }
       ]
      },
      "perspective_c3_y": {
       "Points": [
        {
         "co": {
          "X": 1,
          "Y": -1
         },
         "interpolation": 2
        }
       ]
      },
      "perspective_c4_x": {
       "Points": [
        {
         "co": {
          "X": 1,
          "Y": -1
         },
         "interpolation": 2
        }
       ]
      },
      "perspective_c4_y": {
       "Points": [
        {
         "co": {
          "X": 1,
          "Y": -1
         },
         "interpolation": 2
        }
       ]
      },
      "position": 50.849999999999994,
      "reader": {
       "acodec": "",
       "audio_bit_rate": 0,
       "audio_stream_index": -1,
       "audio_timebase": {
        "den": 1,
        "num": 1
       },
       "channel_layout": 4,
       "channels": 0,
       "display_ratio": {
        "den": 721,
        "num": 1280
       },
       "duration": 3600.0,
       "file_size": "3691520",
       "fps": {
        "den": 1,
        "num": 30
       },
       "has_audio": false,
       "has_single_image": true,
       "has_video": true,
       "height": 721,
       "interlaced_frame": false,
       "metadata": {},
       "path": "generated/240_allelulia_give_thanks-3.png",
       "pixel_format": -1,
       "pixel_ratio": {
        "den": 1,
        "num": 1
       },
       "sample_rate": 0,
       "top_field_first": true,
       "type": "QtImageReader",
       "vcodec": "",
       "video_bit_rate": 0,
       "video_length": "108000",
       "video_stream_index": -1,
       "video_timebase": {
        "den": 30,
        "num": 1
       },
       "width": 1280
      },
      "rotation": {
       "Points": [
        {
         "co": {
          "X": 1,
          "Y": 0
         },
         "interpolation": 2
        }
       ]
      },
      "scale": 1,
      "scale_x": {
       "Points": [
        {
         "co": {
          "X": 1,
          "Y": 1
         },
         "interpolation": 2
        }
       ]
      },
      "scale_y": {
       "Points": [
        {
         "co": {
          "X": 1,
          "Y": 1
         },
         "interpolation": 2
        }
       ]
      },
      "shear_x": {
       "Points": [
        {
         "co": {
          "X": 1,
          "Y": 0
         },
         "interpolation": 2
        }
       ]
      },
      "shear_y": {
       "Points": [
        {
         "co": {
          "X": 1,
          "Y": 0
         },
         "interpolation": 2
        }
       ]
      },
      "start": 0,
      "time": {
       "Points": [
        {
         "co": {
          "X": 1,
          "Y": 1
         },
         "interpolation": 2
        }
       ]
      },
      "volume": {
       "Points": [
        {
         "co": {
          "X": 1,
          "Y": 1
         },
         "interpolation": 2
        }
       ]
      },
      "wave_color": {
       "alpha": {
        "Points": [
         {
          "co": {
           "X": 1,
           "Y": 255
          },
          "handle_left": {
           "X": 0.5,
           "Y": 1
          },
          "handle_right": {
           "X": 0.5,
           "Y": 0
          },
          "handle_type": 0,
          "interpolation": 0
         }
        ]
       },
       "blue": {
        "Points": [
         {
          "co": {
           "X": 1,
           "Y": 255
          },
          "handle_left": {
           "X": 0.5,
           "Y": 1
          },
          "handle_right": {
           "X": 0.5,
           "Y": 0
          },
          "handle_type": 0,
          "interpolation": 0
         }
        ]
       },
       "green": {
        "Points": [
         {
          "co": {
           "X": 1,
           "Y": 123
          },
          "handle_left": {
           "X": 0.5,
           "Y": 1
          },
          "handle_right": {
           "X": 0.5,
           "Y": 0
          },
          "handle_type": 0,
          "interpolation": 0
         }
        ]
       },
       "red": {
        "Points": [
         {
          "co": {
           "X": 1,
           "Y": 0
          },
          "handle_left": {
           "X": 0.5,
           "Y": 1
          },
          "handle_right": {
           "X": 0.5,
           "Y": 0
          },
          "handle_type": 0,
          "interpolation": 0
         }
        ]
       }
      },
      "waveform": false,
      "file_id": "5VAPZ0XAUP",
      "title": "240_allelulia_give_thanks-3.png"
     },
     {
      "alpha": {
       "Points": [
        {
         "co": {
          "X": 1,
          "Y": 1
         },
         "interpolation": 2
        }
       ]
      },
      "anchor": 0,
      "channel_filter": {
       "Points": [
        {
         "co": {
          "X": 1,
          "Y": -1
         },
         "interpolation": 2
        }
       ]
      },
      "channel_mapping": {
       "Points": [
        {
         "co": {
          "X": 1,
          "Y": -1
         },
         "interpolation": 2
        }
       ]
      },
      "crop_height": {
       "Points": [
        {
         "co": {
          "X": 1,
          "Y": 1
         },
         "interpolation": 2
        }
       ]
      },
      "crop_width": {
       "Points": [
        {
         "co": {
          "X": 1,
          "Y": 1
         },
         "interpolation": 2
        }
       ]
      },
      "crop_x": {
       "Points": [
        {
         "co": {
          "X": 1,
          "Y": 0
         },
         "interpolation": 2
        }
       ]
      },
      "crop_y": {
       "Points": [
        {
         "co": {
          "X": 1,
          "Y": 0
         },
         "interpolation": 2
        }
       ]
      },
      "display": 0,
      "duration": 3600.0,
      "effects": [],
      "end": 29.791666666666668,
      "gravity": 4,
      "has_audio": {
       "Points": [
        {
         "co": {
          "X": 1,
          "Y": -1
         },
         "interpolation": 2
        }
       ]
      },
      "has_video": {
       "Points": [
        {
         "co": {
          "X": 1,
          "Y": -1
         },
         "interpolation": 2
        }
       ]
      },
      "id": "C5G969ZVWP",
      "layer": 6000000,
      "location_x": {
       "Points": [
        {
         "co": {
          "X": 1,
          "Y": 0
         },
         "interpolation": 2
        }
       ]
      },
      "location_y": {
       "Points": [
        {
         "co": {
          "X": 1,
          "Y": 0
         },
         "interpolation": 2
        }
       ]
      },
      "mixing": 0,
      "perspective_c1_x": {
       "Points": [
        {
         "co": {
          "X": 1,
          "Y": -1
         },
         "interpolation": 2
        }
       ]
      },
      "perspective_c1_y": {
       "Points": [
        {
         "co": {
          "X": 1,
          "Y": -1
         },
         "interpolation": 2
        }
       ]
      },
      "perspective_c2_x": {
       "Points": [
        {
         "co": {
          "X": 1,
          "Y": -1
         },
         "interpolation": 2
        }
       ]
      },
      "perspective_c2_y": {
       "Points": [
        {
         "co": {
          "X": 1,
          "Y": -1
         },
         "interpolation": 2
        }
       ]
      },
      "perspective_c3_x": {
       "Points": [
        {
         "co": {
          "X": 1,
          "Y": -1
         },
         "interpolation": 2
        }
       ]
      },
      "perspective_c3_y": {
       "Points": [
        {
         "co": {
          "X": 1,
          "Y": -1
         },
         "interpolation": 2
        }
       ]
      },
      "perspective_c4_x": {
       "Points": [
        {
         "co": {
          "X": 1,
          "Y": -1
         },
         "interpolation": 2
        }
       ]
      },
      "perspective_c4_y": {
       "Points": [
        {
         "co": {
          "X": 1,
          "Y": -1
         },
         "interpolation": 2
        }
       ]
      },
      "position": 77.7,
      "reader": {
       "acodec": "",
       "audio_bit_rate": 0,
       "audio_stream_index": -1,
       "audio_timebase": {
        "den": 1,
        "num": 1
       },
       "channel_layout": 4,
       "channels": 0,
       "display_ratio": {
        "den": 721,
        "num": 1280
       },
       "duration": 3600.0,
       "file_size": "3691520",
       "fps": {
        "den": 1,
        "num": 30
       },
       "has_audio": false,
       "has_single_image": true,
       "has_video": true,
       "height": 721,
       "interlaced_frame": false,
       "metadata": {},
       "path": "generated/240_allelulia_give_thanks-4.png",
       "pixel_format": -1,
       "pixel_ratio": {
        "den": 1,
        "num": 1
       },
       "sample_rate": 0,
       "top_field_first": true,
       "type": "QtImageReader",
       "vcodec": "",
       "video_bit_rate": 0,
       "video_length": "108000",
       "video_stream_index": -1,
       "video_timebase": {
        "den": 30,
        "num": 1
       },
       "width": 1280
      },
      "rotation": {
       "Points": [
        {
         "co": {
          "X": 1,
          "Y": 0
         },
         "interpolation": 2
        }
       ]
      },
      "scale": 1,
      "scale_x": {
       "Points": [
        {
         "co": {
          "X": 1,
          "Y": 1
         },
         "interpolation": 2
        }
       ]
      },
      "scale_y": {
       "Points": [
        {
         "co": {
          "X": 1,
          "Y": 1
         },
         "interpolation": 2
        }
       ]
      },
      "shear_x": {
       "Points": [
        {
         "co": {
          "X": 1,
          "Y": 0
         },
         "interpolation": 2
        }
       ]
      },
      "shear_y": {
       "Points": [
        {
         "co": {
          "X": 1,
          "Y": 0
         },
         "interpolation": 2
        }
       ]
      },
      "start": 0,
      "time": {
       "Points": [
        {
         "co": {
          "X": 1,
          "Y": 1
         },
         "interpolation": 2
        }
       ]
      },
      "volume": {
       "Points": [
        {
         "co": {
          "X": 1,
          "Y": 1
         },
         "interpolation": 2
        }
       ]
      },
      "wave_color": {
       "alpha": {
        "Points": [
         {
          "co": {
           "X": 1,
           "Y": 255
          },
          "handle_left": {
           "X": 0.5,
           "Y": 1
          },
          "handle_right": {
           "X": 0.5,
           "Y": 0
          },
          "handle_type": 0,
          "interpolation": 0
         }
        ]
       },
       "blue": {
        "Points": [
         {
          "co": {
           "X": 1,
           "Y": 255
          },
          "handle_left": {
           "X": 0.5,
           "Y": 1
          },
          "handle_right": {
           "X": 0.5,
           "Y": 0
          },
          "handle_type": 0,
          "interpolation": 0
         }
        ]
       },
       "green": {
        "Points": [
         {
          "co": {
           "X": 1,
           "Y": 123
          },
          "handle_left": {
           "X": 0.5,
           "Y": 1
          },
          "handle_right": {
           "X": 0.5,
           "Y": 0
          },
          "handle_type": 0,
          "interpolation": 0
         }
        ]
       },
       "red": {
        "Points": [
         {
          "co": {
           "X": 1,
           "Y": 0
          },
          "handle_left": {
           "X": 0.5,
           "Y": 1
          },
          "handle_right": {
           "X": 0.5,
           "Y": 0
          },
          "handle_type": 0,
          "interpolation": 0
         }
        ]
       }
      },
      "waveform": false,
      "file_id": "R0PJFNQQE1",
      "title": "240_allelulia_give_thanks-4.png"
     }
    ]
   },
   {
    "type": "update",
    "key": [
     "clips",
     {
      "id": "DE994N4JS4"
     }
    ],
    "value": {
     "id": "DE994N4JS4",
     "layer": 6000000,
     "position": 103.94999999999999,
     "start": 0,
     "end": 10
    },
    "partial": false,
    "old_values": {
     "alpha": {
      "Points": [
       {
        "co": {
         "X": 1,
         "Y": 1
        },
        "interpolation": 2
       }
      ]
     },
     "anchor": 0,
     "channel_filter": {
      "Points": [
       {
        "co": {
         "X": 1,
         "Y": -1
        },
        "interpolation": 2
       }
      ]
     },
     "channel_mapping": {
      "Points": [
       {
        "co": {
         "X": 1,
         "Y": -1
        },
        "interpolation": 2
       }
      ]
     },
     "crop_height": {
      "Points": [
       {
        "co": {
         "X": 1,
         "Y": 1
        },
        "interpolation": 2
       }
      ]
     },
     "crop_width": {
      "Points": [
       {
        "co": {
         "X": 1,
         "Y": 1
        },
        "interpolation": 2
       }
      ]
     },
     "crop_x": {
      "Points": [
       {
        "co": {
         "X": 1,
         "Y": 0
        },
        "interpolation": 2
       }
      ]
     },
     "crop_y": {
      "Points": [
       {
        "co": {
         "X": 1,
         "Y": 0
        },
        "interpolation": 2
       }
      ]
     },
     "display": 0,
     "duration": 3600.0,
     "effects": [],
     "end": 10.0,
     "gravity": 4,
     "has_audio": {
      "Points": [
       {
        "co": {
         "X": 1,
         "Y": -1
        },
        "interpolation": 2
       }
      ]
     },
     "has_video": {
      "Points": [
       {
        "co": {
         "X": 1,
         "Y": -1
        },
        "interpolation": 2
       }
      ]
     },
     "id": "DE994N4JS4",
     "layer": 6000000,
     "location_x": {
      "Points": [
       {
        "co": {
         "X": 1,
         "Y": 0
        },
        "interpolation": 2
       }
      ]
     },
     "location_y": {
      "Points": [
       {
        "co": {
         "X": 1,
         "Y": 0
        },
        "interpolation": 2
       }
      ]
     },
     "mixing": 0,
     "perspective_c1_x": {
      "Points": [
       {
        "co": {
         "X": 1,
         "Y": -1
        },
        "interpolation": 2
       }
      ]
     },
     "perspective_c1_y": {
      "Points": [
       {
        "co": {
         "X": 1,
         "Y": -1
        },
        "interpolation": 2
       }
      ]
     },
     "perspective_c2_x": {
      "Points": [
       {
        "co": {
         "X": 1,
         "Y": -1
        },
        "interpolation": 2
       }
      ]
     },
     "perspective_c2_y": {
      "Points": [
       {
        "co": {
         "X": 1,
         "Y": -1
        },
        "interpolation": 2
       }
      ]
     },
     "perspective_c3_x": {
      "Points": [
       {
        "co": {
         "X": 1,
         "Y": -1
        },
        "interpolation": 2
       }
      ]
     },
     "perspective_c3_y": {
      "Points": [
       {
        "co": {
         "X": 1,
         "Y": -1
        },
        "interpolation": 2
       }
      ]
     },
     "perspective_c4_x": {
      "Points": [
       {
        "co": {
         "X": 1,
         "Y": -1
        },
        "interpolation": 2
       }
      ]
     },
     "perspective_c4_y": {
      "Points": [
       {
        "co": {
         "X": 1,
         "Y": -1
        },
        "interpolation": 2
       }
      ]
     },
     "position": 78.6,
     "reader": {
      "acodec": "",
      "audio_bit_rate": 0,
      "audio_stream_index": -1,
      "audio_timebase": {
       "den": 1,
       "num": 1
      },
      "channel_layout": 4,
      "channels": 0,
      "display_ratio": {
       "den": 721,
       "num": 1280
      },
      "duration": 3600.0,
      "file_size": "3691520",
      "fps": {
       "den": 1,
       "num": 30
      },
      "has_audio": false,
      "has_single_image": true,
      "has_video": true,
      "height": 721,
      "interlaced_frame": false,
      "metadata": {},
      "path": "generated/240_allelulia_give_thanks-5.png",
      "pixel_format": -1,
      "pixel_ratio": {
       "den": 1,
       "num": 1
      },
      "sample_rate": 0,
      "top_field_first": true,
      "type": "QtImageReader",
      "vcodec": "",
      "video_bit_rate": 0,
      "video_length": "108000",
      "video_stream_index": -1,
      "video_timebase": {
       "den": 30,
       "num": 1
      },
      "width": 1280
     },
     "rotation": {
      "Points": [
       {
        "co": {
         "X": 1,
         "Y": 0
        },
        "interpolation": 2
       }
      ]
     },
     "scale": 1,
     "scale_x": {
      "Points": [
       {
        "co": {
         "X": 1,
         "Y": 1
        },
        "interpolation": 2
       }
      ]
     },
     "scale_y": {
      "Points": [
       {
        "co": {
         "X": 1,
         "Y": 1
        },
        "interpolation": 2
       }
      ]
     },
     "shear_x": {
      "Points": [
       {
        "co": {
         "X": 1,
         "Y": 0
        },
        "interpolation": 2
       }
      ]
     },
     "shear_y": {
      "Points": [
       {
        "co": {
         "X": 1,
         "Y": 0
        },
        "interpolation": 2
       }
      ]
     },
     "start": 0,
     "time": {
      "Points": [
       {
        "co": {
         "X": 1,
         "Y": 1
        },
        "interpolation": 2
       }
      ]
     },
     "volume": {
      "Points": [
       {
        "co": {
         "X": 1,
         "Y": 1
        },
        "interpolation": 2
       }
      ]
     },
     "wave_color": {
      "alpha": {
       "Points": [
        {
         "co": {
          "X": 1,
          "Y": 255
         },
         "handle_left": {
          "X": 0.5,
          "Y": 1
         },
         "handle_right": {
          "X": 0.5,
          "Y": 0
         },
         "handle_type": 0,
         "interpolation": 0
        }
       ]
      },
      "blue": {
       "Points": [
        {
         "co": {
          "X": 1,
          "Y": 255
         },
         "handle_left": {
          "X": 0.5,
          "Y": 1
         },
         "handle_right": {
          "X": 0.5,
          "Y": 0
         },
         "handle_type": 0,
         "interpolation": 0
        }
       ]
      },
      "green": {
       "Points": [
        {
         "co": {
          "X": 1,
          "Y": 123
         },
         "handle_left": {
          "X": 0.5,
          "Y": 1
         },
         "handle_right": {
          "X": 0.5,
          "Y": 0
         },
         "handle_type": 0,
         "interpolation": 0
        }
       ]
      },
      "red": {
       "Points": [
        {
         "co": {
          "X": 1,
          "Y": 0
         },
         "handle_left": {
          "X": 0.5,
          "Y": 1
         },
         "handle_right": {
          "X": 0.5,
          "Y": 0
         },
         "handle_type": 0,
         "interpolation": 0
        }
       ]
      }
     },
     "waveform": false,
     "file_id": "HDUSPFUYCT",
     "title": "240_allelulia_give_thanks-5.png"
    }
   },
   {
    "type": "insert",
    "key": [
     "effects"
    ],
    "value": {
     "id": "X2285JJPFE",
     "layer": 6000000,
     "title": "Transition",
     "type": "Mask",
     "position": 103.94999999999999,
     "start": 0,
     "end": 3.5416666666666856,
     "brightness": {
      "Points": [
       {
        "co": {
         "X": 1,
         "Y": 1
        },
        "handle_left": {
         "X": 0.5,
         "Y": 1
        },
        "handle_right": {
         "X": 0.5,
         "Y": 0
        },
        "handle_type": 0,
        "interpolation": 0
       },
       {
        "co": {
         "X": 86,
         "Y": -1
        },
        "handle_left": {
         "X": 0.5,
         "Y": 1
        },
        "handle_right": {
         "X": 0.5,
         "Y": 0
        },
        "handle_type": 0,
        "interpolation": 0
       }
      ]
     },
     "contrast": {
      "Points": [
       {
        "co": {
         "X": 1,
         "Y": 3
        },
        "interpolation": 2
       }
      ]
     },
     "reader": {
      "acodec": "",
      "audio_bit_rate": 0,
      "audio_stream_index": -1,
      "audio_timebase": {
       "den": 1,
       "num": 1
      },
      "channel_layout": 4,
      "channels": 0,
      "display_ratio": {
       "den": 4,
       "num": 5
      },
      "duration": 3600,
      "file_size": "1658880",
      "fps": {
       "den": 1,
       "num": 30
      },
      "has_audio": false,
      "has_single_image": true,
      "has_video": true,
      "height": 576,
      "interlaced_frame": false,
      "metadata": {},
      "path": "@transitions/common/fade.svg",
      "pixel_format": -1,
      "pixel_ratio": {
       "den": 1,
       "num": 1
      },
      "sample_rate": 0,
      "top_field_first": true,
      "type": "QtImageReader",
      "vcodec": "",
      "video_bit_rate": 0,
      "video_length": "108000",
      "video_stream_index": -1,
      "video_timebase": {
       "den": 30,
       "num": 1
      },
      "width": 720
     },
     "replace_image": false
    },
    "partial": false,
    "old_values": [
     {
      "id": "KRJQ2LSCZM",
      "layer": 6000000,
      "title": "Transition",
      "type": "Mask",
      "position": 26.33333333333333,
      "start": 0,
      "end": 2.5833333333333393,
      "brightness": {
       "Points": [
        {
         "co": {
          "X": 1,
          "Y": 1
         },
         "handle_left": {
          "X": 0.5,
          "Y": 1
         },
         "handle_right": {
          "X": 0.5,
          "Y": 0
         },
         "handle_type": 0,
         "interpolation": 0
        },
        {
         "co": {
          "X": 63,
          "Y": -1
         },
         "handle_left": {
          "X": 0.5,
          "Y": 1
         },
         "handle_right": {
          "X": 0.5,
          "Y": 0
         },
         "handle_type": 0,
         "interpolation": 0
        }
       ]
      },
      "contrast": {
       "Points": [
        {
         "co": {
          "X": 1,
          "Y": 3
         },
         "interpolation": 2
        }
       ]
      },
      "reader": {
       "acodec": "",
       "audio_bit_rate": 0,
       "audio_stream_index": -1,
       "audio_timebase": {
        "den": 1,
        "num": 1
       },
       "channel_layout": 4,
       "channels": 0,
       "display_ratio": {
        "den": 4,
        "num": 5
       },
       "duration": 3600,
       "file_size": "1658880",
       "fps": {
        "den": 1,
        "num": 30
       },
       "has_audio": false,
       "has_single_image": true,
       "has_video": true,
       "height": 576,
       "interlaced_frame": false,
       "metadata": {},
       "path": "@transitions/common/fade.svg",
       "pixel_format": -1,
       "pixel_ratio": {
        "den": 1,
        "num": 1
       },
       "sample_rate": 0,
       "top_field_first": true,
       "type": "QtImageReader",
       "vcodec": "",
       "video_bit_rate": 0,
       "video_length": "108000",
       "video_stream_index": -1,
       "video_timebase": {
        "den": 30,
        "num": 1
       },
       "width": 720
      },
      "replace_image": false
     },
     {
      "id": "MR1C9GH5EV",
      "layer": 6000000,
      "title": "Transition",
      "type": "Mask",
      "position": 50.849999999999994,
      "start": 0,
      "end": 2.7333333333333343,
      "brightness": {
       "Points": [
        {
         "co": {
          "X": 1,
          "Y": 1
         },
         "handle_left": {
          "X": 0.5,
          "Y": 1
         },
         "handle_right": {
          "X": 0.5,
          "Y": 0
         },
         "handle_type": 0,
         "interpolation": 0
        },
        {
         "co": {
          "X": 67,
          "Y": -1
         },
         "handle_left": {
          "X": 0.5,
          "Y": 1
         },
         "handle_right": {
          "X": 0.5,
          "Y": 0
         },
         "handle_type": 0,
         "interpolation": 0
        }
       ]
      },
      "contrast": {
       "Points": [
        {
         "co": {
          "X": 1,
          "Y": 3
         },
         "interpolation": 2
        }
       ]
      },
      "reader": {
       "acodec": "",
       "audio_bit_rate": 0,
       "audio_stream_index": -1,
       "audio_timebase": {
        "den": 1,
        "num": 1
       },
       "channel_layout": 4,
       "channels": 0,
       "display_ratio": {
        "den": 4,
        "num": 5
       },
       "duration": 3600,
       "file_size": "1658880",
       "fps": {
        "den": 1,
        "num": 30
       },
       "has_audio": false,
       "has_single_image": true,
       "has_video": true,
       "height": 576,
       "interlaced_frame": false,
       "metadata": {},
       "path": "@transitions/common/fade.svg",
       "pixel_format": -1,
       "pixel_ratio": {
        "den": 1,
        "num": 1
       },
       "sample_rate": 0,
       "top_field_first": true,
       "type": "QtImageReader",
       "vcodec": "",
       "video_bit_rate": 0,
       "video_length": "108000",
       "video_stream_index": -1,
       "video_timebase": {
        "den": 30,
        "num": 1
       },
       "width": 720
      },
      "replace_image": false
     },
     {
      "id": "ZV0DDOKUKR",
      "layer": 6000000,
      "title": "Transition",
      "type": "Mask",
      "position": 77.7,
      "start": 0,
      "end": 2.6499999999999915,
      "brightness": {
       "Points": [
        {
         "co": {
          "X": 1,
          "Y": 1
         },
         "handle_left": {
          "X": 0.5,
          "Y": 1
         },
         "handle_right": {
          "X": 0.5,
          "Y": 0
         },
         "handle_type": 0,
         "interpolation": 0
        },
        {
         "co": {
          "X": 65,
          "Y": -1
         },
         "handle_left": {
          "X": 0.5,
          "Y": 1
         },
         "handle_right": {
          "X": 0.5,
          "Y": 0
         },
         "handle_type": 0,
         "interpolation": 0
        }
       ]
      },
      "contrast": {
       "Points": [
        {
         "co": {
          "X": 1,
          "Y": 3
         },
         "interpolation": 2
        }
       ]
      },
      "reader": {
       "acodec": "",
       "audio_bit_rate": 0,
       "audio_stream_index": -1,
       "audio_timebase": {
        "den": 1,
        "num": 1
       },
       "channel_layout": 4,
       "channels": 0,
       "display_ratio": {
        "den": 4,
        "num": 5
       },
       "duration": 3600,
       "file_size": "1658880",
       "fps": {
        "den": 1,
        "num": 30
       },
       "has_audio": false,
       "has_single_image": true,
       "has_video": true,
       "height": 576,
       "interlaced_frame": false,
       "metadata": {},
       "path": "@transitions/common/fade.svg",
       "pixel_format": -1,
       "pixel_ratio": {
        "den": 1,
        "num": 1
       },
       "sample_rate": 0,
       "top_field_first": true,
       "type": "QtImageReader",
       "vcodec": "",
       "video_bit_rate": 0,
       "video_length": "108000",
       "video_stream_index": -1,
       "video_timebase": {
        "den": 30,
        "num": 1
       },
       "width": 720
      },
      "replace_image": false
     }
    ]
   },
   {
    "type": "update",
    "key": [
     "clips",
     {
      "id": "DE994N4JS4"
     }
    ],
    "value": {
     "id": "DE994N4JS4",
     "layer": 6000000,
     "position": 103.94999999999999,
     "start": 0,
     "end": 35.208333333333336
    },
    "partial": false,
    "old_values": {
     "alpha": {
      "Points": [
       {
        "co": {
         "X": 1,
         "Y": 1
        },
        "interpolation": 2
       }
      ]
     },
     "anchor": 0,
     "channel_filter": {
      "Points": [
       {
        "co": {
         "X": 1,
         "Y": -1
        },
        "interpolation": 2
       }
      ]
     },
     "channel_mapping": {
      "Points": [
       {
        "co": {
         "X": 1,
         "Y": -1
        },
        "interpolation": 2
       }
      ]
     },
     "crop_height": {
      "Points": [
       {
        "co": {
         "X": 1,
         "Y": 1
        },
        "interpolation": 2
       }
      ]
     },
     "crop_width": {
      "Points": [
       {
        "co": {
         "X": 1,
         "Y": 1
        },
        "interpolation": 2
       }
      ]
     },
     "crop_x": {
      "Points": [
       {
        "co": {
         "X": 1,
         "Y": 0
        },
        "interpolation": 2
       }
      ]
     },
     "crop_y": {
      "Points": [
       {
        "co": {
         "X": 1,
         "Y": 0
        },
        "interpolation": 2
       }
      ]
     },
     "display": 0,
     "duration": 3600.0,
     "effects": [],
     "end": 10,
     "gravity": 4,
     "has_audio": {
      "Points": [
       {
        "co": {
         "X": 1,
         "Y": -1
        },
        "interpolation": 2
       }
      ]
     },
     "has_video": {
      "Points": [
       {
        "co": {
         "X": 1,
         "Y": -1
        },
        "interpolation": 2
       }
      ]
     },
     "id": "DE994N4JS4",
     "layer": 6000000,
     "location_x": {
      "Points": [
       {
        "co": {
         "X": 1,
         "Y": 0
        },
        "interpolation": 2
       }
      ]
     },
     "location_y": {
      "Points": [
       {
        "co": {
         "X": 1,
         "Y": 0
        },
        "interpolation": 2
       }
      ]
     },
     "mixing": 0,
     "perspective_c1_x": {
      "Points": [
       {
        "co": {
         "X": 1,
         "Y": -1
        },
        "interpolation": 2
       }
      ]
     },
     "perspective_c1_y": {
      "Points": [
       {
        "co": {
         "X": 1,
         "Y": -1
        },
        "interpolation": 2
       }
      ]
     },
     "perspective_c2_x": {
      "Points": [
       {
        "co": {
         "X": 1,
         "Y": -1
        },
        "interpolation": 2
       }
      ]
     },
     "perspective_c2_y": {
      "Points": [
       {
        "co": {
         "X": 1,
         "Y": -1
        },
        "interpolation": 2
       }
      ]
     },
     "perspective_c3_x": {
      "Points": [
       {
        "co": {
         "X": 1,
         "Y": -1
        },
        "interpolation": 2
       }
      ]
     },
     "perspective_c3_y": {
      "Points": [
       {
        "co": {
         "X": 1,
         "Y": -1
        },
        "interpolation": 2
       }
      ]
     },
     "perspective_c4_x": {
      "Points": [
       {
        "co": {
         "X": 1,
         "Y": -1
        },
        "interpolation": 2
       }
      ]
     },
     "perspective_c4_y": {
      "Points": [
       {
        "co": {
         "X": 1,
         "Y": -1
        },
        "interpolation": 2
       }
      ]
     },
     "position": 103.94999999999999,
     "reader": {
      "acodec": "",
      "audio_bit_rate": 0,
      "audio_stream_index": -1,
      "audio_timebase": {
       "den": 1,
       "num": 1
      },
      "channel_layout": 4,
      "channels": 0,
      "display_ratio": {
       "den": 721,
       "num": 1280
      },
      "duration": 3600.0,
      "file_size": "3691520",
      "fps": {
       "den": 1,
       "num": 30
      },
      "has_audio": false,
      "has_single_image": true,
      "has_video": true,
      "height": 721,
      "interlaced_frame": false,
      "metadata": {},
      "path": "generated/240_allelulia_give_thanks-5.png",
      "pixel_format": -1,
      "pixel_ratio": {
       "den": 1,
       "num": 1
      },
      "sample_rate": 0,
      "top_field_first": true,
      "type": "QtImageReader",
      "vcodec": "",
      "video_bit_rate": 0,
      "video_length": "108000",
      "video_stream_index": -1,
      "video_timebase": {
       "den": 30,
       "num": 1
      },
      "width": 1280
     },
     "rotation": {
      "Points": [
       {
        "co": {
         "X": 1,
         "Y": 0
        },
        "interpolation": 2
       }
      ]
     },
     "scale": 1,
     "scale_x": {
      "Points": [
       {
        "co": {
         "X": 1,
         "Y": 1
        },
        "interpolation": 2
       }
      ]
     },
     "scale_y": {
      "Points": [
       {
        "co": {
         "X": 1,
         "Y": 1
        },
        "interpolation": 2
       }
      ]
     },
     "shear_x": {
      "Points": [
       {
        "co": {
         "X": 1,
         "Y": 0
        },
        "interpolation": 2
       }
      ]
     },
     "shear_y": {
      "Points": [
       {
        "co": {
         "X": 1,
         "Y": 0
        },
        "interpolation": 2
       }
      ]
     },
     "start": 0,
     "time": {
      "Points": [
       {
        "co": {
         "X": 1,
         "Y": 1
        },
        "interpolation": 2
       }
      ]
     },
     "volume": {
      "Points": [
       {
        "co": {
         "X": 1,
         "Y": 1
        },
        "interpolation": 2
       }
      ]
     },
     "wave_color": {
      "alpha": {
       "Points": [
        {
         "co": {
          "X": 1,
          "Y": 255
         },
         "handle_left": {
          "X": 0.5,
          "Y": 1
         },
         "handle_right": {
          "X": 0.5,
          "Y": 0
         },
         "handle_type": 0,
         "interpolation": 0
        }
       ]
      },
      "blue": {
       "Points": [
        {
         "co": {
          "X": 1,
          "Y": 255
         },
         "handle_left": {
          "X": 0.5,
          "Y": 1
         },
         "handle_right": {
          "X": 0.5,
          "Y": 0
         },
         "handle_type": 0,
         "interpolation": 0
        }
       ]
      },
      "green": {
       "Points": [
        {
         "co": {
          "X": 1,
          "Y": 123
         },
         "handle_left": {
          "X": 0.5,
          "Y": 1
         },
         "handle_right": {
          "X": 0.5,
          "Y": 0
         },
         "handle_type": 0,
         "interpolation": 0
        }
       ]
      },
      "red": {
       "Points": [
        {
         "co": {
          "X": 1,
          "Y": 0
         },
         "handle_left": {
          "X": 0.5,
          "Y": 1
         },
         "handle_right": {
          "X": 0.5,
          "Y": 0
         },
         "handle_type": 0,
         "interpolation": 0
        }
       ]
      }
     },
     "waveform": false,
     "file_id": "HDUSPFUYCT",
     "title": "240_allelulia_give_thanks-5.png"
    }
   }
  ],
  "redo": []
 },
 "version": {
  "openshot-qt": "2.5.1-dev2",
  "libopenshot": "0.2.5-dev2"
 }
}